SplineFontDB: 3.0
FontName: Unna-Regular
FullName: Unna
FamilyName: Unna
Weight: Normal
Copyright: Copyright (c) 2011 by Omnibus-Type (www.omnibus-type.com) with Reserved Font Name "Rosario".\n
Version: 002.003
ItalicAngle: 0
UnderlinePosition: -50
UnderlineWidth: 50
Ascent: 800
Descent: 200
LayerCount: 2
Layer: 0 1 "Back"  1
Layer: 1 1 "Fore"  0
NeedsXUIDChange: 1
XUID: [1021 288 713564382 15720627]
FSType: 0
OS2Version: 2
OS2_WeightWidthSlopeOnly: 0
OS2_UseTypoMetrics: 1
CreationTime: 1314731926
ModificationTime: 1314728413
PfmFamily: 17
TTFWeight: 400
TTFWidth: 5
LineGap: 0
VLineGap: 0
Panose: 2 7 5 3 8 0 0 2 0 4
OS2TypoAscent: 861
OS2TypoAOffset: 0
OS2TypoDescent: -269
OS2TypoDOffset: 0
OS2TypoLinegap: 0
OS2WinAscent: 861
OS2WinAOffset: 0
OS2WinDescent: 269
OS2WinDOffset: 0
HheadAscent: 861
HheadAOffset: 0
HheadDescent: -269
HheadDOffset: 0
OS2SubXSize: 345
OS2SubYSize: 320
OS2SubXOff: 0
OS2SubYOff: 70
OS2SupXSize: 345
OS2SupYSize: 320
OS2SupXOff: 0
OS2SupYOff: 224
OS2StrikeYSize: 50
OS2StrikeYPos: 250
OS2FamilyClass: 768
OS2Vendor: 'PfEd'
OS2CodePages: 00000093.00000000
OS2UnicodeRanges: 8000002f.1000000a.00000000.00000000
Lookup: 258 0 0 "'kern' Horizontal Kerning in Latin lookup 0"  {"'kern' Horizontal Kerning in Latin lookup 0 subtable"  } ['kern' ('latn' <'dflt' > ) ]
MarkAttachClasses: 1
DEI: 91125
TtTable: prep
PUSHW_1
 511
SCANCTRL
PUSHB_1
 4
SCANTYPE
EndTTInstrs

StartChar: exclam
Encoding: 33 33 4
Width: 269
GlyphClass: 2
Flags: HMW
HStem: -10 115<137.5 171.5> 617 20G<138.5 170>
VStem: 90 129<32 63 31.5 64> 105 99<579 603.5> 143 23<211.5 253>
LayerCount: 2
Fore
SplineSet
90 48 m 128,-1,1
 90 72 90 72 109 88.5 c 128,-1,2
 128 105 128 105 155 105 c 128,-1,3
 182 105 182 105 200.5 88 c 128,-1,4
 219 71 219 71 219 47.5 c 0,5,6
 219 24 219 24 199.5 7 c 128,-1,7
 180 -10 180 -10 154.5 -10 c 0,8,9
 129 -10 129 -10 109.5 7 c 128,-1,0
 90 24 90 24 90 48 c 128,-1,1
105 588 m 0,10,11
 105 637 105 637 154.5 637 c 0,12,13
 204 637 204 637 204 588 c 0,14,15
 204 560 204 560 198 520 c 2,16,-1
 185 428 l 2,17,18
 166 291 166 291 166 217 c 0,19,20
 166 201 166 201 154.5 201 c 0,21,22
 143 201 143 201 143 217 c 0,23,24
 143 291 143 291 124 428 c 2,25,-1
 111 520 l 2,26,27
 105 560 105 560 105 588 c 0,10,11
EndSplineSet
EndChar

StartChar: quotedbl
Encoding: 34 34 5
Width: 252
GlyphClass: 2
Flags: HMW
HStem: 409 231<63 71 181 189>
LayerCount: 2
Fore
SplineSet
54 426 m 1,0,-1
 34 600 l 1,1,2
 34 640 34 640 67 640 c 128,-1,3
 100 640 100 640 100 600 c 1,4,-1
 80 426 l 1,5,6
 80 409 80 409 67 409 c 128,-1,7
 54 409 54 409 54 426 c 1,0,-1
172 426 m 1,8,-1
 152 600 l 1,9,10
 152 640 152 640 185 640 c 128,-1,11
 218 640 218 640 218 600 c 1,12,-1
 198 426 l 1,13,14
 198 409 198 409 185 409 c 128,-1,15
 172 409 172 409 172 426 c 1,8,-1
EndSplineSet
EndChar

StartChar: numbersign
Encoding: 35 35 6
Width: 505
GlyphClass: 2
Flags: HMW
HStem: -9 243<56 96 56 56 210 250 210 210> 194 40<29 117 18 128 29 157 168 271 323 412> 405 40<91 180 80 191 231 334 91 220 386 476> 405 234<80 290 80 290 250 290 250 334 220 290 250 374 404 444 250 476>
LayerCount: 2
Fore
SplineSet
117 194 m 1,0,-1
 18 194 l 1,1,-1
 29 234 l 1,2,-1
 128 234 l 1,3,-1
 180 405 l 1,4,-1
 80 405 l 1,5,-1
 91 445 l 1,6,-1
 191 445 l 1,7,-1
 250 639 l 1,8,-1
 290 639 l 1,9,-1
 231 445 l 1,10,-1
 345 445 l 1,11,-1
 404 639 l 1,12,-1
 444 639 l 1,13,-1
 386 445 l 1,14,-1
 487 445 l 1,15,-1
 476 405 l 1,16,-1
 374 405 l 1,17,-1
 323 234 l 1,18,-1
 424 234 l 1,19,-1
 412 194 l 1,20,-1
 311 194 l 1,21,-1
 250 -9 l 1,22,-1
 210 -9 l 1,23,-1
 271 194 l 1,24,-1
 157 194 l 1,25,-1
 96 -9 l 1,26,-1
 56 -9 l 1,27,-1
 117 194 l 1,0,-1
220 405 m 1,28,-1
 168 234 l 1,29,-1
 283 234 l 1,30,-1
 334 405 l 1,31,-1
 220 405 l 1,28,-1
EndSplineSet
EndChar

StartChar: dollar
Encoding: 36 36 7
Width: 466
GlyphClass: 2
Flags: HMW
HStem: -95 21G<206 243 206 206> 449 22<206 206 206 244.5> 627 20G<206 243 243 243>
VStem: 87 60<381.5 401> 206 37<-95 120 -95 120 471 647> 295 60<195.5 216.5> 312 20
LayerCount: 2
Fore
SplineSet
87 135 m 1,0,-1
 87 241 l 1,1,-1
 106 242 l 1,2,3
 114 197 114 197 147.5 169 c 128,-1,4
 181 141 181 141 220.5 141 c 0,5,6
 260 141 260 141 277.5 157.5 c 128,-1,7
 295 174 295 174 295 199.5 c 0,8,9
 295 225 295 225 282.5 239 c 128,-1,10
 270 253 270 253 239 261 c 2,11,-1
 159 283 l 1,12,13
 126 291 126 291 106.5 315.5 c 128,-1,14
 87 340 87 340 87 377.5 c 0,15,16
 87 415 87 415 119.5 442 c 128,-1,17
 152 469 152 469 206 471 c 1,18,-1
 206 647 l 1,19,-1
 243 647 l 1,20,-1
 243 467 l 1,21,22
 251 466 251 466 276 459.5 c 128,-1,23
 301 453 301 453 312.5 453 c 0,24,25
 324 453 324 453 335 460 c 1,26,-1
 330 369 l 1,27,-1
 312 369 l 1,28,29
 312 401 312 401 285 425 c 128,-1,30
 258 449 258 449 214 449 c 0,31,32
 147 449 147 449 147 394 c 0,33,34
 147 353 147 353 199 340 c 1,35,-1
 280 318 l 2,36,37
 355 298 355 298 355 228 c 0,38,39
 355 181 355 181 325 153 c 128,-1,40
 295 125 295 125 243 120 c 1,41,-1
 243 -95 l 1,42,-1
 206 -95 l 1,43,-1
 206 120 l 1,44,45
 186 122 186 122 153 131 c 128,-1,46
 120 140 120 140 107.5 140 c 0,47,48
 95 140 95 140 87 135 c 1,0,-1
EndSplineSet
EndChar

StartChar: percent
Encoding: 37 37 8
Width: 548
GlyphClass: 2
Flags: HMW
HStem: -77 21G<36 36> 660 20G<116.5 188>
VStem: 30 64<492 584.5 489.5 585.5> 211 64<490.5 584.5 490.5 586.5> 300 64<28 120.5 25.5 121.5> 481 64<26.5 120.5 26.5 122.5>
LayerCount: 2
Fore
SplineSet
36 -77 m 1,0,-1
 0 -52 l 1,1,-1
 511 666 l 1,2,-1
 548 644 l 1,3,-1
 36 -77 l 1,0,-1
62.5 433 m 128,-1,5
 30 470 30 470 30 538.5 c 128,-1,6
 30 607 30 607 63.5 643.5 c 128,-1,7
 97 680 97 680 152.5 680 c 128,-1,8
 208 680 208 680 241.5 643 c 128,-1,9
 275 606 275 606 275 537.5 c 128,-1,10
 275 469 275 469 241.5 432.5 c 128,-1,11
 208 396 208 396 151.5 396 c 128,-1,4
 95 396 95 396 62.5 433 c 128,-1,5
94 538.5 m 128,-1,13
 94 415 94 415 152.5 415 c 128,-1,14
 211 415 211 415 211 538.5 c 128,-1,15
 211 662 211 662 152.5 662 c 128,-1,12
 94 662 94 662 94 538.5 c 128,-1,13
332.5 -31 m 128,-1,17
 300 6 300 6 300 74.5 c 128,-1,18
 300 143 300 143 333.5 179.5 c 128,-1,19
 367 216 367 216 422.5 216 c 128,-1,20
 478 216 478 216 511.5 179 c 128,-1,21
 545 142 545 142 545 73.5 c 128,-1,22
 545 5 545 5 511.5 -31.5 c 128,-1,23
 478 -68 478 -68 421.5 -68 c 128,-1,16
 365 -68 365 -68 332.5 -31 c 128,-1,17
364 74.5 m 128,-1,25
 364 -49 364 -49 422.5 -49 c 128,-1,26
 481 -49 481 -49 481 74.5 c 128,-1,27
 481 198 481 198 422.5 198 c 128,-1,24
 364 198 364 198 364 74.5 c 128,-1,25
EndSplineSet
EndChar

StartChar: ampersand
Encoding: 38 38 9
Width: 610
GlyphClass: 2
Flags: HMW
HStem: -10 31<205.5 266.5> 0 21G 371 28 578 28<250.5 282.5>
VStem: 22 89<129.5 197.5> 132 77<505 524.5> 330 56<491.5 525.5> 461 32<320 355>
LayerCount: 2
Fore
SplineSet
22 163 m 0,0,1
 22 267 22 267 105 326 c 2,2,-1
 178 378 l 1,3,4
 132 437 132 437 132 488.5 c 128,-1,5
 132 540 132 540 170 573 c 128,-1,6
 208 606 208 606 262 606 c 0,7,8
 386 606 386 606 386 503 c 0,9,10
 386 478 386 478 374.5 454 c 128,-1,11
 363 430 363 430 344 419 c 2,12,-1
 287 383 l 1,13,-1
 428 191 l 1,14,15
 461 271 461 271 461 349 c 0,16,17
 461 372 461 372 447 372 c 2,18,-1
 401 370 l 1,19,-1
 401 399 l 1,20,-1
 552 399 l 1,21,-1
 552 370 l 1,22,-1
 506 372 l 2,23,24
 493 372 493 372 493 350 c 0,25,26
 493 255 493 255 449 161 c 1,27,-1
 539 39 l 2,28,29
 549 26 549 26 569 26 c 2,30,-1
 625 28 l 1,31,-1
 625 0 l 1,32,-1
 458 0 l 1,33,-1
 398 81 l 1,34,35
 366 38 366 38 325 14 c 128,-1,36
 284 -10 284 -10 210 -10 c 128,-1,37
 136 -10 136 -10 79 36.5 c 128,-1,38
 22 83 22 83 22 163 c 0,0,1
129.5 266 m 128,-1,40
 111 221 111 221 111 164.5 c 128,-1,41
 111 108 111 108 149 64.5 c 128,-1,42
 187 21 187 21 244 21 c 0,43,44
 320 21 320 21 380 105 c 1,45,-1
 199 350 l 1,46,-1
 182 336 l 1,47,39
 148 311 148 311 129.5 266 c 128,-1,40
226 559.5 m 128,-1,49
 209 541 209 541 209 514 c 128,-1,50
 209 487 209 487 228 461 c 2,51,-1
 266 411 l 1,52,-1
 310 447 l 1,53,54
 330 467 330 467 330 501 c 128,-1,55
 330 535 330 535 310.5 556.5 c 128,-1,56
 291 578 291 578 267 578 c 128,-1,48
 243 578 243 578 226 559.5 c 128,-1,49
EndSplineSet
EndChar

StartChar: quotesingle
Encoding: 39 39 10
Width: 133
GlyphClass: 2
Flags: HMW
HStem: 409 21G<63 71> 620 20G<57 77>
LayerCount: 2
Fore
SplineSet
54 426 m 1,0,-1
 34 600 l 1,1,2
 34 640 34 640 67 640 c 128,-1,3
 100 640 100 640 100 600 c 1,4,-1
 80 426 l 1,5,6
 80 409 80 409 67 409 c 128,-1,7
 54 409 54 409 54 426 c 1,0,-1
EndSplineSet
EndChar

StartChar: parenleft
Encoding: 40 40 11
Width: 254
GlyphClass: 2
Flags: HMW
HStem: -231 21G<211 254 211 211> 691 20G<211 254 254 254>
VStem: 18 94<173 307 173 328.5>
LayerCount: 2
Fore
SplineSet
18 240 m 128,-1,1
 18 483 18 483 211 711 c 1,2,-1
 254 711 l 1,3,4
 190 630 190 630 151 490 c 128,-1,5
 112 350 112 350 112 240 c 128,-1,6
 112 130 112 130 151 -10 c 128,-1,7
 190 -150 190 -150 254 -231 c 1,8,-1
 211 -231 l 1,9,0
 18 -3 18 -3 18 240 c 128,-1,1
EndSplineSet
EndChar

StartChar: parenright
Encoding: 41 41 12
Width: 254
GlyphClass: 2
Flags: HMW
HStem: -231 21G<0 43 0 0> 691 20G<0 43 43 43>
VStem: 142 94<173 307>
LayerCount: 2
Fore
SplineSet
43 -231 m 1,0,-1
 0 -231 l 1,1,2
 64 -150 64 -150 103 -10 c 128,-1,3
 142 130 142 130 142 240 c 128,-1,4
 142 350 142 350 103 490 c 128,-1,5
 64 630 64 630 0 711 c 1,6,-1
 43 711 l 1,7,8
 236 483 236 483 236 240 c 128,-1,9
 236 -3 236 -3 43 -231 c 1,0,-1
EndSplineSet
EndChar

StartChar: asterisk
Encoding: 42 42 13
Width: 338
GlyphClass: 2
Flags: HMW
HStem: 354 152<110.5 113.5 85 123.5 223.5 229> 454 52<40.5 113.5> 478 28<85 113.5 223.5 253> 478 52<40.5 113.5> 478 152<109.5 113.5 223.5 228 109.5 253>
VStem: 20 127<373.5 506.5> 71 76<383 386.5 373.5 396.5 597.5 601> 196 71<384.5 410.5> 196 122<399.5 506.5 477.5 584.5>
LayerCount: 2
Fore
SplineSet
141 405 m 1,0,-1
 147 383 l 1,1,2
 147 370 147 370 137 362 c 128,-1,3
 127 354 127 354 116.5 354 c 128,-1,4
 106 354 106 354 88.5 367 c 128,-1,5
 71 380 71 380 71 393.5 c 128,-1,6
 71 407 71 407 79 414 c 128,-1,7
 87 421 87 421 95 421.5 c 0,8,9
 113.014388489 422.625899281 113.014388489 422.625899281 124.007194245 442.56294964 c 128,-1,10
 135 462.5 135 462.5 135 473 c 1,11,12
 123 478 123 478 102.5 478 c 128,-1,13
 82 478 82 478 72.5 466 c 128,-1,14
 63 454 63 454 48.5 454 c 128,-1,15
 34 454 34 454 27 462 c 128,-1,16
 20 470 20 470 20 492 c 128,-1,17
 20 514 20 514 27 522 c 128,-1,18
 34 530 34 530 48.5 530 c 128,-1,19
 63 530 63 530 72.5 518 c 128,-1,20
 82 506 82 506 102.5 506 c 128,-1,21
 123 506 123 506 135 511 c 1,22,23
 135 521.5 135 521.5 125.5 538.75 c 128,-1,24
 116 556 116 556 104 561 c 0,25,26
 101 562 101 562 94 563.5 c 0,27,28
 71 568.428571429 71 568.428571429 71 593 c 0,29,30
 71 605 71 605 87.5 617.5 c 128,-1,31
 104 630 104 630 115.5 630 c 128,-1,32
 127 630 127 630 137 622 c 128,-1,33
 147 614 147 614 147 601 c 1,34,-1
 141 579 l 1,35,36
 141 570 141 570 150.5 553.5 c 128,-1,37
 160 537 160 537 169 531 c 1,38,39
 179 537 179 537 187.5 553.5 c 128,-1,40
 196 570 196 570 196 579 c 1,41,-1
 191 601 l 1,42,43
 191 614 191 614 201 622 c 128,-1,44
 211 630 211 630 221.5 630 c 128,-1,45
 232 630 232 630 249.5 616.5 c 128,-1,46
 267 603 267 603 267 594 c 0,47,48
 267 573 267 573 254 566 c 0,49,50
 251 565 251 565 243.5 564 c 0,51,52
 225.256756757 561.567567568 225.256756757 561.567567568 214.628378378 542.783783784 c 128,-1,53
 204 524 204 524 202 511 c 1,54,55
 214 506 214 506 235 506 c 128,-1,56
 256 506 256 506 265.5 518 c 128,-1,57
 275 530 275 530 289.5 530 c 128,-1,58
 304 530 304 530 311 522 c 128,-1,59
 318 514 318 514 318 492 c 128,-1,60
 318 470 318 470 311 462 c 128,-1,61
 304 454 304 454 289.5 454 c 128,-1,62
 275 454 275 454 265.5 466 c 128,-1,63
 256 478 256 478 235 478 c 128,-1,64
 214 478 214 478 202 473 c 1,65,66
 202 462 202 462 212.5 445 c 128,-1,67
 223 428 223 428 229 425 c 128,-1,68
 235 422 235 422 242 421 c 0,69,70
 267 417.428571429 267 417.428571429 267 390 c 0,71,72
 267 381 267 381 250 367.5 c 128,-1,73
 233 354 233 354 222 354 c 128,-1,74
 211 354 211 354 201 362 c 128,-1,75
 191 370 191 370 191 383 c 1,76,-1
 196 405 l 1,77,78
 196 414 196 414 187 430.5 c 128,-1,79
 178 447 178 447 169 453 c 1,80,81
 158 445 158 445 149.5 429.5 c 128,-1,82
 141 414 141 414 141 405 c 1,0,-1
EndSplineSet
EndChar

StartChar: plus
Encoding: 43 43 14
Width: 460
GlyphClass: 2
Flags: HMW
HStem: 73 21G<206 255 206 206> 259 44<20 206 20 206 255 440> 468 20G<206 255 255 255>
VStem: 206 49<73 259 73 259 303 488>
LayerCount: 2
Fore
SplineSet
206 259 m 1,0,-1
 20 259 l 1,1,-1
 20 303 l 1,2,-1
 206 303 l 1,3,-1
 206 488 l 1,4,-1
 255 488 l 1,5,-1
 255 303 l 1,6,-1
 440 303 l 1,7,-1
 440 259 l 1,8,-1
 255 259 l 1,9,-1
 255 73 l 1,10,-1
 206 73 l 1,11,-1
 206 259 l 1,0,-1
EndSplineSet
EndChar

StartChar: comma
Encoding: 44 44 15
Width: 250
GlyphClass: 2
Flags: HMW
HStem: -160 21G<79 79> -5 96<79.5 142.5>
VStem: 61 128<29.5 34.5 -29 52> 129 60<-29 -22.5>
LayerCount: 2
Fore
SplineSet
79 -160 m 1,0,-1
 60 -149 l 1,1,2
 86 -125 86 -125 107.5 -91 c 128,-1,3
 129 -57 129 -57 129 -34 c 0,4,5
 129 -5 129 -5 93 -5 c 0,6,7
 61 -5 61 -5 61 38 c 0,8,9
 61 59 61 59 78.5 75 c 128,-1,10
 96 91 96 91 119 91 c 0,11,12
 189 91 189 91 189 8 c 0,13,14
 189 -42 189 -42 155 -86.5 c 128,-1,15
 121 -131 121 -131 79 -160 c 1,0,-1
EndSplineSet
EndChar

StartChar: hyphen
Encoding: 45 45 16
Width: 249
GlyphClass: 2
Flags: HMW
HStem: 189 55<22 228 22 228>
LayerCount: 2
Fore
SplineSet
228 189 m 1,0,-1
 22 189 l 1,1,-1
 22 244 l 1,2,-1
 228 244 l 1,3,-1
 228 189 l 1,0,-1
EndSplineSet
EndChar

StartChar: period
Encoding: 46 46 17
Width: 250
GlyphClass: 2
Flags: HMW
HStem: -10 115<106.5 143.5>
VStem: 60 130<29.5 64.5>
LayerCount: 2
Fore
SplineSet
60 47 m 128,-1,1
 60 73 60 73 78.5 89 c 128,-1,2
 97 105 97 105 125 105 c 128,-1,3
 153 105 153 105 171.5 89 c 128,-1,4
 190 73 190 73 190 47 c 128,-1,5
 190 21 190 21 171.5 5.5 c 128,-1,6
 153 -10 153 -10 125 -10 c 128,-1,7
 97 -10 97 -10 78.5 5.5 c 128,-1,0
 60 21 60 21 60 47 c 128,-1,1
EndSplineSet
EndChar

StartChar: slash
Encoding: 47 47 18
Width: 247
GlyphClass: 2
Flags: HMW
HStem: -5 21G<34 34> 615 20G<214 214>
LayerCount: 2
Fore
SplineSet
34 -5 m 1,0,-1
 -5 6 l 1,1,-1
 214 635 l 1,2,-1
 252 626 l 1,3,-1
 34 -5 l 1,0,-1
EndSplineSet
EndChar

StartChar: zero
Encoding: 48 48 19
Width: 462
GlyphClass: 2
Flags: HMW
HStem: -9 26<189.5 273 189.5 297.5> 522 23<189.5 273>
VStem: 30 88<177.5 360.5> 345 87<175.5 359 175.5 366.5>
LayerCount: 2
Fore
SplineSet
30 267 m 0,0,1
 30 406 30 406 81.5 475.5 c 128,-1,2
 133 545 133 545 231.5 545 c 128,-1,3
 330 545 330 545 381 474.5 c 128,-1,4
 432 404 432 404 432 267 c 0,5,6
 432 -9 432 -9 231 -9 c 128,-1,7
 30 -9 30 -9 30 267 c 0,0,1
143 466 m 128,-1,9
 118 410 118 410 118 266.5 c 128,-1,10
 118 123 118 123 143 70 c 128,-1,11
 168 17 168 17 231.5 17 c 128,-1,12
 295 17 295 17 320 71 c 128,-1,13
 345 125 345 125 345 269.5 c 128,-1,14
 345 414 345 414 320 468 c 128,-1,15
 295 522 295 522 231.5 522 c 128,-1,8
 168 522 168 522 143 466 c 128,-1,9
EndSplineSet
EndChar

StartChar: one
Encoding: 49 49 20
Width: 328
GlyphClass: 2
Flags: HMW
HStem: 0 22<124 129.5 229 234> 535 20G<204 219 219 219>
VStem: 140 79<40 444 444 449.5>
LayerCount: 2
Fore
SplineSet
61 461 m 1,0,1
 135.785407725 482.995708155 135.785407725 482.995708155 204 555 c 1,2,-1
 219 555 l 1,3,-1
 219 40 l 2,4,5
 219 22 219 22 234 22 c 2,6,-1
 282 23 l 1,7,-1
 282 0 l 1,8,-1
 75 0 l 1,9,-1
 75 23 l 1,10,-1
 124 22 l 2,11,12
 140 22 140 22 140 40 c 2,13,-1
 140 444 l 2,14,15
 140 453 140 453 135.5 457.5 c 128,-1,16
 131 462 131 462 124 458 c 2,17,-1
 69 431 l 1,18,-1
 61 461 l 1,0,1
EndSplineSet
EndChar

StartChar: two
Encoding: 50 50 21
Width: 460
GlyphClass: 2
Flags: HMW
HStem: -2 21G 0 65<115 283 283 313.5 115 319 52 283 115 364> 382 165<97.5 267.5> 524 23<190.5 239.5>
VStem: 63 89<418.5 428.5 410.5 461> 306 87<376 446>
LayerCount: 2
Fore
SplineSet
364 0 m 2,0,-1
 52 0 l 1,1,2
 68.5266604303 73.4518241347 68.5266604303 73.4518241347 155.5 169 c 0,3,4
 191 208 191 208 225.5 247 c 0,5,6
 306 338 306 338 306 408 c 0,7,8
 306 464 306 464 280 494 c 128,-1,9
 254 524 254 524 217 524 c 128,-1,10
 180 524 180 524 160.5 507.5 c 128,-1,11
 141 491 141 491 141 466 c 0,12,13
 141 457 141 457 146.5 442.5 c 128,-1,14
 152 428 152 428 152 416.5 c 128,-1,15
 152 405 152 405 139 393.5 c 128,-1,16
 126 382 126 382 108 382 c 128,-1,17
 90 382 90 382 76.5 396.5 c 128,-1,18
 63 411 63 411 63 436 c 0,19,20
 63 478 63 478 102.5 512.5 c 128,-1,21
 142 547 142 547 219.5 547 c 128,-1,22
 297 547 297 547 345 511.5 c 128,-1,23
 393 476 393 476 393 408 c 0,24,25
 393 327 393 327 284 236 c 1,26,-1
 223 182 l 2,27,28
 146 114 146 114 115 65 c 1,29,-1
 283 65 l 2,30,31
 375 65 375 65 375 153 c 1,32,-1
 401 153 l 1,33,34
 393.636363636 69.5454545455 393.636363636 69.5454545455 393.636363636 38.5909090909 c 128,-1,35
 393.636363636 7.63636363636 393.636363636 7.63636363636 394 -2 c 1,36,37
 378 0 378 0 364 0 c 2,0,-1
EndSplineSet
EndChar

StartChar: three
Encoding: 51 51 22
Width: 440
GlyphClass: 2
Flags: HMW
HStem: -9 26<181.5 240.5 181.5 263> -9 158<61.5 263> 398 151<72.5 255> 525 24<181 231>
VStem: 41 74 41 86<456 478 456 482> 286 87<398.5 463.5> 318 55 318 86<111.5 184>
LayerCount: 2
Fore
SplineSet
127 458 m 1,0,-1
 129 435 l 1,1,2
 129 419 129 419 115.5 408.5 c 128,-1,3
 102 398 102 398 84 398 c 128,-1,4
 66 398 66 398 53.5 412.5 c 128,-1,5
 41 427 41 427 41 450 c 0,6,7
 41 497 41 497 87.5 523 c 128,-1,8
 134 549 134 549 206 549 c 128,-1,9
 278 549 278 549 325.5 517 c 128,-1,10
 373 485 373 485 373 432.5 c 128,-1,11
 373 380 373 380 317.5 336 c 128,-1,12
 262 292 262 292 188 286 c 1,13,14
 404 286 404 286 404 146 c 0,15,16
 404 81 404 81 347 36 c 128,-1,17
 290 -9 290 -9 206.5 -9 c 128,-1,18
 123 -9 123 -9 76.5 18.5 c 128,-1,19
 30 46 30 46 30 93 c 0,20,21
 30 116 30 116 42.5 132.5 c 128,-1,22
 55 149 55 149 74.5 149 c 128,-1,23
 94 149 94 149 106.5 139 c 128,-1,24
 119 129 119 129 119 112 c 1,25,-1
 115 85 l 1,26,27
 115 55 115 55 141 36 c 128,-1,28
 167 17 167 17 211 17 c 128,-1,29
 255 17 255 17 286.5 55.5 c 128,-1,30
 318 94 318 94 318 148.5 c 128,-1,31
 318 203 318 203 274.5 233.5 c 128,-1,32
 231 264 231 264 138 273 c 1,33,-1
 138 296 l 1,34,35
 196 296 196 296 241 337.5 c 128,-1,36
 286 379 286 379 286 437 c 0,37,38
 286 476 286 476 264 500.5 c 128,-1,39
 242 525 242 525 205 525 c 128,-1,40
 168 525 168 525 147.5 507 c 128,-1,41
 127 489 127 489 127 458 c 1,0,-1
EndSplineSet
EndChar

StartChar: four
Encoding: 52 52 23
Width: 441
GlyphClass: 2
Flags: HMW
HStem: 0 22<233 238.5 338.5 344> 138 64<62 249 62 249 13 249 328 395> 524 20G<298 328 328 328>
VStem: 249 79<40 138 202 435 435 435>
LayerCount: 2
Fore
SplineSet
249 138 m 1,0,-1
 13 138 l 1,1,-1
 13 194 l 1,2,3
 27 206 27 206 39 221 c 1,4,-1
 64 249 l 1,5,-1
 266 499 l 1,6,-1
 298 544 l 1,7,-1
 328 544 l 1,8,-1
 328 202 l 1,9,-1
 395 202 l 1,10,-1
 395 138 l 1,11,-1
 328 138 l 1,12,-1
 328 40 l 2,13,14
 328 22 328 22 344 22 c 2,15,-1
 382 23 l 1,16,-1
 382 0 l 1,17,-1
 175 0 l 1,18,-1
 175 23 l 1,19,-1
 233 22 l 2,20,21
 249 22 249 22 249 40 c 2,22,-1
 249 138 l 1,0,-1
249 435 m 1,23,-1
 62 202 l 1,24,-1
 249 202 l 1,25,-1
 249 435 l 1,23,-1
EndSplineSet
EndChar

StartChar: five
Encoding: 53 53 24
Width: 440
GlyphClass: 2
Flags: HMW
HStem: -9 25<183.5 243.5 183.5 255.5> -9 156<75 255.5> 310 33<198.5 229> 472 65<111 288 111 111> 520 20G
VStem: 42 79<55.5 82.5 55.5 110.5> 309 86<122.5 213>
LayerCount: 2
Fore
SplineSet
69.5 30 m 128,-1,1
 42 54 42 54 42 86 c 128,-1,2
 42 118 42 118 55 132.5 c 128,-1,3
 68 147 68 147 87 147 c 0,4,5
 129 147 129 147 129 112 c 0,6,7
 129 102 129 102 125 92 c 128,-1,8
 121 82 121 82 121 77 c 0,9,10
 121 47 121 47 145.5 31.5 c 128,-1,11
 170 16 170 16 203 16 c 0,12,13
 261 16 261 16 285 55 c 128,-1,14
 309 94 309 94 309 165 c 128,-1,15
 309 236 309 236 278.5 273 c 128,-1,16
 248 310 248 310 189 310 c 0,17,18
 159 310 159 310 129 295.5 c 128,-1,19
 99 281 99 281 86 260 c 0,20,21
 85 259 85 259 84 259 c 2,22,-1
 70 259 l 2,23,24
 66 259 66 259 65 260 c 1,25,-1
 84 537 l 1,26,-1
 308 537 l 2,27,28
 344 537 344 537 377 540 c 1,29,30
 350 484 350 484 341 414 c 1,31,-1
 315 414 l 1,32,33
 317 428 317 428 317 441 c 128,-1,34
 317 454 317 454 309.5 463 c 128,-1,35
 302 472 302 472 288 472 c 2,36,-1
 111 472 l 1,37,-1
 96 301 l 1,38,39
 150 343 150 343 225 343 c 128,-1,40
 300 343 300 343 347.5 298 c 128,-1,41
 395 253 395 253 395 170.5 c 128,-1,42
 395 88 395 88 340 39.5 c 128,-1,43
 285 -9 285 -9 203 -9 c 0,44,45
 163 -9 163 -9 130 -1.5 c 128,-1,0
 97 6 97 6 69.5 30 c 128,-1,1
EndSplineSet
EndChar

StartChar: six
Encoding: 54 54 25
Width: 430
GlyphClass: 2
Flags: HMW
HStem: -10 21<187 250.5 187 269> 338 22<199.5 255.5> 415 134<165 333.5> 522 27<201 253>
VStem: 42 87 285 81<477 489.5 446.5 490.5> 304 86<121.5 208.5>
LayerCount: 2
Fore
SplineSet
280 449 m 1,0,-1
 285 481 l 1,1,2
 285 497 285 497 272 509.5 c 128,-1,3
 259 522 259 522 237 522 c 0,4,5
 186 522 186 522 159.5 464.5 c 128,-1,6
 133 407 133 407 129 314 c 1,7,8
 160 360 160 360 219 360 c 0,9,10
 300 360 300 360 345 311.5 c 128,-1,11
 390 263 390 263 390 179 c 128,-1,12
 390 95 390 95 342 42.5 c 128,-1,13
 294 -10 294 -10 219 -10 c 0,14,15
 116.338028169 -10 116.338028169 -10 77 63.5 c 0,16,17
 42 128.894736842 42 128.894736842 42 235 c 0,18,19
 42 549 42 549 249 549 c 0,20,21
 306 549 306 549 336 526.5 c 128,-1,22
 366 504 366 504 366 462 c 0,23,24
 366 440 366 440 353.5 427.5 c 128,-1,25
 341 415 341 415 321 415 c 0,26,27
 280 415 280 415 280 449 c 1,0,-1
150.5 59 m 128,-1,29
 174 11 174 11 219.5 11 c 128,-1,30
 265 11 265 11 284.5 51 c 128,-1,31
 304 91 304 91 304 175 c 0,32,33
 304 338 304 338 219 338 c 0,34,35
 149.787234043 338 149.787234043 338 135 268.5 c 0,36,37
 127 230.9 127 230.9 127 168.95 c 128,-1,28
 127 107 127 107 150.5 59 c 128,-1,29
EndSplineSet
EndChar

StartChar: seven
Encoding: 55 55 26
Width: 377
GlyphClass: 2
Flags: HMW
HStem: 0 21G<135 215 135 135> 472 65<116.5 394 146 314> 520 20G
VStem: 127 85<60.5 133>
LayerCount: 2
Fore
SplineSet
54 388 m 1,0,-1
 23 388 l 1,1,2
 43 500 43 500 43 540 c 1,3,4
 54 537 54 537 146 537 c 2,5,-1
 394 537 l 1,6,7
 313 452 313 452 262.5 318.5 c 128,-1,8
 212 185 212 185 212 65 c 0,9,10
 212 45 212 45 213 34 c 2,11,-1
 215 0 l 1,12,-1
 135 0 l 1,13,14
 127 37 127 37 127 73 c 0,15,16
 127 255 127 255 314 472 c 1,17,-1
 146 472 l 2,18,19
 102 472 102 472 80.5 453 c 128,-1,20
 59 434 59 434 54 388 c 1,0,-1
EndSplineSet
EndChar

StartChar: eight
Encoding: 56 56 27
Width: 440
GlyphClass: 2
Flags: HMW
HStem: -9 25<180.5 244 180.5 262> 524 25<207 262.5>
VStem: 37 67<95.5 148.5 95.5 154.5> 57 86<419.5 454.5> 314 74 314 88<94 129.5>
LayerCount: 2
Fore
SplineSet
37 126 m 0,0,1
 37 168 37 168 70.5 208 c 128,-1,2
 104 248 104 248 158 275 c 1,3,4
 107 306 107 306 82 338 c 128,-1,5
 57 370 57 370 57 410 c 0,6,7
 57 475 57 475 106 512 c 128,-1,8
 155 549 155 549 227.5 549 c 128,-1,9
 300 549 300 549 344 518.5 c 128,-1,10
 388 488 388 488 388 429 c 0,11,12
 388 393 388 393 350 348.5 c 128,-1,13
 312 304 312 304 274 297 c 1,14,15
 402 233 402 233 402 139 c 0,16,17
 402 74 402 74 345.5 32.5 c 128,-1,18
 289 -9 289 -9 216 -9 c 0,19,20
 37 -9 37 -9 37 126 c 0,0,1
127.5 200.5 m 128,-1,22
 104 160 104 160 104 119.5 c 128,-1,23
 104 79 104 79 134 47.5 c 128,-1,24
 164 16 164 16 211.5 16 c 128,-1,25
 259 16 259 16 286.5 40.5 c 128,-1,26
 314 65 314 65 314 106 c 0,27,28
 314 181 314 181 229 231 c 1,29,-1
 182 260 l 1,30,21
 151 241 151 241 127.5 200.5 c 128,-1,22
168 500.5 m 128,-1,32
 143 477 143 477 143 442.5 c 128,-1,33
 143 408 143 408 171 373.5 c 128,-1,34
 199 339 199 339 253 311 c 1,35,36
 323 351 323 351 323 431 c 0,37,38
 323 476 323 476 300 500 c 128,-1,39
 277 524 277 524 235 524 c 128,-1,31
 193 524 193 524 168 500.5 c 128,-1,32
EndSplineSet
EndChar

StartChar: nine
Encoding: 57 57 28
Width: 430
GlyphClass: 2
Flags: HMW
HStem: -10 27<177 229 177 265> -10 134<96.5 265> 179 22<174.5 230.5> 528 21<179.5 243>
VStem: 40 86<330.5 417.5> 64 81<49.5 62 48.5 92.5> 303 85<321.5 370.5 226.5 405.5>
LayerCount: 2
Fore
SplineSet
150 90 m 1,0,-1
 145 58 l 1,1,2
 145 42 145 42 158 29.5 c 128,-1,3
 171 17 171 17 193 17 c 0,4,5
 244 17 244 17 270.5 74.5 c 128,-1,6
 297 132 297 132 301 225 c 1,7,8
 270 179 270 179 211 179 c 0,9,10
 130 179 130 179 85 227.5 c 128,-1,11
 40 276 40 276 40 360 c 128,-1,12
 40 444 40 444 88 496.5 c 128,-1,13
 136 549 136 549 211 549 c 0,14,15
 313.661971831 549 313.661971831 549 353 475.5 c 0,16,17
 388 410.105263158 388 410.105263158 388 304 c 0,18,19
 388 -10 388 -10 181 -10 c 0,20,21
 124 -10 124 -10 94 12.5 c 128,-1,22
 64 35 64 35 64 77 c 0,23,24
 64 99 64 99 76.5 111.5 c 128,-1,25
 89 124 89 124 109 124 c 0,26,27
 150 124 150 124 150 90 c 1,0,-1
126 364 m 0,28,29
 126 201 126 201 211 201 c 0,30,31
 280.212765957 201 280.212765957 201 295 270.5 c 0,32,33
 303 308.1 303 308.1 303 370.05 c 128,-1,34
 303 432 303 432 279.5 480 c 128,-1,35
 256 528 256 528 210.5 528 c 128,-1,36
 165 528 165 528 145.5 488 c 128,-1,37
 126 448 126 448 126 364 c 0,28,29
EndSplineSet
EndChar

StartChar: colon
Encoding: 58 58 29
Width: 250
GlyphClass: 2
Flags: HMW
HStem: -10 115<106.5 143.5> 288 115<106.5 143.5>
VStem: 60 130<29.5 64.5 327.5 362.5>
LayerCount: 2
Fore
SplineSet
60 47 m 128,-1,1
 60 73 60 73 78.5 89 c 128,-1,2
 97 105 97 105 125 105 c 128,-1,3
 153 105 153 105 171.5 89 c 128,-1,4
 190 73 190 73 190 47 c 128,-1,5
 190 21 190 21 171.5 5.5 c 128,-1,6
 153 -10 153 -10 125 -10 c 128,-1,7
 97 -10 97 -10 78.5 5.5 c 128,-1,0
 60 21 60 21 60 47 c 128,-1,1
60 345 m 128,-1,9
 60 371 60 371 78.5 387 c 128,-1,10
 97 403 97 403 125 403 c 128,-1,11
 153 403 153 403 171.5 387 c 128,-1,12
 190 371 190 371 190 345 c 128,-1,13
 190 319 190 319 171.5 303.5 c 128,-1,14
 153 288 153 288 125 288 c 128,-1,15
 97 288 97 288 78.5 303.5 c 128,-1,8
 60 319 60 319 60 345 c 128,-1,9
EndSplineSet
EndChar

StartChar: semicolon
Encoding: 59 59 30
Width: 250
GlyphClass: 2
Flags: HMW
HStem: -160 21G<91 91> -5 96<91.5 154.5> 288 115<95.5 132.5>
VStem: 49 130<327.5 362.5> 73 128<29.5 34.5 -29 52> 141 60<-29 -22.5>
LayerCount: 2
Fore
SplineSet
49 345 m 128,-1,1
 49 371 49 371 67.5 387 c 128,-1,2
 86 403 86 403 114 403 c 128,-1,3
 142 403 142 403 160.5 387 c 128,-1,4
 179 371 179 371 179 345 c 128,-1,5
 179 319 179 319 160.5 303.5 c 128,-1,6
 142 288 142 288 114 288 c 128,-1,7
 86 288 86 288 67.5 303.5 c 128,-1,0
 49 319 49 319 49 345 c 128,-1,1
91 -160 m 1,8,-1
 72 -149 l 1,9,10
 98 -125 98 -125 119.5 -91 c 128,-1,11
 141 -57 141 -57 141 -34 c 0,12,13
 141 -5 141 -5 105 -5 c 0,14,15
 73 -5 73 -5 73 38 c 0,16,17
 73 59 73 59 90.5 75 c 128,-1,18
 108 91 108 91 131 91 c 0,19,20
 201 91 201 91 201 8 c 0,21,22
 201 -42 201 -42 167 -86.5 c 128,-1,23
 133 -131 133 -131 91 -160 c 1,8,-1
EndSplineSet
EndChar

StartChar: less
Encoding: 60 60 31
Width: 460
GlyphClass: 2
Flags: HMW
HStem: -5 21G<406 406> 422 20G<406 406>
LayerCount: 2
Fore
SplineSet
406 -5 m 1,0,-1
 54 206 l 1,1,-1
 54 230 l 1,2,-1
 406 442 l 1,3,-1
 406 394 l 1,4,-1
 149 239 l 1,5,-1
 106 219 l 1,6,-1
 149 198 l 1,7,-1
 406 44 l 1,8,-1
 406 -5 l 1,0,-1
EndSplineSet
EndChar

StartChar: equal
Encoding: 61 61 32
Width: 460
GlyphClass: 2
Flags: HMW
HStem: 103 43<35 425 35 425> 302 43<35 425 35 425>
LayerCount: 2
Fore
SplineSet
425 103 m 1,0,-1
 35 103 l 1,1,-1
 35 146 l 1,2,-1
 425 146 l 1,3,-1
 425 103 l 1,0,-1
425 302 m 1,4,-1
 35 302 l 1,5,-1
 35 345 l 1,6,-1
 425 345 l 1,7,-1
 425 302 l 1,4,-1
EndSplineSet
EndChar

StartChar: greater
Encoding: 62 62 33
Width: 460
GlyphClass: 2
Flags: HMW
HStem: -5 21G<54 54> 422 20G<54 54>
LayerCount: 2
Fore
SplineSet
406 207 m 1,0,-1
 54 -5 l 1,1,-1
 54 43 l 1,2,-1
 310 198 l 1,3,-1
 353 218 l 1,4,-1
 310 239 l 1,5,-1
 54 393 l 1,6,-1
 54 442 l 1,7,-1
 406 231 l 1,8,-1
 406 207 l 1,0,-1
EndSplineSet
EndChar

StartChar: question
Encoding: 63 63 34
Width: 400
GlyphClass: 2
Flags: HMW
HStem: -10 115<179 209 174.5 211> 567 103<72.5 258> 647 23<177.5 233>
VStem: 36 77<595.5 610.5 587.5 620.5> 122 73<301.5 357 298.5 364.5> 122 136 287 90<528 588.5 502 589>
LayerCount: 2
Fore
SplineSet
36 606 m 0,0,1
 36 628 36 628 87 649 c 128,-1,2
 138 670 138 670 212.5 670 c 128,-1,3
 287 670 287 670 332 639 c 128,-1,4
 377 608 377 608 377 550 c 0,5,6
 377 518 377 518 348.5 484.5 c 128,-1,7
 320 451 320 451 286 427.5 c 128,-1,8
 252 404 252 404 223.5 373.5 c 128,-1,9
 195 343 195 343 195 316 c 0,10,11
 195 265 195 265 242 238 c 1,12,-1
 230 219 l 1,13,14
 199 226 199 226 160.5 259.5 c 128,-1,15
 122 293 122 293 122 322 c 128,-1,16
 122 351 122 351 148 386 c 128,-1,17
 174 421 174 421 204.5 448.5 c 0,18,19
 287 522.885245902 287 522.885245902 287 562.442622951 c 128,-1,20
 287 602 287 602 266.5 624.5 c 128,-1,21
 246 647 246 647 209 647 c 0,22,23
 113 647 113 647 113 593 c 0,24,25
 113 585 113 585 104.5 576 c 128,-1,26
 96 567 96 567 81 567 c 128,-1,27
 66 567 66 567 51 578.5 c 128,-1,28
 36 590 36 590 36 606 c 0,0,1
148.5 4.5 m 128,-1,30
 128 19 128 19 128 44.5 c 128,-1,31
 128 70 128 70 147 87.5 c 128,-1,32
 166 105 166 105 193 105 c 128,-1,33
 220 105 220 105 239 90 c 128,-1,34
 258 75 258 75 258 48.5 c 128,-1,35
 258 22 258 22 239 6 c 128,-1,36
 220 -10 220 -10 194.5 -10 c 128,-1,29
 169 -10 169 -10 148.5 4.5 c 128,-1,30
EndSplineSet
EndChar

StartChar: at
Encoding: 64 64 35
Width: 741
GlyphClass: 2
Flags: HMW
HStem: -145 29<291.5 440.5> -10 55<294.5 295.5> -10 85<449.5 554> 400 30<408.5 453.5> 567 29<352.5 495>
VStem: 26 56<87 202.5 87 285.5> 172 89<97 141.5 97 182> 435 93<20.5 110> 484 44 683 31<280 376.5>
LayerCount: 2
Fore
SplineSet
26 178 m 0,0,1
 26 285 26 285 76.5 381 c 128,-1,2
 127 477 127 477 219 536.5 c 128,-1,3
 311 596 311 596 428.5 596 c 0,4,5
 546 596 546 596 630 512.5 c 128,-1,6
 714 429 714 429 714 306 c 0,7,8
 714 231 714 231 673.5 159.5 c 128,-1,9
 633 88 633 88 566 39 c 0,10,11
 499 -10 499 -10 459 -10 c 0,12,13
 435 -10 435 -10 435 37.5 c 0,14,15
 435 85 435 85 459 187 c 1,16,17
 402 79 402 79 357 34.5 c 128,-1,18
 312 -10 312 -10 266 -10 c 0,19,20
 220 -10 220 -10 196 22.5 c 128,-1,21
 172 55 172 55 172 118.5 c 0,22,23
 172 182 172 182 208.5 255.5 c 128,-1,24
 245 329 245 329 308 379.5 c 128,-1,25
 371 430 371 430 439 430 c 0,26,27
 477 430 477 430 496 391 c 1,28,-1
 501 411 l 1,29,-1
 593 428 l 1,30,-1
 570 330 l 1,31,32
 528 139 528 139 528 92 c 0,33,34
 528 75 528 75 541 75 c 0,35,36
 559 75 559 75 590.5 104.5 c 128,-1,37
 622 134 622 134 643 165 c 1,38,39
 683 229 683 229 683 305 c 0,40,41
 683 413 683 413 607 490 c 128,-1,42
 531 567 531 567 424.5 567 c 0,43,44
 318 567 318 567 239 510 c 128,-1,45
 160 453 160 453 121 357 c 0,46,47
 82 261 82 261 82 173 c 0,48,49
 82 43 82 43 164 -36.5 c 128,-1,50
 246 -116 246 -116 385 -116 c 0,51,52
 474 -116 474 -116 542.5 -86.5 c 128,-1,53
 611 -57 611 -57 676 9 c 1,54,-1
 694 -13 l 1,55,56
 625 -84 625 -84 550 -114.5 c 128,-1,57
 475 -145 475 -145 376 -145 c 0,58,59
 216 -145 216 -145 121 -58 c 128,-1,60
 26 29 26 29 26 178 c 0,0,1
261 123 m 0,61,62
 261 45 261 45 311 45 c 0,63,64
 331 45 331 45 372.5 95 c 128,-1,65
 414 145 414 145 449 219 c 128,-1,66
 484 293 484 293 484 348 c 0,67,68
 484 369 484 369 471.5 384.5 c 128,-1,69
 459 400 459 400 441 400 c 0,70,71
 393 400 393 400 352 357 c 128,-1,72
 311 314 311 314 286 245.5 c 0,73,74
 261 177 261 177 261 123 c 0,61,62
EndSplineSet
EndChar

StartChar: A
Encoding: 65 65 36
Width: 601
GlyphClass: 2
Flags: HMW
HStem: 0 27<6 10 10 16.5 6 153 -20 10 583 588> 208 28<154 366 154 376 144 366> 587 20G<282 308 308 308>
LayerCount: 2
Fore
SplineSet
409.514177694 26.8260869565 m 0,0,1
 435.5625 26.8260869565 435.5625 26.8260869565 435.5625 53.9453125 c 0,2,3
 435.5625 71.3125 435.5625 71.3125 425 90 c 1,4,-1
 376 208 l 1,5,-1
 144 208 l 1,6,-1
 97 96 l 2,7,8
 75.5714285714 42.4285714286 75.5714285714 42.4285714286 87.5 30.5 c 0,9,10
 93 25 93 25 105 26 c 2,11,-1
 153 29 l 1,12,-1
 153 0 l 1,13,-1
 -20 0 l 1,14,-1
 -20 29 l 1,15,-1
 6 27 l 1,16,-1
 10 27 l 2,17,18
 30 27 30 27 44 47.5 c 128,-1,19
 58 68 58 68 73 104 c 2,20,-1
 282 607 l 1,21,-1
 308 607 l 1,22,-1
 519 102 l 2,23,24
 533 66 533 66 547.5 46.5 c 128,-1,25
 562 27 562 27 583 27 c 2,26,-1
 588 27 l 1,27,-1
 621 29 l 1,28,-1
 621 0 l 1,29,-1
 356 0 l 1,30,-1
 356 29 l 1,31,-1
 405 27 l 2,32,33
 407.347826087 26.8260869565 407.347826087 26.8260869565 409.514177694 26.8260869565 c 0,0,1
259 488 m 1,34,-1
 154 236 l 1,35,-1
 366 236 l 1,36,-1
 259 488 l 1,34,-1
EndSplineSet
EndChar

StartChar: B
Encoding: 66 66 37
Width: 573
GlyphClass: 2
Flags: HMW
HStem: 0 28<225 295 295 312> 568 29
VStem: 118 93<49 299 327 549 549 553.5> 405 95<418.5 489> 436 64 436 97<120 206.5 108 208>
LayerCount: 2
Fore
SplineSet
312 0 m 2,0,-1
 50 0 l 1,1,-1
 50 29 l 1,2,-1
 100 27 l 2,3,4
 118 27 118 27 118 49 c 2,5,-1
 118 549 l 2,6,7
 118 556 118 556 113.5 562.5 c 128,-1,8
 109 569 109 569 101 569 c 2,9,-1
 50 567 l 1,10,-1
 50 597 l 1,11,-1
 327 597 l 2,12,13
 500 597 500 597 500 454 c 0,14,15
 500 401 500 401 462.5 364.5 c 128,-1,16
 425 328 425 328 362 317 c 1,17,18
 434 317 434 317 483.5 272.5 c 128,-1,19
 533 228 533 228 533 162 c 0,20,21
 533 0 533 0 312 0 c 2,0,-1
211 299 m 1,22,-1
 211 41 l 2,23,24
 211 28 211 28 225 28 c 2,25,-1
 295 28 l 2,26,27
 359 28 359 28 397.5 64 c 128,-1,28
 436 100 436 100 436 162 c 0,29,30
 436 299 436 299 314 299 c 2,31,-1
 211 299 l 1,22,-1
211 557 m 1,32,-1
 211 327 l 1,33,-1
 287 327 l 2,34,35
 405 327 405 327 405 453 c 0,36,37
 405 507 405 507 372.5 538 c 128,-1,38
 340 569 340 569 281 569 c 2,39,-1
 223 569 l 2,40,41
 212.5 569 212.5 569 211 557 c 1,32,-1
EndSplineSet
EndChar

StartChar: C
Encoding: 67 67 38
Width: 607
GlyphClass: 2
Flags: HMW
HStem: -10 27<285 350> 582 25<280 373 251 385>
VStem: 45 102<213 381 213 393.5>
LayerCount: 2
Fore
SplineSet
124 71.5 m 128,-1,1
 45 153 45 153 45 297.5 c 128,-1,2
 45 442 45 442 124.5 524.5 c 128,-1,3
 204 607 204 607 345 607 c 0,4,5
 388 607 388 607 413.5 601.5 c 128,-1,6
 439 596 439 596 506 570 c 0,7,8
 524 564 524 564 553 564 c 1,9,10
 549 527 549 527 549.5 502.5 c 128,-1,11
 550 478 550 478 550 468 c 2,12,-1
 550 454 l 2,13,14
 550 436 550 436 553 433 c 1,15,-1
 529 433 l 1,16,17
 515 495 515 495 461 538.5 c 128,-1,18
 407 582 407 582 340 582 c 0,19,20
 251 582 251 582 199 503.5 c 128,-1,21
 147 425 147 425 147 298 c 128,-1,22
 147 171 147 171 201.5 94 c 128,-1,23
 256 17 256 17 345 17 c 0,24,25
 414 17 414 17 467 59.5 c 128,-1,26
 520 102 520 102 534 167 c 1,27,-1
 562 167 l 1,28,-1
 560 146 l 1,29,-1
 558 122 l 2,30,31
 556 90 556 90 556 71.5 c 128,-1,32
 556 53 556 53 559 35 c 1,33,-1
 553 35 l 2,34,35
 529 35 529 35 484 20 c 2,36,-1
 447 8 l 1,37,-1
 410 -2 l 1,38,39
 367 -10 367 -10 340 -10 c 0,40,0
 203 -10 203 -10 124 71.5 c 128,-1,1
EndSplineSet
EndChar

StartChar: D
Encoding: 68 68 39
Width: 623
GlyphClass: 2
Flags: HMW
HStem: 0 28<213 258 258 287> 569 28<89 95.5 209 213 213 258>
VStem: 108 93<49 548 548 553.5> 486 102<201.5 396>
LayerCount: 2
Fore
SplineSet
287 0 m 2,0,-1
 50 0 l 1,1,-1
 50 29 l 1,2,-1
 93 27 l 2,3,4
 108 27 108 27 108 49 c 2,5,-1
 108 548 l 2,6,7
 108 569 108 569 89 569 c 2,8,-1
 50 567 l 1,9,-1
 50 597 l 1,10,-1
 275 597 l 2,11,12
 435 597 435 597 511.5 527.5 c 128,-1,13
 588 458 588 458 588 299 c 0,14,15
 588 0 588 0 287 0 c 2,0,-1
201 556 m 2,16,-1
 201 41 l 2,17,18
 201 28 201 28 213 28 c 2,19,-1
 258 28 l 2,20,21
 382 28 382 28 434 89.5 c 128,-1,22
 486 151 486 151 486 298 c 128,-1,23
 486 445 486 445 434 507 c 128,-1,24
 382 569 382 569 258 569 c 2,25,-1
 213 569 l 2,26,27
 201 569 201 569 201 556 c 2,16,-1
EndSplineSet
EndChar

StartChar: E
Encoding: 69 69 40
Width: 563
GlyphClass: 2
Flags: HMW
HStem: -3 21G<519 519> 0 28<213 353 353 398.5> 297 28<201 295 201 295> 406 20G<371 398 398 398> 569 28<88 88 209 213 213 320> 578 20G<489 489>
VStem: 108 93<49 297 325 548 548 554> 371 27<195 225 394 426> 462 27<443 487.5> 492 27<130.5 179>
LayerCount: 2
Fore
SplineSet
431 0 m 2,0,-1
 50 0 l 1,1,-1
 50 30 l 1,2,-1
 90 27 l 1,3,4
 108 27 108 27 108 49 c 2,5,-1
 108 548 l 2,6,7
 108 557 108 557 102.5 563.5 c 128,-1,8
 97 570 97 570 88 569 c 2,9,-1
 50 567 l 1,10,-1
 50 597 l 1,11,-1
 472 597 l 2,12,13
 486 597 486 597 489 598 c 1,14,-1
 489 443 l 1,15,-1
 462 443 l 1,16,17
 462 510 462 510 428.5 539.5 c 128,-1,18
 395 569 395 569 320 569 c 2,19,-1
 213 569 l 2,20,21
 201 569 201 569 201 555 c 2,22,-1
 201 325 l 1,23,-1
 295 325 l 2,24,25
 329 325 329 325 350 352 c 128,-1,26
 371 379 371 379 371 426 c 1,27,-1
 398 426 l 1,28,-1
 398 195 l 1,29,-1
 371 195 l 1,30,31
 371 239 371 239 348.5 268 c 128,-1,32
 326 297 326 297 295 297 c 2,33,-1
 201 297 l 1,34,-1
 201 41 l 2,35,36
 201 28 201 28 213 28 c 2,37,-1
 353 28 l 2,38,39
 421 28 421 28 456.5 67 c 128,-1,40
 492 106 492 106 492 179 c 1,41,-1
 519 179 l 1,42,-1
 519 -3 l 1,43,44
 496 0 496 0 431 0 c 2,0,-1
EndSplineSet
EndChar

StartChar: F
Encoding: 70 70 41
Width: 529
GlyphClass: 2
Flags: HMW
HStem: 0 28 287 28<201 276 201 276> 569 28<89 91 89 89 209 213 213 330> 578 20G<499 499>
VStem: 108 93<49 287 315 548 548 555> 355 27<187 217.5 385 417> 472 27<443 487>
LayerCount: 2
Fore
SplineSet
272 0 m 1,0,-1
 50 0 l 1,1,-1
 50 30 l 1,2,-1
 90 27 l 1,3,4
 108 27 108 27 108 49 c 2,5,-1
 108 548 l 2,6,7
 108 569 108 569 91 569 c 2,8,-1
 89 569 l 1,9,-1
 50 567 l 1,10,-1
 50 597 l 1,11,-1
 484 597 l 2,12,13
 496 597 496 597 499 598 c 1,14,-1
 499 443 l 1,15,-1
 472 443 l 1,16,17
 472 509 472 509 438 539 c 128,-1,18
 404 569 404 569 330 569 c 2,19,-1
 213 569 l 2,20,21
 201 569 201 569 201 556 c 2,22,-1
 201 315 l 1,23,-1
 276 315 l 2,24,25
 312 315 312 315 333.5 342.5 c 128,-1,26
 355 370 355 370 355 417 c 1,27,-1
 382 417 l 1,28,-1
 382 187 l 1,29,-1
 355 187 l 1,30,31
 355 232 355 232 333 259.5 c 128,-1,32
 311 287 311 287 276 287 c 2,33,-1
 201 287 l 1,34,-1
 201 48 l 2,35,36
 201 27 201 27 220 27 c 1,37,-1
 272 30 l 1,38,-1
 272 0 l 1,0,-1
EndSplineSet
EndChar

StartChar: G
Encoding: 71 71 42
Width: 646
GlyphClass: 2
Flags: HMW
HStem: -10 27<283 363.5> 244 28 582 25<284.5 372.5 249.5 380.5>
VStem: 45 102<197.5 392.5 197.5 399> 473 93<63 223 223 224 35 230.5>
LayerCount: 2
Fore
SplineSet
122.5 67 m 128,-1,1
 45 144 45 144 45 296.5 c 128,-1,2
 45 449 45 449 122.5 528 c 128,-1,3
 200 607 200 607 345 607 c 0,4,5
 424 607 424 607 506 570 c 0,6,7
 520 564 520 564 553 564 c 1,8,9
 549 544 549 544 549 495 c 2,10,-1
 549 474 l 2,11,12
 549 465 549 465 550 461 c 1,13,-1
 550 449 l 1,14,-1
 553 433 l 1,15,-1
 513 433 l 1,16,17
 514 438 514 438 514 458.5 c 128,-1,18
 514 479 514 479 504 500 c 0,19,20
 469 582 469 582 340 582 c 0,21,22
 253 582 253 582 200 509 c 128,-1,23
 147 436 147 436 147 295 c 0,24,25
 147 17 147 17 345 17 c 0,26,27
 390 17 390 17 418 26.5 c 128,-1,28
 446 36 446 36 473 63 c 1,29,-1
 473 223 l 2,30,31
 473 245 473 245 454 245 c 2,32,-1
 395 243 l 1,33,-1
 395 272 l 1,34,-1
 626 272 l 1,35,-1
 626 243 l 1,36,-1
 585 245 l 2,37,38
 566 245 566 245 566 224 c 2,39,-1
 566 35 l 1,40,41
 561 36 561 36 552 36 c 2,42,-1
 532 34 l 1,43,44
 517 31 517 31 501 26 c 2,45,-1
 448 7 l 2,46,47
 398 -10 398 -10 340 -10 c 0,48,0
 200 -10 200 -10 122.5 67 c 128,-1,1
EndSplineSet
EndChar

StartChar: H
Encoding: 72 72 43
Width: 696
GlyphClass: 2
Flags: HMW
HStem: 0 28 294 28<201 495 201 495> 568 29
VStem: 108 93<49 294 322 548> 495 93<49 294 294 294 322 548>
LayerCount: 2
Fore
SplineSet
495 548 m 2,0,1
 495 570.9 495 570.9 476 569 c 1,2,-1
 427 567 l 1,3,-1
 427 597 l 1,4,-1
 646 597 l 1,5,-1
 646 567 l 1,6,-1
 607 569 l 2,7,8
 598 570 598 570 593 564 c 128,-1,9
 588 558 588 558 588 548 c 2,10,-1
 588 49 l 2,11,12
 588 27 588 27 607 27 c 2,13,-1
 646 29 l 1,14,-1
 646 0 l 1,15,-1
 427 0 l 1,16,-1
 427 29 l 1,17,-1
 476 27 l 2,18,19
 495 27 495 27 495 49 c 2,20,-1
 495 294 l 1,21,-1
 201 294 l 1,22,-1
 201 49 l 2,23,24
 201 27 201 27 221 27 c 2,25,-1
 270 29 l 1,26,-1
 270 0 l 1,27,-1
 50 0 l 1,28,-1
 50 29 l 1,29,-1
 89 27 l 2,30,31
 108 27 108 27 108 49 c 2,32,-1
 108 548 l 2,33,34
 108 570.9 108 570.9 89 569 c 2,35,-1
 50 567 l 1,36,-1
 50 597 l 1,37,-1
 270 597 l 1,38,-1
 270 567 l 1,39,-1
 221 569 l 2,40,41
 212 570 212 570 206.5 563.5 c 128,-1,42
 201 557 201 557 201 548 c 2,43,-1
 201 322 l 1,44,-1
 495 322 l 1,45,-1
 495 548 l 2,0,1
EndSplineSet
EndChar

StartChar: I
Encoding: 73 73 44
Width: 310
GlyphClass: 2
Flags: HMW
HStem: 0 28 568 29
VStem: 108 93<49 548>
LayerCount: 2
Fore
SplineSet
260 0 m 1,0,-1
 50 0 l 1,1,-1
 50 29 l 1,2,-1
 89 27 l 2,3,4
 108 27 108 27 108 49 c 2,5,-1
 108 548 l 2,6,7
 108 557 108 557 103 563.5 c 128,-1,8
 98 570 98 570 89 569 c 2,9,-1
 50 567 l 1,10,-1
 50 597 l 1,11,-1
 260 597 l 1,12,-1
 260 567 l 1,13,-1
 221 569 l 2,14,15
 212 570 212 570 206.5 563.5 c 128,-1,16
 201 557 201 557 201 548 c 2,17,-1
 201 49 l 2,18,19
 201 27 201 27 221 27 c 1,20,-1
 260 29 l 1,21,-1
 260 0 l 1,0,-1
EndSplineSet
EndChar

StartChar: J
Encoding: 74 74 45
Width: 451
GlyphClass: 2
Flags: HMW
HStem: -10 26<153 197 123.5 235.5> 568 29
VStem: 24 36<142.5 172 142.5 172 142.5 172> 255 93<179 548 548 549>
LayerCount: 2
Fore
SplineSet
24 -1 m 1,0,-1
 24 172 l 1,1,-1
 60 172 l 1,2,3
 60 89.568627451 60 89.568627451 101.5 44 c 0,4,5
 127 16 127 16 170 16 c 128,-1,6
 213 16 213 16 234 53 c 128,-1,7
 255 90 255 90 255 179 c 2,8,-1
 255 548 l 2,9,10
 255 557 255 557 249.5 563.5 c 128,-1,11
 244 570 244 570 236 569 c 2,12,-1
 167 567 l 1,13,-1
 167 597 l 1,14,-1
 406 597 l 1,15,-1
 406 567 l 1,16,-1
 368 569 l 2,17,18
 359 570 359 570 353.5 564 c 128,-1,19
 348 558 348 558 348 549 c 2,20,-1
 348 179 l 2,21,22
 348 -10 348 -10 181 -10 c 0,23,24
 150 -10 150 -10 110 -2.5 c 128,-1,25
 70 5 70 5 50 5 c 128,-1,26
 30 5 30 5 24 -1 c 1,0,-1
EndSplineSet
EndChar

StartChar: K
Encoding: 75 75 46
Width: 617
GlyphClass: 2
Flags: HMW
HStem: 0 28 568 29
VStem: 108 93<49 234 278 547>
LayerCount: 2
Fore
SplineSet
270 0 m 1,0,-1
 50 0 l 1,1,-1
 50 29 l 1,2,-1
 89 27 l 2,3,4
 108 27 108 27 108 49 c 2,5,-1
 108 548 l 2,6,7
 108 558 108 558 103 564 c 128,-1,8
 98 570 98 570 89 569 c 2,9,-1
 50 567 l 1,10,-1
 50 597 l 1,11,-1
 270 597 l 1,12,-1
 270 567 l 1,13,-1
 221 569 l 2,14,15
 201 569 201 569 201 547 c 2,16,-1
 201 278 l 1,17,-1
 416 533 l 1,18,-1
 427 548 l 2,19,20
 433 555.5 433 555.5 433 560 c 0,21,22
 433 569 433 569 423 569 c 2,23,-1
 381 567 l 1,24,-1
 381 597 l 1,25,-1
 559 597 l 1,26,-1
 559 567 l 1,27,-1
 525 569 l 2,28,29
 524.032258065 569.032258065 524.032258065 569.032258065 523.066597294 569.032258065 c 0,30,31
 494.096774194 569.032258065 494.096774194 569.032258065 467 540 c 2,32,-1
 313 367 l 1,33,-1
 553 41 l 2,34,35
 564 27 564 27 577 27 c 2,36,-1
 580 27 l 1,37,-1
 611 30 l 1,38,-1
 611 0 l 1,39,-1
 374 0 l 1,40,-1
 374 30 l 1,41,-1
 425 27 l 2,42,43
 455.531914894 24.8191489362 455.531914894 24.8191489362 440 52 c 1,44,-1
 257 300 l 1,45,-1
 201 234 l 1,46,-1
 201 49 l 2,47,48
 201 27 201 27 221 27 c 2,49,-1
 270 29 l 1,50,-1
 270 0 l 1,0,-1
EndSplineSet
EndChar

StartChar: L
Encoding: 76 76 47
Width: 514
GlyphClass: 2
Flags: HMW
HStem: -3 21G<492 492> 0 28<213 326 326 368> 568 29
VStem: 108 93<49 548> 466 26<124.5 171>
LayerCount: 2
Fore
SplineSet
368 0 m 2,0,-1
 50 0 l 1,1,-1
 50 30 l 1,2,-1
 93 27 l 1,3,4
 108 27 108 27 108 49 c 2,5,-1
 108 548 l 2,6,7
 108 557 108 557 102.5 563.5 c 128,-1,8
 97 570 97 570 89 569 c 2,9,-1
 50 567 l 1,10,-1
 50 597 l 1,11,-1
 270 597 l 1,12,-1
 270 567 l 1,13,-1
 221 569 l 2,14,15
 212 570 212 570 206.5 563.5 c 128,-1,16
 201 557 201 557 201 548 c 2,17,-1
 201 41 l 2,18,19
 201 28 201 28 213 28 c 2,20,-1
 326 28 l 2,21,22
 395 28 395 28 430.5 64.5 c 128,-1,23
 466 101 466 101 466 171 c 1,24,-1
 492 171 l 1,25,-1
 492 -3 l 1,26,27
 474 0 474 0 368 0 c 2,0,-1
EndSplineSet
EndChar

StartChar: M
Encoding: 77 77 48
Width: 858
GlyphClass: 2
Flags: HMW
HStem: -10 21G<395 419 395 395> 0 28 568 29
VStem: 104 34<49 526> 657 92<49 520 520 520>
LayerCount: 2
Fore
SplineSet
206 0 m 1,0,-1
 45 0 l 1,1,-1
 45 29 l 1,2,-1
 84 27 l 1,3,4
 104 27 104 27 104 49 c 2,5,-1
 104 563 l 2,6,7
 104 570 104 570 94 569 c 2,8,-1
 52 567 l 1,9,-1
 52 597 l 1,10,-1
 206 597 l 1,11,-1
 439 112 l 1,12,-1
 657 597 l 1,13,-1
 803 597 l 1,14,-1
 803 567 l 1,15,-1
 769 569 l 2,16,17
 760 570 760 570 754.5 564 c 128,-1,18
 749 558 749 558 749 549 c 2,19,-1
 749 49 l 2,20,21
 749 27 749 27 769 27 c 1,22,-1
 808 29 l 1,23,-1
 808 0 l 1,24,-1
 588 0 l 1,25,-1
 588 29 l 1,26,-1
 637 27 l 2,27,28
 657 27 657 27 657 49 c 2,29,-1
 657 520 l 1,30,-1
 419 -10 l 1,31,-1
 395 -10 l 1,32,-1
 138 526 l 1,33,-1
 138 49 l 2,34,35
 138 27 138 27 157 27 c 2,36,-1
 206 29 l 1,37,-1
 206 0 l 1,0,-1
EndSplineSet
EndChar

StartChar: N
Encoding: 78 78 49
Width: 662
GlyphClass: 2
Flags: HMW
HStem: -6 21G<529 559 529 529> 0 28 568 29
VStem: 104 34<49 525> 525 34<154 548 -6 549 -6 555.5>
LayerCount: 2
Fore
SplineSet
206 0 m 1,0,-1
 45 0 l 1,1,-1
 45 29 l 1,2,-1
 84 27 l 1,3,4
 104 27 104 27 104 49 c 2,5,-1
 104 548 l 2,6,7
 104 557 104 557 98.5 563.5 c 128,-1,8
 93 570 93 570 84 569 c 2,9,-1
 45 567 l 1,10,-1
 45 597 l 1,11,-1
 200 597 l 1,12,-1
 525 154 l 1,13,-1
 525 549 l 2,14,15
 525 569 525 569 508 569 c 2,16,-1
 505 569 l 1,17,-1
 456 567 l 1,18,-1
 456 597 l 1,19,-1
 617 597 l 1,20,-1
 617 567 l 1,21,-1
 578 569 l 1,22,-1
 576 569 l 2,23,24
 559 569 559 569 559 548 c 2,25,-1
 559 -6 l 1,26,-1
 529 -6 l 1,27,-1
 138 525 l 1,28,-1
 138 49 l 2,29,30
 138 27 138 27 157 27 c 2,31,-1
 206 29 l 1,32,-1
 206 0 l 1,0,-1
EndSplineSet
EndChar

StartChar: O
Encoding: 79 79 50
Width: 670
GlyphClass: 2
Flags: HMW
HStem: -10 27<298.5 370.5> 580 27<298.5 370.5 298.5 399>
VStem: 45 102<249 349> 523 102<249 349 249 400>
LayerCount: 2
Fore
SplineSet
45 299 m 128,-1,1
 45 442 45 442 111 515 c 0,2,3
 160 570 160 570 214.5 588.5 c 128,-1,4
 269 607 269 607 335 607 c 0,5,6
 476 607 476 607 559 515 c 0,7,8
 625 442 625 442 625 299 c 128,-1,9
 625 156 625 156 559 83 c 0,10,11
 475 -10 475 -10 335 -10 c 0,12,13
 270 -10 270 -10 215 9 c 128,-1,14
 160 28 160 28 111 83 c 0,15,0
 45 156 45 156 45 299 c 128,-1,1
192.5 514 m 128,-1,17
 147 448 147 448 147 298.5 c 128,-1,18
 147 149 147 149 192.5 83 c 128,-1,19
 238 17 238 17 335 17 c 128,-1,20
 432 17 432 17 477.5 83 c 128,-1,21
 523 149 523 149 523 298.5 c 128,-1,22
 523 448 523 448 477.5 514 c 128,-1,23
 432 580 432 580 335 580 c 128,-1,16
 238 580 238 580 192.5 514 c 128,-1,17
EndSplineSet
EndChar

StartChar: P
Encoding: 80 80 51
Width: 523
GlyphClass: 2
Flags: HMW
HStem: 0 28 263 28<201 285 285 306 201 285> 568 29
VStem: 108 93<49 263 291 547 547 554.5> 392 96<394 475.5>
LayerCount: 2
Fore
SplineSet
108 547 m 2,0,1
 108 570.769230769 108 570.769230769 85 569 c 2,2,-1
 50 567 l 1,3,-1
 50 597 l 1,4,-1
 285 597 l 2,5,6
 389 597 389 597 438.5 557.5 c 128,-1,7
 488 518 488 518 488 437.5 c 128,-1,8
 488 357 488 357 439 310 c 128,-1,9
 390 263 390 263 306 263 c 2,10,-1
 201 263 l 1,11,-1
 201 49 l 2,12,13
 201 27 201 27 221 27 c 2,14,-1
 270 29 l 1,15,-1
 270 0 l 1,16,-1
 50 0 l 1,17,-1
 50 29 l 1,18,-1
 89 27 l 2,19,20
 108 27 108 27 108 49 c 2,21,-1
 108 547 l 2,0,1
201 557 m 2,22,-1
 201 291 l 1,23,-1
 285 291 l 2,24,25
 331 291 331 291 361.5 332 c 128,-1,26
 392 373 392 373 392 434.5 c 128,-1,27
 392 496 392 496 358.5 532.5 c 128,-1,28
 325 569 325 569 269 569 c 2,29,-1
 213 569 l 2,30,31
 209 569 209 569 205 565.5 c 128,-1,32
 201 562 201 562 201 557 c 2,22,-1
EndSplineSet
EndChar

StartChar: Q
Encoding: 81 81 52
Width: 670
GlyphClass: 2
Flags: HMW
HStem: -196 30<503 541> -196 213<271 541> 580 27<298.5 370.5 298.5 399>
VStem: 45 102<249 349> 284 101<-52.5 -7 -52.5 -7> 523 102<249 349 249 400>
LayerCount: 2
Fore
SplineSet
45 299 m 128,-1,1
 45 442 45 442 111 515 c 0,2,3
 160 570 160 570 214.5 588.5 c 128,-1,4
 269 607 269 607 335 607 c 0,5,6
 476 607 476 607 559 515 c 0,7,8
 625 442 625 442 625 299 c 128,-1,9
 625 156 625 156 557.5 80.5 c 128,-1,10
 490 5 490 5 385 -7 c 1,11,12
 385 -76 385 -76 431.5 -121 c 128,-1,13
 478 -166 478 -166 554 -166 c 1,14,-1
 541 -196 l 1,15,16
 429 -196 429 -196 356.5 -143 c 128,-1,17
 284 -90 284 -90 284 -7 c 1,18,19
 180 5 180 5 112.5 80.5 c 128,-1,0
 45 156 45 156 45 299 c 128,-1,1
192.5 514 m 128,-1,21
 147 448 147 448 147 298.5 c 128,-1,22
 147 149 147 149 192.5 83 c 128,-1,23
 238 17 238 17 335 17 c 128,-1,24
 432 17 432 17 477.5 83 c 128,-1,25
 523 149 523 149 523 298.5 c 128,-1,26
 523 448 523 448 477.5 514 c 128,-1,27
 432 580 432 580 335 580 c 128,-1,20
 238 580 238 580 192.5 514 c 128,-1,21
EndSplineSet
EndChar

StartChar: R
Encoding: 82 82 53
Width: 581
GlyphClass: 2
Flags: HMW
HStem: 0 28 286 27<201 243 201 294> 568 29
VStem: 108 93<49 286 313 548 548 553.5> 392 94<403.5 484> 410 90<105.5 137 137 178.5 105.5 191>
LayerCount: 2
Fore
SplineSet
426 0 m 1,0,1
 410 33.3333333333 410 33.3333333333 410 104 c 2,2,-1
 410 137 l 2,3,4
 410 212 410 212 361.5 249 c 128,-1,5
 313 286 313 286 243 286 c 2,6,-1
 201 286 l 1,7,-1
 201 49 l 2,8,9
 201 27 201 27 221 27 c 2,10,-1
 270 29 l 1,11,-1
 270 0 l 1,12,-1
 50 0 l 1,13,-1
 50 29 l 1,14,-1
 89 27 l 2,15,16
 108 27 108 27 108 49 c 2,17,-1
 108 548 l 2,18,19
 108 569.043478261 108 569.043478261 87.8714555766 569.043478261 c 0,20,21
 86.9565217391 569.043478261 86.9565217391 569.043478261 86 569 c 2,22,-1
 50 567 l 1,23,-1
 50 597 l 1,24,-1
 275 597 l 2,25,26
 386 597 386 597 436 559.5 c 128,-1,27
 486 522 486 522 486 438 c 0,28,29
 486 387 486 387 452.5 349.5 c 128,-1,30
 419 312 419 312 364 297 c 1,31,32
 414 297 414 297 457 249 c 128,-1,33
 500 201 500 201 500 122 c 0,34,35
 500 92 500 92 507.5 61 c 128,-1,36
 515 30 515 30 529 28 c 1,37,38
 535 26 535 26 545.5 26 c 128,-1,39
 556 26 556 26 562 30 c 1,40,-1
 562 0 l 1,41,-1
 426 0 l 1,0,1
201 559 m 2,42,-1
 201 313 l 1,43,-1
 294 313 l 2,44,45
 340 313 340 313 366 346 c 128,-1,46
 392 379 392 379 392 443 c 128,-1,47
 392 507 392 507 363.5 538 c 128,-1,48
 335 569 335 569 275 569 c 2,49,-1
 213 569 l 2,50,51
 201 569 201 569 201 559 c 2,42,-1
EndSplineSet
EndChar

StartChar: S
Encoding: 83 83 54
Width: 494
GlyphClass: 2
Flags: HMW
HStem: -10 28<249.5 290.5> 580 27<220 250.5 179.5 296>
VStem: 56 82<449.5 485> 367 90<138 164.5> 403 20<434 518>
LayerCount: 2
Fore
SplineSet
48 203 m 1,0,-1
 73 203 l 1,1,2
 96 18 96 18 257 18 c 0,3,4
 307 18 307 18 336.5 51 c 128,-1,5
 366 84 366 84 367 138 c 1,6,7
 367 215 367 215 268 254 c 2,8,-1
 166 295 l 2,9,10
 56 339 56 339 56 441 c 0,11,12
 56 511 56 511 104.5 559 c 128,-1,13
 153 607 153 607 241 607 c 0,14,15
 267 607 267 607 292 602 c 1,16,-1
 334 590 l 1,17,-1
 370 578 l 2,18,19
 386.5 572 386.5 572 400.75 572 c 0,20,21
 415 572 415 572 426 576 c 1,22,23
 423 552 423 552 423 502 c 0,24,25
 423 452 423 452 429 434 c 1,26,-1
 403 434 l 1,27,28
 403 499 403 499 360.5 539.5 c 128,-1,29
 318 580 318 580 260 580 c 0,30,31
 202 580 202 580 170 551.5 c 128,-1,32
 138 523 138 523 138 472 c 0,33,34
 138 404 138 404 224 370 c 2,35,-1
 316 333 l 2,36,37
 392 302 392 302 424.5 264.5 c 128,-1,38
 457 227 457 227 457 168 c 0,39,40
 457 90 457 90 401.5 40 c 128,-1,41
 346 -10 346 -10 268 -10 c 0,42,43
 209 -10 209 -10 160.5 4 c 0,44,45
 112 18 112 18 84.5 18 c 0,46,47
 57 18 57 18 52 13 c 1,48,49
 56 34 56 34 56 105.5 c 0,50,51
 56 177 56 177 48 203 c 1,0,-1
EndSplineSet
EndChar

StartChar: T
Encoding: 84 84 55
Width: 529
GlyphClass: 2
Flags: HMW
HStem: 0 28 569 28<120.5 133 133 165 165 206 319.5 323 323 365> 579 20G<15 15 514 514>
VStem: 15 26<443 485.5 443 599> 218 93<52 557 557 558> 488 26<443 485.5>
CounterMasks: 1 1c
LayerCount: 2
Fore
SplineSet
41 443 m 1,0,-1
 15 443 l 1,1,-1
 15 599 l 1,2,3
 29 597 29 597 55 597 c 2,4,-1
 474 597 l 2,5,6
 506 597 506 597 514 599 c 1,7,-1
 514 443 l 1,8,-1
 488 443 l 1,9,10
 488 508 488 508 459.5 538.5 c 128,-1,11
 431 569 431 569 365 569 c 2,12,-1
 323 569 l 2,13,14
 313 569 313 569 311 558 c 1,15,-1
 311 49 l 2,16,17
 311 27 311 27 331 27 c 2,18,-1
 384 29 l 1,19,-1
 384 0 l 1,20,-1
 145 0 l 1,21,-1
 145 29 l 1,22,-1
 199 27 l 2,23,24
 218 27 218 27 218 52 c 2,25,-1
 218 557 l 2,26,27
 218 569 218 569 206 569 c 2,28,-1
 165 569 l 2,29,30
 99 569 99 569 70 538.5 c 128,-1,31
 41 508 41 508 41 443 c 1,0,-1
EndSplineSet
EndChar

StartChar: U
Encoding: 85 85 56
Width: 651
GlyphClass: 2
Flags: HMW
HStem: -10 31<306 408.5> 568 29
VStem: 92 93<199 548 548 549> 532 35<198 548 548 549>
LayerCount: 2
Fore
SplineSet
73 569 m 2,0,-1
 35 567 l 1,1,-1
 35 597 l 1,2,-1
 254 597 l 1,3,-1
 254 567 l 1,4,-1
 205 569 l 2,5,6
 196 570 196 570 190.5 564 c 128,-1,7
 185 558 185 558 185 549 c 2,8,-1
 185 199 l 2,9,10
 185 115 185 115 231.5 68 c 128,-1,11
 278 21 278 21 356.5 21 c 0,12,13
 435 21 435 21 483.5 71.5 c 128,-1,14
 532 122 532 122 532 198 c 2,15,-1
 532 548 l 2,16,17
 532 558 532 558 527 564 c 128,-1,18
 522 570 522 570 514 569 c 2,19,-1
 465 567 l 1,20,-1
 465 597 l 1,21,-1
 626 597 l 1,22,-1
 626 567 l 1,23,-1
 587 569 l 2,24,25
 578 570 578 570 572.5 564 c 128,-1,26
 567 558 567 558 567 549 c 2,27,-1
 567 189 l 2,28,29
 567 103 567 103 504 46.5 c 128,-1,30
 441 -10 441 -10 344 -10 c 0,31,32
 222 -10 222 -10 157 43.5 c 128,-1,33
 92 97 92 97 92 199 c 2,34,-1
 92 548 l 2,35,36
 92 557 92 557 86.5 563.5 c 128,-1,37
 81 570 81 570 73 569 c 2,0,-1
EndSplineSet
EndChar

StartChar: V
Encoding: 86 86 57
Width: 584
GlyphClass: 2
Flags: HMW
HStem: -4 21G<283 309 283 283> 568 29
LayerCount: 2
Fore
SplineSet
23 569 m 2,0,-1
 -5 567 l 1,1,-1
 -5 597 l 1,2,-1
 210 597 l 1,3,-1
 210 567 l 1,4,-1
 157 569 l 2,5,6
 150 569 150 569 147.5 561 c 128,-1,7
 145 553 145 553 148 545 c 2,8,-1
 329 129 l 1,9,-1
 503 534 l 1,10,-1
 507 546 l 2,11,12
 514 569 514 569 498 569 c 2,13,-1
 447 567 l 1,14,-1
 447 597 l 1,15,-1
 604 597 l 1,16,-1
 604 567 l 1,17,-1
 568 569 l 2,18,19
 560 570 560 570 556.5 565 c 128,-1,20
 553 560 553 560 547 546 c 2,21,-1
 309 -4 l 1,22,-1
 283 -4 l 1,23,-1
 46 546 l 1,24,25
 35 569 35 569 23 569 c 2,0,-1
EndSplineSet
EndChar

StartChar: W
Encoding: 87 87 58
Width: 884
GlyphClass: 2
Flags: HMW
HStem: -10 21G<257 276 257 257 652 668 652 652> 569 28<23 23 23 25 158 158 402 402 402 406 531 531 803 803 874 874>
LayerCount: 2
Fore
SplineSet
23 569 m 1,0,-1
 -5 567 l 1,1,-1
 -5 597 l 1,2,-1
 211 597 l 1,3,-1
 211 567 l 1,4,-1
 158 569 l 2,5,6
 145 570 145 570 145 558 c 0,7,8
 145 556 145 556 148 547 c 2,9,-1
 297 155 l 1,10,-1
 423 545 l 2,11,12
 425 553 425 553 425 555 c 0,13,14
 425 569 425 569 406 569 c 2,15,-1
 402 569 l 1,16,-1
 365 567 l 1,17,-1
 365 597 l 1,18,-1
 573 597 l 1,19,-1
 573 567 l 1,20,-1
 531 569 l 1,21,22
 523 571 523 571 520.5 562 c 128,-1,23
 518 553 518 553 521 547 c 2,24,-1
 685 141 l 1,25,-1
 814 549 l 2,26,27
 817 557 817 557 814 563.5 c 128,-1,28
 811 570 811 570 803 569 c 2,29,-1
 751 567 l 1,30,-1
 751 597 l 1,31,-1
 904 597 l 1,32,-1
 904 567 l 1,33,-1
 874 569 l 2,34,35
 873.217391304 569.043478261 873.217391304 569.043478261 872.45557656 569.043478261 c 0,36,37
 855.695652174 569.043478261 855.695652174 569.043478261 849 548 c 2,38,-1
 668 -10 l 1,39,-1
 652 -10 l 1,40,-1
 446 510 l 1,41,-1
 276 -10 l 1,42,-1
 257 -10 l 1,43,-1
 46 547 l 1,44,45
 39 569 39 569 25 569 c 2,46,-1
 23 569 l 1,0,-1
EndSplineSet
EndChar

StartChar: X
Encoding: 88 88 59
Width: 566
GlyphClass: 2
Flags: HMW
HStem: 0 28<63 66 66 73 63 189> 568 29
LayerCount: 2
Fore
SplineSet
189 0 m 1,0,-1
 30 0 l 1,1,-1
 30 30 l 1,2,-1
 63 28 l 1,3,-1
 66 28 l 2,4,5
 87 28 87 28 100 50 c 2,6,-1
 254 296 l 1,7,-1
 103 550 l 1,8,9
 93 569 93 569 71 569 c 1,10,-1
 39 567 l 1,11,-1
 39 597 l 1,12,-1
 267 597 l 1,13,-1
 267 567 l 1,14,-1
 225 569 l 2,15,16
 213 570 213 570 209 562.5 c 128,-1,17
 205 555 205 555 211 548 c 1,18,-1
 320 361 l 1,19,-1
 439 549 l 2,20,21
 445 557 445 557 443.5 563.5 c 128,-1,22
 442 570 442 570 431 569 c 2,23,-1
 388 567 l 1,24,-1
 388 597 l 1,25,-1
 540 597 l 1,26,-1
 540 567 l 1,27,-1
 512 569 l 1,28,-1
 509 569 l 2,29,30
 492 569 492 569 478 549 c 1,31,-1
 340 328 l 1,32,-1
 509 44 l 2,33,34
 518.473684211 26.9473684211 518.473684211 26.9473684211 536.922437673 26.9473684211 c 0,35,36
 537.947368421 26.9473684211 537.947368421 26.9473684211 539 27 c 2,37,-1
 578 30 l 1,38,-1
 578 0 l 1,39,-1
 343 0 l 1,40,-1
 343 30 l 1,41,-1
 392 27 l 2,42,43
 403 26 403 26 404.5 34 c 128,-1,44
 406 42 406 42 399 50 c 1,45,-1
 273 263 l 1,46,-1
 138 47 l 2,47,48
 133 38 133 38 135.5 32 c 128,-1,49
 138 26 138 26 144 27 c 2,50,-1
 189 30 l 1,51,-1
 189 0 l 1,0,-1
EndSplineSet
EndChar

StartChar: Y
Encoding: 89 89 60
Width: 507
GlyphClass: 2
Flags: HMW
HStem: 0 28 568 29
VStem: 220 93<49 263 263 263>
LayerCount: 2
Fore
SplineSet
22 569 m 1,0,-1
 -5 567 l 1,1,-1
 -5 597 l 1,2,-1
 216 597 l 1,3,-1
 216 567 l 1,4,-1
 163 569 l 2,5,6
 153 570 153 570 151.5 561.5 c 128,-1,7
 150 553 150 553 156 545 c 1,8,-1
 293 317 l 1,9,-1
 424 549 l 1,10,11
 434 569 434 569 417 569 c 2,12,-1
 365 567 l 1,13,-1
 365 597 l 1,14,-1
 517 597 l 1,15,-1
 517 567 l 1,16,-1
 488 569 l 1,17,-1
 487 569 l 2,18,19
 471 569 471 569 459 548 c 2,20,-1
 313 288 l 1,21,-1
 313 48 l 2,22,23
 313 27 313 27 333 27 c 2,24,-1
 381 29 l 1,25,-1
 381 0 l 1,26,-1
 152 0 l 1,27,-1
 152 29 l 1,28,-1
 201 27 l 2,29,30
 220 27 220 27 220 49 c 2,31,-1
 220 263 l 1,32,-1
 47 550 l 1,33,34
 37 569 37 569 23 569 c 2,35,-1
 22 569 l 1,0,-1
EndSplineSet
EndChar

StartChar: Z
Encoding: 90 90 61
Width: 512
GlyphClass: 2
Flags: HMW
HStem: -4 21G<484 484> 0 27<141 315 315 360.5 34 34> 569 28<155.5 203 203 354> 578 20G<76 112 112 118> 580 20G<35 47 47 50.5>
VStem: 35 27<443 486.5 443 600> 465 23
LayerCount: 2
Fore
SplineSet
371 0 m 2,0,-1
 34 0 l 1,1,-1
 34 27 l 1,2,-1
 354 569 l 1,3,-1
 203 569 l 2,4,5
 131 569 131 569 96.5 538.5 c 128,-1,6
 62 508 62 508 62 443 c 1,7,-1
 35 443 l 1,8,-1
 35 600 l 1,9,-1
 47 600 l 2,10,11
 52 600 52 600 76 598 c 1,12,-1
 112 598 l 2,13,14
 135 598 135 598 144 597 c 1,15,-1
 464 597 l 1,16,-1
 464 573 l 1,17,-1
 141 27 l 1,18,-1
 315 27 l 2,19,20
 384 27 384 27 424.5 64.5 c 128,-1,21
 465 102 465 102 465 167 c 1,22,-1
 492 167 l 1,23,-1
 484 -4 l 1,24,25
 472 0 472 0 371 0 c 2,0,-1
EndSplineSet
EndChar

StartChar: bracketleft
Encoding: 91 91 62
Width: 256
GlyphClass: 2
Flags: HMW
HStem: -147 27<119 223 119 223> 648 27<119 223 119 119>
VStem: 46 73<-120 648 -120 675 -120 675>
LayerCount: 2
Fore
SplineSet
223 -147 m 1,0,-1
 46 -147 l 1,1,-1
 46 675 l 1,2,-1
 223 675 l 1,3,-1
 223 648 l 1,4,-1
 119 648 l 1,5,-1
 119 -120 l 1,6,-1
 223 -120 l 1,7,-1
 223 -147 l 1,0,-1
EndSplineSet
EndChar

StartChar: backslash
Encoding: 92 92 63
Width: 248
GlyphClass: 2
Flags: HMW
HStem: -5 21G<210 210> 615 20G<31 31>
LayerCount: 2
Fore
SplineSet
210 -5 m 1,0,-1
 -8 626 l 1,1,-1
 31 635 l 1,2,-1
 250 6 l 1,3,-1
 210 -5 l 1,0,-1
EndSplineSet
EndChar

StartChar: bracketright
Encoding: 93 93 64
Width: 256
GlyphClass: 2
Flags: HMW
HStem: -147 27<34 139 34 139 34 210> 648 27<34 139 34 210>
VStem: 139 71<-120 648 648 648>
LayerCount: 2
Fore
SplineSet
34 -147 m 1,0,-1
 34 -120 l 1,1,-1
 139 -120 l 1,2,-1
 139 648 l 1,3,-1
 34 648 l 1,4,-1
 34 675 l 1,5,-1
 210 675 l 1,6,-1
 210 -147 l 1,7,-1
 34 -147 l 1,0,-1
EndSplineSet
EndChar

StartChar: asciicircum
Encoding: 94 94 65
Width: 460
GlyphClass: 2
Flags: HMW
HStem: 321 21G<18 64 18 18 395 395 395 442> 637 20G<219 242 242 242>
LayerCount: 2
Fore
SplineSet
64 321 m 1,0,-1
 18 321 l 1,1,-1
 219 657 l 1,2,-1
 242 657 l 1,3,-1
 442 321 l 1,4,-1
 395 321 l 1,5,-1
 250 566 l 1,6,-1
 230 608 l 1,7,-1
 211 566 l 1,8,-1
 64 321 l 1,0,-1
EndSplineSet
EndChar

StartChar: underscore
Encoding: 95 95 66
Width: 493
GlyphClass: 2
Flags: HMW
HStem: -183 40<0 493 0 493>
LayerCount: 2
Fore
SplineSet
0 -183 m 1,0,-1
 0 -143 l 1,1,-1
 493 -143 l 1,2,-1
 493 -183 l 1,3,-1
 0 -183 l 1,0,-1
EndSplineSet
EndChar

StartChar: grave
Encoding: 96 96 67
Width: 517
GlyphClass: 2
Flags: HMW
HStem: 493 21G<372.5 380.5> 633 20G<228 247.5>
LayerCount: 2
Fore
SplineSet
193 614 m 2,0,1
 183 622 183 622 183 627.5 c 128,-1,2
 183 633 183 633 203 643 c 128,-1,3
 223 653 223 653 235 653 c 128,-1,4
 247 653 247 653 253 650 c 0,5,6
 260.6 646.2 260.6 646.2 276 628 c 2,7,-1
 371 524 l 2,8,9
 389 504 389 504 389 501 c 0,10,11
 389 493 389 493 377 493 c 128,-1,12
 365 493 365 493 356 502 c 1,13,-1
 193 614 l 2,0,1
EndSplineSet
EndChar

StartChar: a
Encoding: 97 97 68
Width: 450
GlyphClass: 2
Flags: HMW
HStem: -5 36<164.5 188.5> 0 21G<288 430 288 288> 231 27<229.5 294> 290 140<78.5 263.5> 403 27<176.5 236>
VStem: 27 91<86.5 154 86.5 157.5> 49 92<323.5 330.5 311.5 365> 294 86<76 76 173 231 231 231 258 289>
LayerCount: 2
Fore
SplineSet
27 105 m 0,0,1
 27 184 27 184 90.5 221 c 128,-1,2
 154 258 154 258 294 258 c 1,3,-1
 294 316 l 2,4,5
 294 361 294 361 272.5 382 c 128,-1,6
 251 403 251 403 206 403 c 0,7,8
 131 403 131 403 131 359 c 0,9,10
 131 351 131 351 136 341 c 128,-1,11
 141 331 141 331 141 319 c 0,12,13
 141 307 141 307 127.5 298.5 c 128,-1,14
 114 290 114 290 93 290 c 0,15,16
 49 290 49 290 49 335 c 0,17,18
 49 380 49 380 88.5 405 c 128,-1,19
 128 430 128 430 211 430 c 0,20,21
 294 430 294 430 337 396 c 128,-1,22
 380 362 380 362 380 289 c 2,23,-1
 380 43 l 2,24,25
 380 24 380 24 393 24 c 2,26,-1
 430 26 l 1,27,-1
 430 0 l 1,28,-1
 288 0 l 1,29,30
 290 13 290 13 292 37 c 2,31,-1
 294 76 l 1,32,33
 253 -5 253 -5 159 -5 c 0,34,35
 27 -5 27 -5 27 105 c 0,0,1
118 112 m 0,36,37
 118 74 118 74 136 52.5 c 128,-1,38
 154 31 154 31 186 31 c 0,39,40
 232 31 232 31 263 71 c 128,-1,41
 294 111 294 111 294 173 c 2,42,-1
 294 231 l 1,43,44
 198 231 198 231 158 203.5 c 128,-1,45
 118 176 118 176 118 112 c 0,36,37
EndSplineSet
EndChar

StartChar: b
Encoding: 98 98 69
Width: 496
GlyphClass: 2
Flags: HMW
HStem: -10 27<234 309 228.5 335.5> -5 21G<70 103 70 70> 403 27<254.5 314.5> 710 20G<21 157 157 157>
VStem: 70 87<342 687 687 693.5> 370 91<136.5 281.5 136.5 284>
LayerCount: 2
Fore
SplineSet
57 707 m 2,0,-1
 21 705 l 1,1,-1
 21 730 l 1,2,-1
 157 730 l 1,3,-1
 157 342 l 1,4,5
 194 430 194 430 288 430 c 0,6,7
 461 430 461 430 461 210 c 0,8,9
 461 -10 461 -10 271 -10 c 0,10,11
 236 -10 236 -10 211 0 c 128,-1,12
 186 10 186 10 175 21 c 128,-1,13
 164 32 164 32 149 52 c 1,14,15
 144.5 61 144.5 61 131 61 c 0,16,17
 103 61 103 61 103 -5 c 1,18,-1
 70 -5 l 1,19,-1
 70 687 l 2,20,21
 70 707 70 707 57 707 c 2,0,-1
159 226 m 2,22,-1
 159 184 l 2,23,24
 159 17 159 17 271 17 c 0,25,26
 328 17 328 17 349 58 c 128,-1,27
 370 99 370 99 370 211 c 0,28,29
 370 323 370 323 351.5 363 c 128,-1,30
 333 403 333 403 277 403 c 128,-1,31
 221 403 221 403 190 355.5 c 128,-1,32
 159 308 159 308 159 226 c 2,22,-1
EndSplineSet
EndChar

StartChar: c
Encoding: 99 99 70
Width: 425
GlyphClass: 2
Flags: HMW
HStem: -10 27<206.5 275 206.5 282.5> 278 152<173.5 355.5> 403 27<196 253.5>
VStem: 36 93<144 275> 313 74<341 356.5 312.5 369.5>
LayerCount: 2
Fore
SplineSet
89.5 47 m 128,-1,1
 36 104 36 104 36 206 c 128,-1,2
 36 308 36 308 90 369 c 128,-1,3
 144 430 144 430 232 430 c 0,4,5
 296 430 296 430 341.5 400.5 c 128,-1,6
 387 371 387 371 387 327 c 0,7,8
 387 306 387 306 374.5 292 c 128,-1,9
 362 278 362 278 344 278 c 0,10,11
 304 278 304 278 304 306 c 0,12,13
 304 316 304 316 308.5 328.5 c 128,-1,14
 313 341 313 341 313 353 c 0,15,16
 313 377 313 377 289.5 390 c 128,-1,17
 266 403 266 403 232 403 c 0,18,19
 178 403 178 403 153.5 357 c 128,-1,20
 129 311 129 311 129 206 c 0,21,22
 129 17 129 17 245 17 c 0,23,24
 290 17 290 17 329.5 48 c 128,-1,25
 369 79 369 79 381 124 c 1,26,-1
 406 107 l 1,27,28
 370 -10 370 -10 239 -10 c 0,29,0
 143 -10 143 -10 89.5 47 c 128,-1,1
EndSplineSet
EndChar

StartChar: d
Encoding: 100 100 71
Width: 496
GlyphClass: 2
Flags: HMW
HStem: -10 27<186.5 257> 0 21G<332 476 332 332> 403 27<186 256 161.5 263.5> 710 20G<280 426 426 426>
VStem: 35 92<138 267 138 281.5> 339 87<348 687 687 692.5>
LayerCount: 2
Fore
SplineSet
35 209 m 0,0,1
 35 430 35 430 224 430 c 0,2,3
 270 430 270 430 299.5 407 c 128,-1,4
 329 384 329 384 339 348 c 1,5,-1
 339 687 l 2,6,7
 339 707 339 707 326 707 c 2,8,-1
 280 705 l 1,9,-1
 280 730 l 1,10,-1
 426 730 l 1,11,-1
 426 43 l 2,12,13
 426 24 426 24 439 24 c 2,14,-1
 476 26 l 1,15,-1
 476 0 l 1,16,-1
 332 0 l 1,17,18
 334 8 334 8 334 16 c 2,19,-1
 334 38 l 2,20,21
 334 46 334 46 335 56.5 c 2,22,-1
 336 67 l 1,23,24
 311 -10 311 -10 225 -10 c 0,25,26
 123 -10 123 -10 79 43.5 c 128,-1,27
 35 97 35 97 35 209 c 0,0,1
148.5 353 m 128,-1,29
 127 303 127 303 127 202 c 128,-1,30
 127 101 127 101 147.5 59 c 128,-1,31
 168 17 168 17 227 17 c 128,-1,32
 286 17 286 17 311.5 57 c 128,-1,33
 337 97 337 97 337 184 c 2,34,-1
 337 226 l 2,35,36
 337 403 337 403 224 403 c 0,37,28
 170 403 170 403 148.5 353 c 128,-1,29
EndSplineSet
EndChar

StartChar: e
Encoding: 101 101 72
Width: 449
GlyphClass: 2
Flags: HMW
HStem: -10 33<252 275> 212 25<127 309 309 315 127 414 126 309> 403 27<196 270>
VStem: 35 91<151.5 212 151.5 281.5> 329 85<212 314.5>
LayerCount: 2
Fore
SplineSet
35 209 m 0,0,1
 35 318 35 318 86 374 c 128,-1,2
 137 430 137 430 236 430 c 0,3,4
 315 430 315 430 363.5 379.5 c 128,-1,5
 412 329 412 329 414 241 c 1,6,-1
 414 212 l 1,7,-1
 126 212 l 1,8,9
 126 24 126 24 252 23 c 0,10,11
 302 23 302 23 336.5 48 c 128,-1,12
 371 73 371 73 387 110 c 1,13,-1
 410 93 l 1,14,15
 390 45 390 45 342.5 17.5 c 128,-1,16
 295 -10 295 -10 238 -10 c 0,17,18
 35 -10 35 -10 35 209 c 0,0,1
127 237 m 1,19,-1
 309 237 l 2,20,21
 329 237 329 237 329 270 c 0,22,23
 329 338 329 338 307.5 370.5 c 128,-1,24
 286 403 286 403 233 403 c 0,25,26
 180 403 180 403 153.5 357 c 128,-1,27
 127 311 127 311 127 237 c 1,19,-1
EndSplineSet
EndChar

StartChar: f
Encoding: 102 102 73
Width: 296
GlyphClass: 2
Flags: HMW
HStem: 0 25 395 25<46 85 46 85 171 171 171 277> 624 112<246 340.5> 711 25<246 260 260 271.5>
VStem: 85 86<43 395> 302 69<644.5 690.5>
LayerCount: 2
Fore
SplineSet
164 597 m 1,0,-1
 170 449 l 1,1,-1
 170 420 l 1,2,-1
 277 420 l 1,3,-1
 277 395 l 1,4,-1
 171 395 l 1,5,-1
 171 43 l 2,6,7
 171 24 171 24 184 24 c 2,8,-1
 250 26 l 1,9,-1
 250 0 l 1,10,-1
 35 0 l 1,11,-1
 35 26 l 1,12,-1
 82 24 l 2,13,14
 86 24 86 24 86.5 25.5 c 128,-1,15
 87 27 87 27 86 32.5 c 128,-1,16
 85 38 85 38 85 43 c 2,17,-1
 85 395 l 1,18,-1
 46 395 l 1,19,-1
 46 420 l 1,20,-1
 85 420 l 1,21,-1
 85 486 l 2,22,23
 85 600 85 600 106 649 c 0,24,25
 143 736 143 736 246 736 c 2,26,-1
 260 736 l 2,27,28
 304 736 304 736 337.5 717.5 c 128,-1,29
 371 699 371 699 371 657 c 0,30,31
 371 624 371 624 331 624 c 0,32,33
 318 624 318 624 306.5 631 c 128,-1,34
 295 638 295 638 295 649.5 c 128,-1,35
 295 661 295 661 298.5 670.5 c 128,-1,36
 302 680 302 680 302 683 c 0,37,38
 302 711 302 711 258.5 711 c 0,39,40
 164 711 164 711 164 597 c 1,0,-1
EndSplineSet
EndChar

StartChar: g
Encoding: 103 103 74
Width: 460
GlyphClass: 2
Flags: HMW
HStem: -245 26<168.5 270.5 168.5 287> 0 65<173.5 200 200 289> 131 23<215 259 195 279> 403 27<196.5 243.5 177 258.5> 424 81<419 439.5 407.5 445> 447 58<385 439.5>
VStem: 32 49<-141.5 -84> 45 36 45 68<89.5 102> 57 89<252.5 324.5> 309 89<236 312 236 324> 309 158<235.5 470> 387 66<-121.5 -53.5>
LayerCount: 2
Fore
SplineSet
215 -245 m 0,0,1
 32 -245 32 -245 32 -107.5 c 0,2,3
 32 -38 32 -38 122 5 c 1,4,5
 96 12 96 12 83 17.5 c 128,-1,6
 70 23 70 23 57.5 39.5 c 128,-1,7
 45 56 45 56 45 80.5 c 128,-1,8
 45 105 45 105 82 129 c 128,-1,9
 119 153 119 153 123 159 c 1,10,11
 93 173 93 173 75 206 c 128,-1,12
 57 239 57 239 57 280 c 0,13,14
 57 347 57 347 104.5 388.5 c 128,-1,15
 152 430 152 430 227 430 c 0,16,17
 266 430 266 430 303 418 c 1,18,19
 328 452 328 452 364.5 478.5 c 128,-1,20
 401 505 401 505 423.5 505 c 128,-1,21
 446 505 446 505 456.5 491.5 c 128,-1,22
 467 478 467 478 467 463 c 128,-1,23
 467 448 467 448 458 436 c 128,-1,24
 449 424 449 424 433 424 c 128,-1,25
 417 424 417 424 407.5 435.5 c 128,-1,26
 398 447 398 447 389 447 c 128,-1,27
 380 447 380 447 358.5 436 c 128,-1,28
 337 425 337 425 324 409 c 1,29,30
 398 379 398 379 398 280 c 0,31,32
 398 214 398 214 351 172.5 c 128,-1,33
 304 131 304 131 227 131 c 0,34,35
 186 131 186 131 152 145 c 1,36,37
 113 125 113 125 113 102 c 0,38,39
 113 65 113 65 171 65 c 2,40,-1
 304 65 l 2,41,42
 378 65 378 65 415.5 33 c 128,-1,43
 453 1 453 1 453 -75.5 c 128,-1,44
 453 -152 453 -152 388 -198.5 c 128,-1,45
 323 -245 323 -245 215 -245 c 0,0,1
119.5 -33.5 m 128,-1,47
 81 -67 81 -67 81 -113 c 128,-1,48
 81 -159 81 -159 114.5 -189 c 128,-1,49
 148 -219 148 -219 222.5 -219 c 128,-1,50
 297 -219 297 -219 342 -181 c 128,-1,51
 387 -143 387 -143 387 -81 c 0,52,53
 387 0 387 0 289 0 c 2,54,-1
 200 0 l 2,55,46
 158 0 158 0 119.5 -33.5 c 128,-1,47
163.5 376.5 m 128,-1,57
 146 350 146 350 146 279 c 128,-1,58
 146 208 146 208 163 181 c 128,-1,59
 180 154 180 154 227 154 c 128,-1,60
 274 154 274 154 291.5 182.5 c 128,-1,61
 309 211 309 211 309 279 c 128,-1,62
 309 347 309 347 291 375 c 128,-1,63
 273 403 273 403 227 403 c 128,-1,56
 181 403 181 403 163.5 376.5 c 128,-1,57
EndSplineSet
EndChar

StartChar: h
Encoding: 104 104 75
Width: 525
GlyphClass: 2
Flags: HMW
HStem: 0 25 398 32<286.5 332.5> 710 20G<35 171 171 171>
VStem: 85 86<43 208 331 686 686 693> 369 86<43 270 270 288>
LayerCount: 2
Fore
SplineSet
230 0 m 1,0,-1
 35 0 l 1,1,-1
 35 26 l 1,2,-1
 72 24 l 1,3,4
 85 27 85 27 85 43 c 2,5,-1
 85 686 l 2,6,7
 85 707 85 707 72 707 c 2,8,-1
 35 705 l 1,9,-1
 35 730 l 1,10,-1
 171 730 l 1,11,-1
 171 331 l 1,12,13
 192 377 192 377 231 403.5 c 128,-1,14
 270 430 270 430 331 430 c 0,15,16
 392 430 392 430 423.5 396.5 c 128,-1,17
 455 363 455 363 455 288 c 2,18,-1
 455 43 l 2,19,20
 455 24 455 24 468 24 c 2,21,-1
 505 26 l 1,22,-1
 505 0 l 1,23,-1
 310 0 l 1,24,-1
 310 26 l 1,25,-1
 356 24 l 1,26,27
 369 27 369 27 369 43 c 2,28,-1
 369 270 l 2,29,30
 369 341 369 341 357 369.5 c 128,-1,31
 345 398 345 398 302 398 c 0,32,33
 242 398 242 398 206.5 346 c 128,-1,34
 171 294 171 294 171 208 c 2,35,-1
 171 43 l 2,36,37
 171 24 171 24 184 24 c 2,38,-1
 230 26 l 1,39,-1
 230 0 l 1,0,-1
EndSplineSet
EndChar

StartChar: i
Encoding: 105 105 76
Width: 255
GlyphClass: 2
Flags: HMW
HStem: 0 25 585 95<105.5 137>
VStem: 67 104 85 86<43 376 376 381.5>
LayerCount: 2
Fore
SplineSet
220 0 m 1,0,-1
 35 0 l 1,1,-1
 35 26 l 1,2,-1
 72 24 l 2,3,4
 85 24 85 24 85 43 c 2,5,-1
 85 376 l 2,6,7
 85 393 85 393 73 396 c 1,8,-1
 36 394 l 1,9,-1
 36 420 l 1,10,-1
 171 420 l 1,11,-1
 171 43 l 2,12,13
 171 24 171 24 184 24 c 2,14,-1
 220 26 l 1,15,-1
 220 0 l 1,0,-1
82 597.5 m 128,-1,17
 67 610 67 610 67 632 c 128,-1,18
 67 654 67 654 82 667 c 128,-1,19
 97 680 97 680 121 680 c 128,-1,20
 145 680 145 680 160.5 667 c 128,-1,21
 176 654 176 654 176 632 c 128,-1,22
 176 610 176 610 161 597.5 c 128,-1,23
 146 585 146 585 121.5 585 c 128,-1,16
 97 585 97 585 82 597.5 c 128,-1,17
EndSplineSet
EndChar

StartChar: j
Encoding: 106 106 77
Width: 251
GlyphClass: 2
Flags: HMW
HStem: -243 27<24.5 51.5 24.5 74.5> 585 95<107 138.5>
VStem: -58 229<-224.5 -4> 69 102 85 86<-59 -4 -4 376 376 381.5>
LayerCount: 2
Fore
SplineSet
87 -133 m 1,0,-1
 85 -59 l 1,1,-1
 85 376 l 2,2,3
 85 396 85 396 72 396 c 2,4,-1
 31 394 l 1,5,-1
 31 420 l 1,6,-1
 171 420 l 1,7,-1
 171 -4 l 2,8,9
 171 -243 171 -243 28 -243 c 0,10,11
 -23 -243 -23 -243 -40.5 -237 c 128,-1,12
 -58 -231 -58 -231 -58 -212 c 0,13,14
 -58 -169 -58 -169 -33 -169 c 0,15,16
 -23 -169 -23 -169 -17 -176 c 2,17,-1
 -4 -192 l 1,18,19
 14 -216 14 -216 34 -216 c 0,20,21
 87 -216 87 -216 87 -133 c 1,0,-1
83.5 597.5 m 128,-1,23
 69 610 69 610 69 632.5 c 128,-1,24
 69 655 69 655 84 667.5 c 128,-1,25
 99 680 99 680 123 680 c 128,-1,26
 147 680 147 680 162.5 667 c 128,-1,27
 178 654 178 654 178 632 c 128,-1,28
 178 610 178 610 162.5 597.5 c 128,-1,29
 147 585 147 585 122.5 585 c 128,-1,22
 98 585 98 585 83.5 597.5 c 128,-1,23
EndSplineSet
EndChar

StartChar: k
Encoding: 107 107 78
Width: 511
GlyphClass: 2
Flags: HMW
HStem: 0 25 396 24 710 20G<36 171 171 171>
VStem: 85 86<43 202 237 686 686 693>
LayerCount: 2
Fore
SplineSet
230 0 m 1,0,-1
 35 0 l 1,1,-1
 35 26 l 1,2,-1
 72 24 l 1,3,4
 85 27 85 27 85 43 c 2,5,-1
 85 686 l 2,6,7
 85 707 85 707 73 707 c 2,8,-1
 36 705 l 1,9,-1
 36 730 l 1,10,-1
 171 730 l 1,11,-1
 171 237 l 1,12,-1
 334 377 l 2,13,14
 343.181818182 386.181818182 343.181818182 386.181818182 340.090909091 391.590909091 c 128,-1,15
 337 397 337 397 331 397 c 2,16,-1
 288 395 l 1,17,-1
 288 420 l 1,18,-1
 450 420 l 1,19,-1
 450 395 l 1,20,-1
 414 397 l 2,21,22
 399 397 399 397 383 383 c 2,23,-1
 266 283 l 1,24,-1
 441 42 l 2,25,26
 454 24 454 24 468 24 c 2,27,-1
 504 26 l 1,28,-1
 504 0 l 1,29,-1
 289 0 l 1,30,-1
 289 26 l 1,31,-1
 334 24 l 2,32,33
 343 23 343 23 345 28 c 128,-1,34
 347 33 347 33 343 38 c 2,35,-1
 204 230 l 1,36,-1
 171 202 l 1,37,-1
 171 43 l 2,38,39
 171 24 171 24 184 24 c 2,40,-1
 230 26 l 1,41,-1
 230 0 l 1,0,-1
EndSplineSet
EndChar

StartChar: l
Encoding: 108 108 79
Width: 255
GlyphClass: 2
Flags: HMW
HStem: 0 25 711 20G<36 171 171 171>
VStem: 85 86<43 687 687 692.5>
LayerCount: 2
Fore
SplineSet
220 0 m 1,0,-1
 35 0 l 1,1,-1
 35 26 l 1,2,-1
 72 24 l 1,3,4
 85 27 85 27 85 43 c 2,5,-1
 85 687 l 2,6,7
 85 703.5 85 703.5 73 708 c 1,8,-1
 36 706 l 1,9,-1
 36 731 l 1,10,-1
 171 731 l 1,11,-1
 171 43 l 2,12,13
 171 24 171 24 184 24 c 2,14,-1
 220 26 l 1,15,-1
 220 0 l 1,0,-1
EndSplineSet
EndChar

StartChar: m
Encoding: 109 109 80
Width: 801
GlyphClass: 2
Flags: HMW
HStem: 0 25 397 33<278.5 324>
VStem: 85 86<43 210> 365 86<43 208> 645 86<43 270 270 288>
CounterMasks: 1 38
LayerCount: 2
Fore
SplineSet
230 0 m 1,0,-1
 35 0 l 1,1,-1
 35 26 l 1,2,-1
 72 24 l 1,3,4
 85 27 85 27 85 43 c 2,5,-1
 85 376 l 2,6,7
 85 396 85 396 72 396 c 2,8,-1
 35 394 l 1,9,-1
 35 420 l 1,10,-1
 177 420 l 1,11,12
 172 405 172 405 172 386 c 2,13,-1
 171 328 l 1,14,15
 186 373 186 373 224 401.5 c 128,-1,16
 262 430 262 430 317 430 c 0,17,18
 440 430 440 430 447 316 c 1,19,20
 464 371 464 371 504 400.5 c 128,-1,21
 544 430 544 430 606 430 c 0,22,23
 668 430 668 430 699.5 396.5 c 128,-1,24
 731 363 731 363 731 288 c 2,25,-1
 731 43 l 2,26,27
 731 24 731 24 744 24 c 2,28,-1
 781 26 l 1,29,-1
 781 0 l 1,30,-1
 586 0 l 1,31,-1
 586 26 l 1,32,-1
 632 24 l 1,33,34
 645 27 645 27 645 43 c 2,35,-1
 645 270 l 2,36,37
 645 341 645 341 633 369.5 c 128,-1,38
 621 398 621 398 578 398 c 0,39,40
 522 398 522 398 486.5 345.5 c 128,-1,41
 451 293 451 293 451 208 c 2,42,-1
 451 43 l 2,43,44
 451 24 451 24 464 24 c 2,45,-1
 511 26 l 1,46,-1
 511 0 l 1,47,-1
 306 0 l 1,48,-1
 306 26 l 1,49,-1
 352 24 l 1,50,51
 365 27 365 27 365 43 c 2,52,-1
 365 272 l 2,53,54
 365 348 365 348 351.5 372.5 c 128,-1,55
 338 397 338 397 288.5 397 c 0,56,57
 239 397 239 397 205 344.5 c 128,-1,58
 171 292 171 292 171 210 c 2,59,-1
 171 43 l 2,60,61
 171 24 171 24 184 24 c 2,62,-1
 230 26 l 1,63,-1
 230 0 l 1,0,-1
EndSplineSet
EndChar

StartChar: n
Encoding: 110 110 81
Width: 525
GlyphClass: 2
Flags: HMW
HStem: 0 25 398 32<286.5 332.5>
VStem: 85 86<43 208 331 376 376 381.5> 369 86<43 270 270 288>
LayerCount: 2
Fore
SplineSet
230 0 m 1,0,-1
 35 0 l 1,1,-1
 35 26 l 1,2,-1
 72 24 l 1,3,4
 85 27 85 27 85 43 c 2,5,-1
 85 376 l 2,6,7
 85 393 85 393 72 396 c 1,8,-1
 35 394 l 1,9,-1
 35 420 l 1,10,-1
 176 420 l 1,11,12
 171 405 171 405 171 385 c 2,13,-1
 171 331 l 1,14,15
 192 377 192 377 231 403.5 c 128,-1,16
 270 430 270 430 331 430 c 0,17,18
 392 430 392 430 423.5 396.5 c 128,-1,19
 455 363 455 363 455 288 c 2,20,-1
 455 43 l 2,21,22
 455 24 455 24 468 24 c 2,23,-1
 505 26 l 1,24,-1
 505 0 l 1,25,-1
 310 0 l 1,26,-1
 310 26 l 1,27,-1
 356 24 l 1,28,29
 369 27 369 27 369 43 c 2,30,-1
 369 270 l 2,31,32
 369 341 369 341 357 369.5 c 128,-1,33
 345 398 345 398 302 398 c 0,34,35
 242 398 242 398 206.5 346 c 128,-1,36
 171 294 171 294 171 208 c 2,37,-1
 171 43 l 2,38,39
 171 24 171 24 184 24 c 2,40,-1
 230 26 l 1,41,-1
 230 0 l 1,0,-1
EndSplineSet
EndChar

StartChar: o
Encoding: 111 111 82
Width: 472
GlyphClass: 2
Flags: HMW
HStem: -10 27<196 276 196 303.5> 403 27<196 276>
VStem: 35 91<143.5 276.5 142.5 277> 346 91<143.5 276.5>
LayerCount: 2
Fore
SplineSet
86 48.5 m 128,-1,1
 35 107 35 107 35 210 c 128,-1,2
 35 313 35 313 86 371.5 c 128,-1,3
 137 430 137 430 236 430 c 128,-1,4
 335 430 335 430 386 371.5 c 128,-1,5
 437 313 437 313 437 210 c 128,-1,6
 437 107 437 107 386 48.5 c 128,-1,7
 335 -10 335 -10 236 -10 c 128,-1,0
 137 -10 137 -10 86 48.5 c 128,-1,1
151.5 357 m 128,-1,9
 126 311 126 311 126 209.5 c 128,-1,10
 126 108 126 108 151.5 62.5 c 128,-1,11
 177 17 177 17 236 17 c 128,-1,12
 295 17 295 17 320.5 62.5 c 128,-1,13
 346 108 346 108 346 209.5 c 128,-1,14
 346 311 346 311 320.5 357 c 128,-1,15
 295 403 295 403 236 403 c 128,-1,8
 177 403 177 403 151.5 357 c 128,-1,9
EndSplineSet
EndChar

StartChar: p
Encoding: 112 112 83
Width: 494
GlyphClass: 2
Flags: HMW
HStem: -239 25 -10 27<241.5 307 233.5 334.5> 403 27<253.5 313>
VStem: 69 86<-195 43 340 369> 368 91<136.5 279.5 136.5 281>
LayerCount: 2
Fore
SplineSet
56 396 m 2,0,-1
 20 394 l 1,1,-1
 20 420 l 1,2,-1
 159 420 l 1,3,4
 155 395 155 395 155 369 c 2,5,-1
 155 340 l 1,6,7
 186 430 186 430 287 430 c 0,8,9
 459 430 459 430 459 209 c 0,10,11
 459 99 459 99 412.5 44.5 c 128,-1,12
 366 -10 366 -10 275 -10 c 0,13,14
 184 -10 184 -10 155 43 c 1,15,-1
 155 -195 l 2,16,17
 155 -215 155 -215 168 -215 c 2,18,-1
 230 -213 l 1,19,-1
 230 -239 l 1,20,-1
 24 -239 l 1,21,-1
 24 -213 l 1,22,-1
 56 -215 l 1,23,24
 69 -214 69 -214 69 -195 c 2,25,-1
 69 376 l 2,26,27
 69 396 69 396 56 396 c 2,0,-1
157 226 m 2,28,-1
 157 184 l 2,29,30
 157 17 157 17 269 17 c 0,31,32
 326 17 326 17 347 58 c 128,-1,33
 368 99 368 99 368 209.5 c 0,34,35
 368 320 368 320 349 361.5 c 128,-1,36
 330 403 330 403 275 403 c 0,37,38
 220 403 220 403 188.5 354.5 c 128,-1,39
 157 306 157 306 157 226 c 2,28,-1
EndSplineSet
EndChar

StartChar: q
Encoding: 113 113 84
Width: 490
GlyphClass: 2
Flags: HMW
HStem: -239 26<270 470 270 270> -10 27<195.5 254> 403 27<194.5 252 159.5 274.5>
VStem: 35 92<125 279.5 125 281.5> 339 86<-195 62 62 62> 392 33<396.5 420>
LayerCount: 2
Fore
SplineSet
425 -195 m 2,0,1
 425 -215.857142857 425 -215.857142857 438 -214 c 1,2,-1
 470 -213 l 1,3,-1
 470 -239 l 1,4,-1
 270 -239 l 1,5,-1
 270 -213 l 1,6,-1
 326 -214 l 1,7,8
 339 -213 339 -213 339 -195 c 2,9,-1
 339 62 l 1,10,11
 328 32 328 32 297.5 11 c 128,-1,12
 267 -10 267 -10 222 -10 c 0,13,14
 127 -10 127 -10 81 38 c 128,-1,15
 35 86 35 86 35 209 c 0,16,17
 35 430 35 430 224 430 c 0,18,19
 266 430 266 430 292.5 417.5 c 128,-1,20
 319 405 319 405 341 375 c 0,21,22
 352 361 352 361 361 361 c 0,23,24
 392 361 392 361 392 420 c 1,25,-1
 425 420 l 1,26,-1
 425 -195 l 2,0,1
151.5 358.5 m 128,-1,28
 127 314 127 314 127 221 c 128,-1,29
 127 128 127 128 140 85 c 128,-1,30
 153 42 153 42 172.5 29.5 c 128,-1,31
 192 17 192 17 224 17 c 128,-1,32
 256 17 256 17 278.5 34.5 c 128,-1,33
 301 52 301 52 313 78.5 c 0,34,35
 337 131.5 337 131.5 337 185 c 2,36,-1
 337 226 l 2,37,38
 337 290.090909091 337 290.090909091 321.5 329.545454545 c 128,-1,39
 306 369 306 369 284 386 c 128,-1,40
 262 403 262 403 231 403 c 0,41,27
 176 403 176 403 151.5 358.5 c 128,-1,28
EndSplineSet
EndChar

StartChar: r
Encoding: 114 114 85
Width: 383
GlyphClass: 2
Flags: HMW
HStem: 0 25 324 106<270.5 343> 392 38<270.5 276.5>
VStem: 84 86<43 208 326 374> 293 76<369.5 379>
LayerCount: 2
Fore
SplineSet
289 350 m 1,0,-1
 293 375 l 1,1,2
 293 392 293 392 265 392 c 0,3,4
 223 392 223 392 196.5 330.5 c 128,-1,5
 170 269 170 269 170 208 c 2,6,-1
 170 43 l 2,7,8
 170 24 170 24 183 24 c 2,9,-1
 244 26 l 1,10,-1
 244 0 l 1,11,-1
 39 0 l 1,12,-1
 39 26 l 1,13,-1
 71 24 l 2,14,15
 84 24 84 24 84 43 c 2,16,-1
 84 376 l 2,17,18
 84 396 84 396 71 396 c 2,19,-1
 35 394 l 1,20,-1
 35 420 l 1,21,-1
 176 420 l 1,22,23
 170 404 170 404 170 374 c 2,24,-1
 170 326 l 1,25,26
 212 430 212 430 294 430 c 0,27,28
 330 430 330 430 349.5 414 c 128,-1,29
 369 398 369 398 369 370 c 0,30,31
 369 324 369 324 330 324 c 0,32,33
 289 324 289 324 289 350 c 1,0,-1
EndSplineSet
EndChar

StartChar: s
Encoding: 115 115 86
Width: 411
GlyphClass: 2
Flags: HMW
HStem: -10 27<198.5 246.5 181 260> 403 27<182 219 157 246>
VStem: 52 23 52 75<315.5 342> 304 74<81.5 111.5> 325 25
LayerCount: 2
Fore
SplineSet
44 10 m 1,0,-1
 49 142 l 1,1,-1
 75 144 l 1,2,3
 75 89 75 89 117.5 53 c 128,-1,4
 160 17 160 17 220 17 c 0,5,6
 260 17 260 17 282 37.5 c 128,-1,7
 304 58 304 58 304 89.5 c 0,8,9
 304 121 304 121 288 139 c 128,-1,10
 272 157 272 157 234 168 c 2,11,-1
 138 195 l 2,12,13
 98 207 98 207 75 235.5 c 128,-1,14
 52 264 52 264 52 312.5 c 0,15,16
 52 361 52 361 93 395.5 c 128,-1,17
 134 430 134 430 205 430 c 0,18,19
 232 430 232 430 274 419 c 2,20,-1
 302 412 l 1,21,22
 313 408 313 408 326.5 408 c 0,23,24
 340 408 340 408 353 416 c 1,25,-1
 347 302 l 1,26,-1
 325 302 l 1,27,28
 325 342 325 342 293.5 372.5 c 128,-1,29
 262 403 262 403 216 403 c 0,30,31
 170 403 170 403 148.5 383 c 128,-1,32
 127 363 127 363 127 332 c 0,33,34
 127 283 127 283 189 266 c 2,35,-1
 285 239 l 2,36,37
 336 225 336 225 357 197.5 c 128,-1,38
 378 170 378 170 378 126 c 0,39,40
 378 61 378 61 332 25.5 c 128,-1,41
 286 -10 286 -10 212 -10 c 0,42,43
 179 -10 179 -10 134 3 c 1,44,-1
 100 12 l 2,45,46
 85 16 85 16 69 16 c 0,47,48
 53 16 53 16 44 10 c 1,0,-1
EndSplineSet
EndChar

StartChar: t
Encoding: 116 116 87
Width: 313
GlyphClass: 2
Flags: HMW
HStem: -6 29<196.5 209.5> 395 25<25 62.5 25 85 25 62.5 171 281> 502 20G<143 171 171 171>
VStem: 85 86<96 395>
LayerCount: 2
Fore
SplineSet
85 395 m 1,0,-1
 25 395 l 1,1,-1
 25 420 l 1,2,3
 83 420 83 420 105.5 438.5 c 128,-1,4
 128 457 128 457 143 522 c 1,5,-1
 171 522 l 1,6,-1
 171 420 l 1,7,-1
 281 420 l 1,8,-1
 281 395 l 1,9,-1
 171 395 l 1,10,-1
 171 88 l 2,11,12
 171 50 171 50 180 36.5 c 128,-1,13
 189 23 189 23 208 23 c 0,14,15
 227 23 227 23 243 34.5 c 128,-1,16
 259 46 259 46 264 63 c 1,17,-1
 285 50 l 1,18,19
 265 -6 265 -6 179 -6 c 0,20,21
 128 -6 128 -6 106.5 18 c 128,-1,22
 85 42 85 42 85 96 c 2,23,-1
 85 395 l 1,0,-1
EndSplineSet
EndChar

StartChar: u
Encoding: 117 117 88
Width: 524
GlyphClass: 2
Flags: HMW
HStem: -10 33<190 232.5> 0 21G<347 489 347 347> 395 25
VStem: 69 86<148 376 376 382.5> 353 87<66.5 87 211 375 375 382>
LayerCount: 2
Fore
SplineSet
56 396 m 2,0,-1
 20 394 l 1,1,-1
 20 420 l 1,2,-1
 155 420 l 1,3,-1
 155 148 l 2,4,5
 155 80 155 80 167 51.5 c 128,-1,6
 179 23 179 23 216 23 c 0,7,8
 278 23 278 23 315.5 73.5 c 128,-1,9
 353 124 353 124 353 211 c 2,10,-1
 353 375 l 2,11,12
 353 396 353 396 341 396 c 2,13,-1
 294 394 l 1,14,-1
 294 420 l 1,15,-1
 440 420 l 1,16,-1
 440 43 l 2,17,18
 440 24 440 24 453 24 c 2,19,-1
 489 26 l 1,20,-1
 489 0 l 1,21,-1
 347 0 l 1,22,23
 353 14 353 14 353 87 c 1,24,25
 312 -10 312 -10 195 -10 c 0,26,27
 128 -10 128 -10 98.5 27 c 128,-1,28
 69 64 69 64 69 148 c 2,29,-1
 69 376 l 2,30,31
 69 396 69 396 56 396 c 2,0,-1
EndSplineSet
EndChar

StartChar: v
Encoding: 118 118 89
Width: 444
GlyphClass: 2
Flags: HMW
HStem: -5 21G<194 221 194 194> 395 25
LayerCount: 2
Fore
SplineSet
20 396 m 2,0,-1
 -13 394 l 1,1,-1
 -13 420 l 1,2,-1
 190 420 l 1,3,-1
 190 394 l 1,4,-1
 146 396 l 2,5,6
 139 396 139 396 133.5 390 c 128,-1,7
 128 384 128 384 131 376 c 2,8,-1
 240 112 l 1,9,-1
 346 380 l 2,10,11
 349 385 349 385 347.5 391 c 128,-1,12
 346 397 346 397 338 396 c 2,13,-1
 294 394 l 1,14,-1
 294 420 l 1,15,-1
 435 420 l 1,16,-1
 435 394 l 1,17,-1
 402 396 l 1,18,19
 384 396 384 396 379 381 c 1,20,-1
 221 -5 l 1,21,-1
 194 -5 l 1,22,-1
 40 383 l 2,23,24
 34 396 34 396 20 396 c 2,0,-1
EndSplineSet
EndChar

StartChar: w
Encoding: 119 119 90
Width: 725
GlyphClass: 2
Flags: HMW
HStem: -10 21G<191 211 191 191 483 505 483 483> 395 25 405 20G<372 393 393 393>
LayerCount: 2
Fore
SplineSet
33 396 m 2,0,-1
 -13 394 l 1,1,-1
 -13 420 l 1,2,-1
 200 420 l 1,3,-1
 200 394 l 1,4,-1
 156 396 l 2,5,6
 145 397 145 397 141.5 391 c 128,-1,7
 138 385 138 385 141 376 c 2,8,-1
 235 110 l 1,9,-1
 372 425 l 1,10,-1
 393 425 l 1,11,-1
 525 117 l 1,12,-1
 621 379 l 2,13,14
 624 385 624 385 622 391 c 128,-1,15
 620 397 620 397 610 396 c 2,16,-1
 557 394 l 1,17,-1
 557 420 l 1,18,-1
 716 420 l 1,19,-1
 716 394 l 1,20,-1
 675 396 l 2,21,22
 660 396 660 396 654 379 c 2,23,-1
 505 -10 l 1,24,-1
 483 -10 l 1,25,-1
 350 301 l 1,26,-1
 211 -10 l 1,27,-1
 191 -10 l 1,28,-1
 50 383 l 1,29,30
 44 396 44 396 33 396 c 2,0,-1
EndSplineSet
EndChar

StartChar: x
Encoding: 120 120 91
Width: 486
GlyphClass: 2
Flags: HMW
HStem: 0 25 395 25
LayerCount: 2
Fore
SplineSet
157 0 m 1,0,-1
 5 0 l 1,1,-1
 5 26 l 1,2,-1
 48 24 l 2,3,4
 59 24 59 24 69 37 c 2,5,-1
 195 207 l 1,6,-1
 69 383 l 1,7,8
 62 396 62 396 50 396 c 2,9,-1
 11 394 l 1,10,-1
 11 420 l 1,11,-1
 226 420 l 1,12,-1
 226 394 l 1,13,-1
 180 396 l 2,14,15
 173 396 173 396 170 392.5 c 128,-1,16
 167 389 167 389 171 383 c 2,17,-1
 257 261 l 1,18,-1
 346 379 l 2,19,20
 350 384 350 384 349 390 c 128,-1,21
 348 396 348 396 340 396 c 2,22,-1
 297 394 l 1,23,-1
 297 420 l 1,24,-1
 446 420 l 1,25,-1
 446 394 l 1,26,-1
 404 396 l 2,27,28
 391 396 391 396 379 381 c 2,29,-1
 274 238 l 1,30,-1
 415 37 l 2,31,32
 424 24 424 24 434 24 c 2,33,-1
 478 26 l 1,34,-1
 478 0 l 1,35,-1
 257 0 l 1,36,-1
 257 26 l 1,37,-1
 306 23 l 2,38,39
 312 22 312 22 314 27.5 c 128,-1,40
 316 33 316 33 313 37 c 2,41,-1
 212 183 l 1,42,-1
 103 38 l 2,43,44
 101 36 101 36 101 34 c 0,45,46
 101 24 101 24 114 24 c 2,47,-1
 157 26 l 1,48,-1
 157 0 l 1,0,-1
EndSplineSet
EndChar

StartChar: y
Encoding: 121 121 92
Width: 485
GlyphClass: 2
Flags: HMW
HStem: -239 58<107 111.5> -239 100<67.5 78.5 48.5 111.5> 395 25
LayerCount: 2
Fore
SplineSet
36 396 m 2,0,-1
 -13 394 l 1,1,-1
 -13 420 l 1,2,-1
 206 420 l 1,3,-1
 206 394 l 1,4,-1
 161 396 l 2,5,6
 154 396 154 396 150 390.5 c 128,-1,7
 146 385 146 385 149 379 c 2,8,-1
 271 109 l 1,9,-1
 384 381 l 2,10,11
 390 396 390 396 374 396 c 2,12,-1
 327 394 l 1,13,-1
 327 420 l 1,14,-1
 482 420 l 1,15,-1
 482 394 l 1,16,-1
 441 396 l 1,17,-1
 439 396 l 2,18,19
 423 396 423 396 414 377 c 1,20,-1
 203 -132 l 2,21,22
 179 -191 179 -191 152 -215 c 128,-1,23
 125 -239 125 -239 91.5 -239 c 0,24,25
 58 -239 58 -239 39.5 -226 c 128,-1,26
 21 -213 21 -213 19 -190 c 1,27,28
 19 -165 19 -165 30.5 -152 c 128,-1,29
 42 -139 42 -139 58.5 -139 c 0,30,31
 75 -139 75 -139 85 -149.5 c 128,-1,32
 95 -160 95 -160 102.5 -170.5 c 128,-1,33
 110 -181 110 -181 121 -181 c 0,34,35
 149 -181 149 -181 167 -135 c 1,36,-1
 226 1 l 1,37,-1
 52 383 l 2,38,39
 46 396 46 396 36 396 c 2,0,-1
EndSplineSet
EndChar

StartChar: z
Encoding: 122 122 93
Width: 441
GlyphClass: 2
Flags: HMW
HStem: -2 21G<34 40> 0 25<112.5 248 143 190 190 248 248 290> 395 25<151 185 185 201 201 283> 402 20G<54 56>
VStem: 377 21<101 139>
LayerCount: 2
Fore
SplineSet
138 0 m 1,0,-1
 34 -2 l 1,1,-1
 34 18 l 1,2,-1
 283 395 l 1,3,-1
 185 395 l 2,4,5
 84 395 84 395 66 280 c 1,6,-1
 45 280 l 1,7,-1
 54 422 l 1,8,-1
 68 421.5 l 2,9,10
 110 420 110 420 150 420 c 2,11,-1
 388 420 l 1,12,-1
 388 401 l 1,13,-1
 143 25 l 1,14,-1
 248 25 l 2,15,16
 377 25 377 25 377 139 c 1,17,-1
 398 139 l 1,18,-1
 398 0 l 1,19,-1
 138 0 l 1,0,-1
EndSplineSet
EndChar

StartChar: braceleft
Encoding: 123 123 94
Width: 280
GlyphClass: 2
Flags: HMW
HStem: -146 30<161 235 208 235 208 235> 645 30<201 208 208 235>
VStem: 102 67<-53 176 358 582 582 589> 102 133<-146 176>
LayerCount: 2
Fore
SplineSet
30 257 m 1,0,-1
 30 277 l 1,1,2
 70 283 70 283 86 301 c 128,-1,3
 102 319 102 319 102 358 c 2,4,-1
 102 582 l 2,5,6
 102 636 102 636 122.5 655.5 c 128,-1,7
 143 675 143 675 201 675 c 2,8,-1
 235 675 l 1,9,-1
 235 645 l 1,10,-1
 208 645 l 2,11,12
 169 645 169 645 169 589 c 2,13,-1
 169 358 l 2,14,15
 169 312 169 312 149.5 294.5 c 128,-1,16
 130 277 130 277 73 267 c 1,17,18
 131 255 131 255 150 238 c 128,-1,19
 169 221 169 221 169 176 c 2,20,-1
 169 -60 l 2,21,22
 169 -116 169 -116 208 -116 c 2,23,-1
 235 -116 l 1,24,-1
 235 -146 l 1,25,-1
 201 -146 l 2,26,27
 142 -146 142 -146 122 -127 c 128,-1,28
 102 -108 102 -108 102 -53 c 2,29,-1
 102 176 l 2,30,31
 102 220 102 220 89 233.5 c 128,-1,32
 76 247 76 247 30 257 c 1,0,-1
EndSplineSet
EndChar

StartChar: bar
Encoding: 124 124 95
Width: 232
GlyphClass: 2
Flags: HMW
HStem: -239 21G<98 134 98 98> 710 20G<98 134 134 134>
VStem: 98 36<-239 730>
LayerCount: 2
Fore
SplineSet
134 -239 m 1,0,-1
 98 -239 l 1,1,-1
 98 730 l 1,2,-1
 134 730 l 1,3,-1
 134 -239 l 1,0,-1
EndSplineSet
EndChar

StartChar: braceright
Encoding: 125 125 96
Width: 290
GlyphClass: 2
Flags: HMW
HStem: -146 30<45 82 45 82 82 89> 645 30<45 82 45 89>
VStem: 45 143<-146 -53 -116 -53> 121 67<-60 -53 -53 176 358 582>
LayerCount: 2
Fore
SplineSet
45 -146 m 1,0,-1
 45 -116 l 1,1,-1
 82 -116 l 2,2,3
 121 -116 121 -116 121 -60 c 2,4,-1
 121 176 l 2,5,6
 121 221 121 221 140 238 c 128,-1,7
 159 255 159 255 217 267 c 1,8,9
 160 277 160 277 140.5 294.5 c 128,-1,10
 121 312 121 312 121 358 c 2,11,-1
 121 589 l 2,12,13
 121 645 121 645 82 645 c 2,14,-1
 45 645 l 1,15,-1
 45 675 l 1,16,-1
 89 675 l 2,17,18
 147 675 147 675 167.5 655.5 c 128,-1,19
 188 636 188 636 188 582 c 2,20,-1
 188 358 l 2,21,22
 188 319 188 319 204 301 c 128,-1,23
 220 283 220 283 260 277 c 1,24,-1
 260 257 l 1,25,26
 214 247 214 247 201 233.5 c 128,-1,27
 188 220 188 220 188 176 c 2,28,-1
 188 -53 l 2,29,30
 188 -108 188 -108 168 -127 c 128,-1,31
 148 -146 148 -146 89 -146 c 2,32,-1
 45 -146 l 1,0,-1
EndSplineSet
EndChar

StartChar: asciitilde
Encoding: 126 126 97
Width: 460
GlyphClass: 2
Flags: HMW
HStem: 215 48<294.5 341.5 294.5 347> 280 48<114.5 161.5>
LayerCount: 2
Fore
SplineSet
49 226 m 1,0,-1
 22 255 l 1,1,2
 65 328 65 328 131 328 c 0,3,4
 164 328 164 328 229.5 295.5 c 128,-1,5
 295 263 295 263 322.5 263 c 0,6,7
 350 263 350 263 369 276 c 128,-1,8
 388 289 388 289 411 322 c 1,9,-1
 439 293 l 1,10,11
 392 215 392 215 325 215 c 0,12,13
 293 215 293 215 227 247.5 c 128,-1,14
 161 280 161 280 133 280 c 0,15,16
 105 280 105 280 88.5 269.5 c 128,-1,17
 72 259 72 259 49 226 c 1,0,-1
EndSplineSet
EndChar

StartChar: exclamdown
Encoding: 161 161 99
Width: 269
GlyphClass: 2
Flags: HMW
HStem: -242 21G<98.5 130> 330 115<97.5 131.5 97.5 133>
VStem: 50 129<372 403> 65 99<-208.5 -176.5> 103 23<195 223.5>
LayerCount: 2
Fore
SplineSet
50 387 m 128,-1,1
 50 411 50 411 69.5 428 c 128,-1,2
 89 445 89 445 114.5 445 c 128,-1,3
 140 445 140 445 159.5 428 c 128,-1,4
 179 411 179 411 179 387.5 c 128,-1,5
 179 364 179 364 160.5 347 c 128,-1,6
 142 330 142 330 115 330 c 128,-1,7
 88 330 88 330 69 346.5 c 128,-1,0
 50 363 50 363 50 387 c 128,-1,1
145 -34 m 1,8,9
 164 -139 164 -139 164 -190.5 c 128,-1,10
 164 -242 164 -242 114.5 -242 c 128,-1,11
 65 -242 65 -242 65 -190.5 c 128,-1,12
 65 -139 65 -139 84 -34 c 1,13,14
 103 105 103 105 103 218 c 0,15,16
 103 234 103 234 114.5 234 c 128,-1,17
 126 234 126 234 126 218 c 0,18,19
 126 105 126 105 145 -34 c 1,8,9
EndSplineSet
EndChar

StartChar: cent
Encoding: 162 162 100
Width: 394
GlyphClass: 2
Flags: HMW
HStem: -95 21G<206 243 206 206> 115 22<206 206> 445 22<206 206 206 224.5> 627 20G<206 243 243 243>
VStem: 51 76<237.5 343.5> 206 37<-95 115 115 115 467 647> 273 59<395.5 404.5 373 418.5>
LayerCount: 2
Fore
SplineSet
92 163 m 128,-1,1
 51 209 51 209 51 289.5 c 128,-1,2
 51 370 51 370 93.5 418 c 128,-1,3
 136 466 136 466 206 467 c 1,4,-1
 206 647 l 1,5,-1
 243 647 l 1,6,-1
 243 464 l 1,7,8
 283 455 283 455 307.5 434 c 128,-1,9
 332 413 332 413 332 390 c 128,-1,10
 332 367 332 367 322 356 c 128,-1,11
 312 345 312 345 297 345 c 0,12,13
 263 345 263 345 263 368 c 0,14,15
 263 376 263 376 268 385.5 c 128,-1,16
 273 395 273 395 273 409.5 c 128,-1,17
 273 424 273 424 254 434.5 c 128,-1,18
 235 445 235 445 208 445 c 0,19,20
 164 445 164 445 145.5 408.5 c 128,-1,21
 127 372 127 372 127 288 c 0,22,23
 127 137 127 137 218 137 c 0,24,25
 255 137 255 137 285.5 161 c 128,-1,26
 316 185 316 185 327 222 c 1,27,-1
 347 209 l 1,28,29
 324 131 324 131 243 117 c 1,30,-1
 243 -95 l 1,31,-1
 206 -95 l 1,32,-1
 206 115 l 1,33,0
 133 117 133 117 92 163 c 128,-1,1
EndSplineSet
EndChar

StartChar: sterling
Encoding: 163 163 101
Width: 507
GlyphClass: 2
Flags: HMW
HStem: -3 21G<21 25.5 445.5 454> 0 73<103.5 308 130 308 308 360.5 130 376> 306 23<36 116 36 116 212 212 212 331> 480 127<229.5 386.5> 584 23<259.5 305>
VStem: 116 79<329 517 410 517> 116 96<199 226 226 306 199 306> 343 74<509.5 559.5> 439 20
LayerCount: 2
Fore
SplineSet
454 -3 m 1,0,-1
 376 0 l 1,1,-1
 120 0 l 2,2,3
 100 0 100 0 61 -1.5 c 128,-1,4
 22 -3 22 -3 21 -3 c 1,5,6
 64 21 64 21 90 64.5 c 128,-1,7
 116 108 116 108 116 156 c 2,8,-1
 116 306 l 1,9,-1
 36 306 l 1,10,-1
 36 329 l 1,11,-1
 116 329 l 1,12,-1
 116 410 l 2,13,14
 116 513 116 513 157.5 560 c 128,-1,15
 199 607 199 607 292 607 c 0,16,17
 345 607 345 607 381 582 c 128,-1,18
 417 557 417 557 417 520 c 0,19,20
 417 504 417 504 404.5 492 c 128,-1,21
 392 480 392 480 376 480 c 128,-1,22
 360 480 360 480 347.5 490 c 128,-1,23
 335 500 335 500 335 510 c 128,-1,24
 335 520 335 520 339 531 c 1,25,-1
 343 547 l 1,26,27
 343 584 343 584 286 584 c 0,28,29
 246 584 246 584 220.5 557.5 c 128,-1,30
 195 531 195 531 195 487 c 1,31,-1
 201 442 l 2,32,33
 205 409 205 409 206 396 c 2,34,-1
 210 356 l 2,35,36
 211 345 211 345 211 329 c 1,37,-1
 331 329 l 1,38,-1
 331 306 l 1,39,-1
 212 306 l 1,40,-1
 212 226 l 2,41,42
 212 186 212 186 185.5 137.5 c 128,-1,43
 159 89 159 89 130 73 c 1,44,-1
 308 73 l 2,45,46
 386 73 386 73 412.5 92.5 c 128,-1,47
 439 112 439 112 439 168 c 1,48,-1
 464 168 l 1,49,-1
 454 -3 l 1,0,-1
EndSplineSet
EndChar

StartChar: currency
Encoding: 164 164 102
Width: 443
GlyphClass: 2
Flags: HMW
HStem: 83 21G<378 378> 94 32<201.5 242.5> 403 32<201.5 243.5 201.5 260.5> 423 20G<66 66>
VStem: 52 31<244.5 285.5> 361 32<243.5 285 243.5 303>
LayerCount: 2
Fore
SplineSet
65 84 m 1,0,-1
 42 107 l 1,1,-1
 91 156 l 1,2,3
 52 202 52 202 52 263 c 128,-1,4
 52 324 52 324 90 373 c 1,5,-1
 43 420 l 1,6,-1
 66 443 l 1,7,-1
 113 396 l 1,8,9
 163 435 163 435 222.5 435 c 128,-1,10
 282 435 282 435 332 395 c 1,11,-1
 379 442 l 1,12,-1
 402 419 l 1,13,-1
 354 372 l 1,14,15
 393 322 393 322 393 264.5 c 128,-1,16
 393 207 393 207 353 155 c 1,17,-1
 401 106 l 1,18,-1
 378 83 l 1,19,-1
 330 132 l 1,20,21
 281 94 281 94 221 94 c 128,-1,22
 161 94 161 94 114 133 c 1,23,-1
 65 84 l 1,0,-1
124 362.5 m 128,-1,25
 83 322 83 322 83 264.5 c 128,-1,26
 83 207 83 207 124 166.5 c 128,-1,27
 165 126 165 126 222.5 126 c 128,-1,28
 280 126 280 126 320.5 166.5 c 128,-1,29
 361 207 361 207 361 264.5 c 128,-1,30
 361 322 361 322 320.5 362.5 c 128,-1,31
 280 403 280 403 222.5 403 c 128,-1,24
 165 403 165 403 124 362.5 c 128,-1,25
EndSplineSet
EndChar

StartChar: yen
Encoding: 165 165 103
Width: 507
GlyphClass: 2
Flags: HMW
HStem: 0 28 202 29<88 220 88 220 313 445> 312 29<88 173 88 190 88 173 343 445> 568 29
VStem: 220 93<49 202 231 263 263 263>
LayerCount: 2
Fore
SplineSet
22 569 m 2,0,-1
 -5 567 l 1,1,-1
 -5 597 l 1,2,-1
 216 597 l 1,3,-1
 216 567 l 1,4,-1
 163 569 l 2,5,6
 153 570 153 570 151.5 561.5 c 128,-1,7
 150 553 150 553 156 545 c 1,8,-1
 293 317 l 1,9,-1
 424 549 l 1,10,11
 434 569 434 569 417 569 c 2,12,-1
 365 567 l 1,13,-1
 365 597 l 1,14,-1
 517 597 l 1,15,-1
 517 567 l 1,16,-1
 488 569 l 2,17,18
 487.304347826 569.043478261 487.304347826 569.043478261 486.61436673 569.043478261 c 0,19,20
 471.434782609 569.043478261 471.434782609 569.043478261 459 548 c 2,21,-1
 343 341 l 1,22,-1
 445 341 l 1,23,-1
 445 312 l 1,24,-1
 326 312 l 1,25,-1
 313 288 l 1,26,-1
 313 231 l 1,27,-1
 445 231 l 1,28,-1
 445 202 l 1,29,-1
 313 202 l 1,30,-1
 313 48 l 2,31,32
 313 27 313 27 333 27 c 2,33,-1
 381 29 l 1,34,-1
 381 0 l 1,35,-1
 152 0 l 1,36,-1
 152 29 l 1,37,-1
 201 27 l 2,38,39
 220 27 220 27 220 49 c 2,40,-1
 220 202 l 1,41,-1
 88 202 l 1,42,-1
 88 231 l 1,43,-1
 220 231 l 1,44,-1
 220 263 l 1,45,-1
 190 312 l 1,46,-1
 88 312 l 1,47,-1
 88 341 l 1,48,-1
 173 341 l 1,49,-1
 47 550 l 2,50,51
 36.5238095238 569.047619048 36.5238095238 569.047619048 23.3265306122 569.047619048 c 0,52,53
 22.6666666667 569.047619048 22.6666666667 569.047619048 22 569 c 2,0,-1
EndSplineSet
EndChar

StartChar: brokenbar
Encoding: 166 166 104
Width: 232
GlyphClass: 2
Flags: HMW
HStem: -231 21G<97 97 97 135> 587 20G<97 135 135 135>
VStem: 97 38<-231 113 -231 113 265 607>
LayerCount: 2
Fore
SplineSet
97 -231 m 1,0,-1
 97 113 l 1,1,-1
 135 113 l 1,2,-1
 135 -231 l 1,3,-1
 97 -231 l 1,0,-1
135 265 m 1,4,-1
 97 265 l 1,5,-1
 97 607 l 1,6,-1
 135 607 l 1,7,-1
 135 265 l 1,4,-1
EndSplineSet
EndChar

StartChar: section
Encoding: 167 167 105
Width: 437
GlyphClass: 2
Flags: HMW
HStem: -137 25<193 240.5 193 256> -137 151<93 256> 458 149<184 349.5> 584 23<202.5 246.5>
VStem: 35 65<232.5 313.5> 56 74<-71 -61.5 -84.5 -27.5> 56 94<-32.5 -27.5> 292 88 306 74<-43 -22> 339 68<159.5 238.5>
LayerCount: 2
Fore
SplineSet
35 254 m 0,0,1
 35 295 35 295 55.5 320.5 c 128,-1,2
 76 346 76 346 124 365 c 1,3,4
 87 392 87 392 74.5 415 c 128,-1,5
 62 438 62 438 62 477 c 0,6,7
 62 535 62 535 110 571 c 128,-1,8
 158 607 158 607 231 607 c 0,9,10
 304 607 304 607 345 582 c 128,-1,11
 386 557 386 557 386 511 c 0,12,13
 386 490 386 490 371 474 c 128,-1,14
 356 458 356 458 336.5 458 c 0,15,16
 317 458 317 458 304.5 468 c 128,-1,17
 292 478 292 478 292 487.5 c 0,18,19
 292 497 292 497 302 514.5 c 128,-1,20
 312 532 312 532 312 546 c 128,-1,21
 312 560 312 560 284.5 572 c 128,-1,22
 257 584 257 584 223 584 c 0,23,24
 189 584 189 584 163 564 c 128,-1,25
 137 544 137 544 137 513 c 0,26,27
 137 482 137 482 147.5 467.5 c 128,-1,28
 158 453 158 453 195 428 c 2,29,-1
 319 343 l 2,30,31
 407 283 407 283 407 217 c 0,32,33
 407 138 407 138 318 106 c 1,34,35
 351 81 351 81 365.5 56 c 128,-1,36
 380 31 380 31 380 -5 c 0,37,38
 380 -62 380 -62 330.5 -99.5 c 128,-1,39
 281 -137 281 -137 210 -137 c 0,40,41
 139 -137 139 -137 97.5 -111 c 128,-1,42
 56 -85 56 -85 56 -41 c 0,43,44
 56 -20 56 -20 71 -3 c 128,-1,45
 86 14 86 14 106 14 c 0,46,47
 126 14 126 14 138 4.5 c 128,-1,48
 150 -5 150 -5 150 -18.5 c 0,49,50
 150 -32 150 -32 140 -46.5 c 128,-1,51
 130 -61 130 -61 130 -75 c 128,-1,52
 130 -89 130 -89 156 -100.5 c 128,-1,53
 182 -112 182 -112 218 -112 c 0,54,55
 254 -112 254 -112 280 -92 c 128,-1,56
 306 -72 306 -72 306 -43 c 0,57,58
 306 -14 306 -14 295 1 c 128,-1,59
 284 16 284 16 247 43 c 1,60,-1
 123 129 l 2,61,62
 35 189 35 189 35 254 c 0,0,1
100 302 m 0,63,64
 100 256 100 256 144 227 c 1,65,-1
 294 124 l 1,66,67
 319 130 319 130 329 141 c 128,-1,68
 339 152 339 152 339 174 c 0,69,70
 339 217 339 217 299 245 c 2,71,-1
 148 348 l 1,72,73
 100 336 100 336 100 302 c 0,63,64
EndSplineSet
EndChar

StartChar: dieresis
Encoding: 168 168 106
Width: 447
GlyphClass: 2
Flags: HMW
HStem: 520 97<115.5 145.5 115.5 146.5 310.5 340.5>
VStem: 77 108<553.5 582> 272 108<553.5 582>
LayerCount: 2
Fore
SplineSet
77 568 m 128,-1,1
 77 589 77 589 92.5 603 c 128,-1,2
 108 617 108 617 130.5 617 c 0,3,4
 153 617 153 617 169 603 c 128,-1,5
 185 589 185 589 185 568 c 128,-1,6
 185 547 185 547 170 533.5 c 128,-1,7
 155 520 155 520 131 520 c 128,-1,8
 107 520 107 520 92 533.5 c 128,-1,0
 77 547 77 547 77 568 c 128,-1,1
272 568 m 128,-1,10
 272 589 272 589 287.5 603 c 128,-1,11
 303 617 303 617 325.5 617 c 0,12,13
 348 617 348 617 364 603 c 128,-1,14
 380 589 380 589 380 568 c 128,-1,15
 380 547 380 547 365 533.5 c 128,-1,16
 350 520 350 520 326 520 c 128,-1,17
 302 520 302 520 287 533.5 c 128,-1,9
 272 547 272 547 272 568 c 128,-1,10
EndSplineSet
EndChar

StartChar: copyright
Encoding: 169 169 107
Width: 673
GlyphClass: 2
Flags: HMW
HStem: -11 30<269.5 410.5 269.5 419.5> -11 130<312.5 372.5 312.5 419.5> 434 126<313 373.5> 530 30<269.5 410.5>
VStem: 56 32<203.5 344.5 203.5 352.5> 181 57<228 278> 593 34<203.5 344.5>
LayerCount: 2
Fore
SplineSet
56 274 m 128,-1,1
 56 392 56 392 139.5 476 c 128,-1,2
 223 560 223 560 341 560 c 128,-1,3
 459 560 459 560 543 476 c 128,-1,4
 627 392 627 392 627 274 c 128,-1,5
 627 156 627 156 543 72.5 c 128,-1,6
 459 -11 459 -11 341 -11 c 128,-1,7
 223 -11 223 -11 139.5 72.5 c 128,-1,0
 56 156 56 156 56 274 c 128,-1,1
88 274 m 128,-1,9
 88 168 88 168 161.5 93.5 c 128,-1,10
 235 19 235 19 340.5 19 c 128,-1,11
 446 19 446 19 519.5 93.5 c 128,-1,12
 593 168 593 168 593 274 c 128,-1,13
 593 380 593 380 519 455 c 128,-1,14
 445 530 445 530 340 530 c 128,-1,15
 235 530 235 530 161.5 455 c 128,-1,8
 88 380 88 380 88 274 c 128,-1,9
464 366.5 m 2,16,17
 464 360 464 360 465 350 c 1,18,-1
 453 350 l 1,19,20
 445 387 445 387 415.5 410.5 c 128,-1,21
 386 434 386 434 341 434 c 128,-1,22
 296 434 296 434 267 389.5 c 128,-1,23
 238 345 238 345 238 275 c 128,-1,24
 238 205 238 205 267.5 162 c 128,-1,25
 297 119 297 119 341 119 c 128,-1,26
 385 119 385 119 415 142 c 128,-1,27
 445 165 445 165 453 201 c 1,28,-1
 469 201 l 1,29,30
 463 167 463 167 463 154 c 128,-1,31
 463 141 463 141 465 127 c 1,32,-1
 462 127 l 2,33,34
 446 127 446 127 406 116 c 128,-1,35
 366 105 366 105 347 105 c 0,36,37
 267 105 267 105 224 150.5 c 128,-1,38
 181 196 181 196 181 278 c 1,39,40
 183 359 183 359 226 403.5 c 128,-1,41
 269 448 269 448 346 448 c 0,42,43
 393 448 393 448 421.433333333 435.366666667 c 128,-1,44
 449.866666667 422.733333333 449.866666667 422.733333333 457.566666667 422.733333333 c 128,-1,45
 465.266666667 422.733333333 465.266666667 422.733333333 467 423 c 1,46,47
 464 402 464 402 464 387.5 c 2,48,-1
 464 366.5 l 2,16,17
EndSplineSet
EndChar

StartChar: ordfeminine
Encoding: 170 170 108
Width: 262
GlyphClass: 2
Flags: HMW
HStem: 342 31<89.5 105.5> 482 23<130 166> 529 86<32.5 152.5> 592 23<94.5 131.5>
VStem: 11 62<550.5 571.5 548.5 577.5> 166 60<457 482 482 482 505 527>
LayerCount: 2
Fore
SplineSet
0 411 m 0,0,1
 0 459 0 459 40 482 c 128,-1,2
 80 505 80 505 166 505 c 1,3,-1
 166 542 l 2,4,5
 166 592 166 592 114 592 c 0,6,7
 86 592 86 592 79.5 586 c 128,-1,8
 73 580 73 580 73 558 c 0,9,10
 73 529 73 529 42 529 c 0,11,12
 11 529 11 529 11 561 c 0,13,14
 11 615 11 615 114 615 c 0,15,16
 172 615 172 615 199 594 c 128,-1,17
 226 573 226 573 226 527 c 2,18,-1
 226 380 l 2,19,20
 226 373 226 373 232 373 c 2,21,-1
 262 374 l 1,22,-1
 262 350 l 1,23,-1
 167 350 l 1,24,-1
 170 397 l 1,25,26
 148 342 148 342 84 342 c 0,27,28
 0 342 0 342 0 411 c 0,0,1
63 416 m 0,29,30
 63 373 63 373 101 373 c 0,31,32
 127 373 127 373 146.5 397.5 c 128,-1,33
 166 422 166 422 166 457 c 2,34,-1
 166 482 l 1,35,36
 63 482 63 482 63 416 c 0,29,30
EndSplineSet
EndChar

StartChar: guillemotleft
Encoding: 171 171 109
Width: 457
GlyphClass: 2
Flags: HMW
HStem: 16 21G<175 175 175 211 342 377 342 342> 338 20G<175 211 211 211 342 377 377 377>
LayerCount: 2
Fore
SplineSet
175 16 m 1,0,-1
 26 187 l 1,1,-1
 175 358 l 1,2,-1
 211 358 l 1,3,-1
 113 187 l 1,4,-1
 211 16 l 1,5,-1
 175 16 l 1,0,-1
342 16 m 1,6,-1
 193 187 l 1,7,-1
 342 358 l 1,8,-1
 377 358 l 1,9,-1
 280 187 l 1,10,-1
 377 16 l 1,11,-1
 342 16 l 1,6,-1
EndSplineSet
EndChar

StartChar: logicalnot
Encoding: 172 172 110
Width: 460
GlyphClass: 2
Flags: HMW
HStem: 146 21G<397 440 397 397> 319 41<20 397 20 440>
VStem: 397 43<146 319 319 319>
LayerCount: 2
Fore
SplineSet
397 319 m 1,0,-1
 20 319 l 1,1,-1
 20 360 l 1,2,-1
 440 360 l 1,3,-1
 440 146 l 1,4,-1
 397 146 l 1,5,-1
 397 319 l 1,0,-1
EndSplineSet
EndChar

StartChar: uni00AD
Encoding: 173 173 111
Width: 249
GlyphClass: 2
Flags: HMW
HStem: 189 55<22 228 22 228>
LayerCount: 2
Fore
SplineSet
228 189 m 1,0,-1
 22 189 l 1,1,-1
 22 244 l 1,2,-1
 228 244 l 1,3,-1
 228 189 l 1,0,-1
EndSplineSet
EndChar

StartChar: registered
Encoding: 174 174 112
Width: 673
GlyphClass: 2
Flags: HMW
HStem: -11 30<269.5 410.5 269.5 419.5> -11 144<204 419.5> 118 173<300 326 326 339 204 326 300 463 300 510> 272 184<300 331.5> 438 122<204 419.5> 530 30<269.5 410.5>
VStem: 56 32<203.5 344.5 203.5 352.5> 244 56<158 272 148 291 291 409> 416 55<348.5 387.5> 593 34<203.5 344.5>
LayerCount: 2
Fore
SplineSet
56 274 m 128,-1,1
 56 392 56 392 139.5 476 c 128,-1,2
 223 560 223 560 341 560 c 128,-1,3
 459 560 459 560 543 476 c 128,-1,4
 627 392 627 392 627 274 c 128,-1,5
 627 156 627 156 543 72.5 c 128,-1,6
 459 -11 459 -11 341 -11 c 128,-1,7
 223 -11 223 -11 139.5 72.5 c 128,-1,0
 56 156 56 156 56 274 c 128,-1,1
88 274 m 128,-1,9
 88 168 88 168 161.5 93.5 c 128,-1,10
 235 19 235 19 340.5 19 c 128,-1,11
 446 19 446 19 519.5 93.5 c 128,-1,12
 593 168 593 168 593 274 c 128,-1,13
 593 380 593 380 519 455 c 128,-1,14
 445 530 445 530 340 530 c 128,-1,15
 235 530 235 530 161.5 455 c 128,-1,8
 88 380 88 380 88 274 c 128,-1,9
243 144.5 m 2,16,-1
 244 158 l 1,17,-1
 244 414 l 2,18,19
 244 427 244 427 236 432.5 c 128,-1,20
 228 438 228 438 204 438 c 1,21,-1
 204 456 l 1,22,-1
 363 456 l 2,23,24
 415 456 415 456 443 434.5 c 128,-1,25
 471 413 471 413 471 375 c 128,-1,26
 471 337 471 337 446.5 312 c 128,-1,27
 422 287 422 287 381 282 c 1,28,29
 405 279 405 279 420 256 c 1,30,-1
 454 192 l 2,31,32
 463 174 463 174 469 163.5 c 128,-1,33
 475 153 475 153 478.5 146 c 128,-1,34
 482 139 482 139 487 136.5 c 128,-1,35
 492 134 492 134 493 133 c 128,-1,36
 494 132 494 132 501 132.5 c 128,-1,37
 508 133 508 133 510 133 c 1,38,-1
 510 118 l 1,39,-1
 463 118 l 2,40,41
 442 118 442 118 433.5 123.5 c 128,-1,42
 425 129 425 129 414 154 c 2,43,-1
 393 200 l 2,44,45
 371 249 371 249 358 260.5 c 128,-1,46
 345 272 345 272 300 272 c 1,47,-1
 300 148 l 1,48,-1
 305 138 l 1,49,-1
 315 134 l 1,50,-1
 339 134 l 1,51,-1
 339 118 l 1,52,-1
 204 118 l 1,53,-1
 204 133 l 1,54,55
 215 133 215 133 222.5 133 c 128,-1,56
 230 133 230 133 231.5 133.5 c 128,-1,57
 233 134 233 134 235.5 135 c 128,-1,58
 238 136 238 136 239 137 c 0,59,60
 243 141 243 141 243 144.5 c 2,16,-1
300 409 m 2,61,-1
 300 291 l 1,62,-1
 326 291 l 2,63,64
 416 291 416 291 416 363.5 c 128,-1,65
 416 436 416 436 339 436 c 0,66,67
 314 436 314 436 307 432 c 128,-1,68
 300 428 300 428 300 409 c 2,61,-1
EndSplineSet
EndChar

StartChar: overscore
Encoding: 175 175 113
Width: 447
GlyphClass: 2
Flags: HMW
HStem: 567 40<104 343 104 343>
LayerCount: 2
Fore
SplineSet
343 567 m 1,0,-1
 104 567 l 1,1,-1
 104 607 l 1,2,-1
 343 607 l 1,3,-1
 343 567 l 1,0,-1
EndSplineSet
EndChar

StartChar: degree
Encoding: 176 176 114
Width: 374
GlyphClass: 2
Flags: HMW
HStem: 411 42<171.5 201.5 171.5 213> 565 42<171.5 201.5>
VStem: 89 41<493.5 524.5 493.5 535> 243 42<493.5 524.5>
LayerCount: 2
Fore
SplineSet
89 509 m 128,-1,1
 89 548 89 548 118.5 577.5 c 128,-1,2
 148 607 148 607 187 607 c 128,-1,3
 226 607 226 607 255.5 577.5 c 128,-1,4
 285 548 285 548 285 509 c 128,-1,5
 285 470 285 470 255.5 440.5 c 128,-1,6
 226 411 226 411 187 411 c 128,-1,7
 148 411 148 411 118.5 440.5 c 128,-1,0
 89 470 89 470 89 509 c 128,-1,1
130 509 m 128,-1,9
 130 486 130 486 147 469.5 c 128,-1,10
 164 453 164 453 186.5 453 c 0,11,12
 209 453 209 453 226 469.5 c 128,-1,13
 243 486 243 486 243 509 c 128,-1,14
 243 532 243 532 226 548.5 c 128,-1,15
 209 565 209 565 186.5 565 c 0,16,17
 164 565 164 565 147 548.5 c 128,-1,8
 130 532 130 532 130 509 c 128,-1,9
EndSplineSet
EndChar

StartChar: plusminus
Encoding: 177 177 115
Width: 460
GlyphClass: 2
Flags: HMW
HStem: 0 41<20 440 20 440> 274 41<20 207 20 207 252 440> 486 20G<207 252 252 252>
VStem: 207 45<80 274 80 274 315 506>
LayerCount: 2
Fore
SplineSet
440 0 m 1,0,-1
 20 0 l 1,1,-1
 20 41 l 1,2,-1
 440 41 l 1,3,-1
 440 0 l 1,0,-1
207 274 m 1,4,-1
 20 274 l 1,5,-1
 20 315 l 1,6,-1
 207 315 l 1,7,-1
 207 506 l 1,8,-1
 252 506 l 1,9,-1
 252 315 l 1,10,-1
 440 315 l 1,11,-1
 440 274 l 1,12,-1
 252 274 l 1,13,-1
 252 80 l 1,14,-1
 207 80 l 1,15,-1
 207 274 l 1,4,-1
EndSplineSet
EndChar

StartChar: uni00B2
Encoding: 178 178 116
Width: 263
GlyphClass: 2
Flags: HMW
HStem: 402 21G<226 226> 404 38<87 160 160 171.5 87 178 87 203> 595 88<59.5 155.5>
VStem: 35 65<615.5 618 611.5 638.5> 162 63<591.5 628>
LayerCount: 2
Fore
SplineSet
103.5 658.5 m 128,-1,1
 94 651 94 651 94 639.75 c 128,-1,2
 94 628.5 94 628.5 100 618 c 1,3,4
 100 608 100 608 90 601.5 c 128,-1,5
 80 595 80 595 67.5 595 c 128,-1,6
 55 595 55 595 45 603 c 128,-1,7
 35 611 35 611 35 629 c 128,-1,8
 35 647 35 647 59.5 665 c 128,-1,9
 84 683 84 683 128 683 c 128,-1,10
 172 683 172 683 198.5 664.5 c 128,-1,11
 225 646 225 646 225 607 c 128,-1,12
 225 568 225 568 174 524 c 1,13,-1
 128 487 l 1,14,15
 104 466 104 466 87 442 c 1,16,-1
 160 442 l 2,17,18
 196 442 196 442 196 480 c 1,19,-1
 229 480 l 1,20,21
 226 441 226 441 226 411 c 2,22,-1
 226 402 l 1,23,24
 210 404 210 404 203 404 c 2,25,-1
 29 404 l 1,26,27
 37.6085343228 452.207792208 37.6085343228 452.207792208 102 511 c 0,28,29
 125 532 125 532 143.5 559 c 128,-1,30
 162 586 162 586 162 611 c 128,-1,31
 162 636 162 636 151.5 651 c 128,-1,32
 141 666 141 666 127 666 c 128,-1,0
 113 666 113 666 103.5 658.5 c 128,-1,1
EndSplineSet
EndChar

StartChar: uni00B3
Encoding: 179 179 117
Width: 264
GlyphClass: 2
Flags: HMW
HStem: 397 20<119 143 119 159> 397 86<53 159> 397 159<97 102.5 84 159> 601 81<58.5 155.5>
VStem: 36 63<621.5 623.5 615.5 647.5> 158 64<604.5 636> 174 48 174 63<461.5 496.5>
LayerCount: 2
Fore
SplineSet
98 630 m 1,0,-1
 99 622 l 1,1,2
 99 613 99 613 89.5 607 c 128,-1,3
 80 601 80 601 67 601 c 128,-1,4
 54 601 54 601 45 609 c 128,-1,5
 36 617 36 617 36 630 c 0,6,7
 36 682 36 682 129 682 c 0,8,9
 170 682 170 682 196 666.5 c 128,-1,10
 222 651 222 651 222 624 c 0,11,12
 222 571 222 571 146 550 c 1,13,14
 237 539 237 539 237 478 c 0,15,16
 237 441 237 441 206 419 c 128,-1,17
 175 397 175 397 128 397 c 128,-1,18
 81 397 81 397 55.5 411.5 c 128,-1,19
 30 426 30 426 30 451 c 0,20,21
 30 464 30 464 39 473.5 c 128,-1,22
 48 483 48 483 61.5 483 c 128,-1,23
 75 483 75 483 84.5 476.5 c 128,-1,24
 94 470 94 470 94 461 c 1,25,-1
 92 449 l 1,26,27
 92 435 92 435 102.5 426 c 128,-1,28
 113 417 113 417 131 417 c 128,-1,29
 149 417 149 417 161.5 435 c 128,-1,30
 174 453 174 453 174 479 c 128,-1,31
 174 505 174 505 152.5 519.5 c 128,-1,32
 131 534 131 534 84 539 c 1,33,-1
 84 556 l 1,34,35
 113 556 113 556 135.5 576 c 128,-1,36
 158 596 158 596 158 619 c 128,-1,37
 158 642 158 642 149.5 653 c 128,-1,38
 141 664 141 664 129 664 c 0,39,40
 98 664 98 664 98 634 c 2,41,-1
 98 630 l 1,0,-1
EndSplineSet
EndChar

StartChar: acute
Encoding: 180 180 118
Width: 349
GlyphClass: 2
Flags: HMW
HStem: 503 21G<116.5 123.5> 643 20G<250.5 256>
LayerCount: 2
Fore
SplineSet
108 511 m 0,0,1
 108 515 108 515 113 520 c 2,2,-1
 219 637 l 2,3,4
 237.857142857 659.285714286 237.857142857 659.285714286 243.428571429 661.142857143 c 128,-1,5
 249 663 249 663 256.5 662 c 128,-1,6
 264 661 264 661 282 657 c 128,-1,7
 300 653 300 653 306.5 650 c 128,-1,8
 313 647 313 647 313 639.25 c 128,-1,9
 313 631.5 313 631.5 307 627 c 2,10,-1
 131 506 l 2,11,12
 128 503 128 503 118 503 c 128,-1,13
 108 503 108 503 108 511 c 0,0,1
EndSplineSet
EndChar

StartChar: uni00B5
Encoding: 181 181 119
Width: 553
GlyphClass: 2
Flags: HMW
HStem: -269 26<8 8 8 213> -10 33<202.5 246.5> 0 21G<347 489 347 347> 395 25
VStem: 69 84<-225 10> 353 87<66.5 87 211 375 375 382>
LayerCount: 2
Fore
SplineSet
8 -269 m 1,0,-1
 8 -243 l 1,1,-1
 54 -244 l 1,2,3
 66 -243 66 -243 69 -225 c 1,4,-1
 69 377 l 2,5,6
 69 396 69 396 56 396 c 2,7,-1
 20 394 l 1,8,-1
 20 420 l 1,9,-1
 155 420 l 1,10,-1
 155 148 l 2,11,12
 155 80 155 80 167 51.5 c 128,-1,13
 179 23 179 23 216 23 c 0,14,15
 278 23 278 23 315.5 73.5 c 128,-1,16
 353 124 353 124 353 211 c 2,17,-1
 353 375 l 2,18,19
 353 396 353 396 341 396 c 2,20,-1
 294 394 l 1,21,-1
 294 420 l 1,22,-1
 440 420 l 1,23,-1
 440 43 l 2,24,25
 440 24 440 24 453 24 c 2,26,-1
 489 26 l 1,27,-1
 489 0 l 1,28,-1
 347 0 l 1,29,30
 353 14 353 14 353 87 c 1,31,32
 335 43 335 43 298.5 16.5 c 128,-1,33
 262 -10 262 -10 218.5 -10 c 0,34,35
 175 -10 175 -10 153 10 c 1,36,-1
 153 -225 l 2,37,38
 153 -241 153 -241 167 -244 c 1,39,-1
 213 -243 l 1,40,-1
 213 -269 l 1,41,-1
 8 -269 l 1,0,-1
EndSplineSet
EndChar

StartChar: paragraph
Encoding: 182 182 120
Width: 499
GlyphClass: 2
Flags: HMW
HStem: -269 21G<228 263 228 228 342 377 342 342> 566 31<289.5 301 301 342 377 478 377 377>
VStem: 30 233<392.5 489.5> 228 35<-269 288 288 288> 342 35<-269 566 -269 566>
LayerCount: 2
Fore
SplineSet
82 328 m 128,-1,1
 30 368 30 368 30 441 c 128,-1,2
 30 514 30 514 82.5 555.5 c 128,-1,3
 135 597 135 597 228 597 c 2,4,-1
 478 597 l 1,5,-1
 478 566 l 1,6,-1
 377 566 l 1,7,-1
 377 -269 l 1,8,-1
 342 -269 l 1,9,-1
 342 566 l 1,10,-1
 301 566 l 2,11,12
 263 566 263 566 263 528 c 2,13,-1
 263 -269 l 1,14,-1
 228 -269 l 1,15,-1
 228 288 l 1,16,0
 134 288 134 288 82 328 c 128,-1,1
EndSplineSet
EndChar

StartChar: middot
Encoding: 183 183 121
Width: 230
GlyphClass: 2
Flags: HMW
HStem: 127 115<96.5 133.5>
VStem: 50 130<166.5 201.5>
LayerCount: 2
Fore
SplineSet
50 184 m 128,-1,1
 50 210 50 210 68.5 226 c 128,-1,2
 87 242 87 242 115 242 c 128,-1,3
 143 242 143 242 161.5 226 c 128,-1,4
 180 210 180 210 180 184 c 128,-1,5
 180 158 180 158 161.5 142.5 c 128,-1,6
 143 127 143 127 115 127 c 128,-1,7
 87 127 87 127 68.5 142.5 c 128,-1,0
 50 158 50 158 50 184 c 128,-1,1
EndSplineSet
EndChar

StartChar: cedilla
Encoding: 184 184 122
Width: 447
GlyphClass: 2
Flags: HMW
HStem: -214 27<165.5 230.5> -20 20G<208 241 241 241>
VStem: 208 21 229 65<-148.5 -124.5>
LayerCount: 2
Fore
SplineSet
131 -198 m 1,0,-1
 138 -174 l 1,1,2
 150 -187 150 -187 173 -187 c 128,-1,3
 196 -187 196 -187 212.5 -171.5 c 128,-1,4
 229 -156 229 -156 229 -134 c 128,-1,5
 229 -112 229 -112 195 -94 c 1,6,-1
 172 -80 l 1,7,8
 161 -72 161 -72 161 -65 c 128,-1,9
 161 -58 161 -58 167 -52 c 2,10,-1
 208 0 l 1,11,-1
 241 0 l 1,12,-1
 214 -43 l 2,13,14
 208 -53 208 -53 208 -62 c 0,15,16
 208 -72.9375 208 -72.9375 251 -81 c 0,17,18
 267 -84 267 -84 280.5 -94 c 128,-1,19
 294 -104 294 -104 294 -122 c 0,20,21
 294 -165 294 -165 269.5 -189.5 c 128,-1,22
 245 -214 245 -214 200.5 -214 c 128,-1,23
 156 -214 156 -214 131 -198 c 1,0,-1
EndSplineSet
EndChar

StartChar: uni00B9
Encoding: 185 185 123
Width: 187
GlyphClass: 2
Flags: HMW
HStem: 404 21G<14 170 14 14> 663 20G<101 126 126 126>
VStem: 67 59<439 604 604 608.5>
LayerCount: 2
Fore
SplineSet
14 629 m 1,0,1
 58.88 640.88 58.88 640.88 101 683 c 1,2,-1
 126 683 l 1,3,-1
 126 439 l 2,4,5
 126 432 126 432 130.5 426 c 128,-1,6
 135 420 135 420 141 421 c 2,7,-1
 170 422 l 1,8,-1
 170 404 l 1,9,-1
 14 404 l 1,10,-1
 14 422 l 1,11,-1
 55 421 l 2,12,13
 67 421 67 421 67 439 c 2,14,-1
 67 604 l 2,15,16
 67 621 67 621 50 615 c 2,17,-1
 20 604 l 1,18,-1
 14 629 l 1,0,1
EndSplineSet
EndChar

StartChar: ordmasculine
Encoding: 186 186 124
Width: 351
GlyphClass: 2
Flags: HMW
HStem: 344 24<149.5 197 149.5 217> 594 24<151 199>
VStem: 44 71<442 520.5 440.5 523.5> 236 71<437.5 522.5>
LayerCount: 2
Fore
SplineSet
77.5 382 m 128,-1,1
 44 420 44 420 44 482.5 c 128,-1,2
 44 545 44 545 79 581.5 c 128,-1,3
 114 618 114 618 175 618 c 128,-1,4
 236 618 236 618 271.5 582 c 128,-1,5
 307 546 307 546 307 481 c 128,-1,6
 307 416 307 416 272.5 380 c 128,-1,7
 238 344 238 344 174.5 344 c 128,-1,0
 111 344 111 344 77.5 382 c 128,-1,1
115 480 m 128,-1,9
 115 417 115 417 126.5 392.5 c 128,-1,10
 138 368 138 368 173.5 368 c 128,-1,11
 209 368 209 368 222.5 390.5 c 128,-1,12
 236 413 236 413 236 479 c 128,-1,13
 236 545 236 545 223 569.5 c 128,-1,14
 210 594 210 594 175 594 c 128,-1,15
 140 594 140 594 127.5 568.5 c 128,-1,8
 115 543 115 543 115 480 c 128,-1,9
EndSplineSet
EndChar

StartChar: guillemotright
Encoding: 187 187 125
Width: 457
GlyphClass: 2
Flags: HMW
HStem: 16 21G<58 94 58 58 230 230 230 266> 338 20G<58 94 94 94 230 266 266 266>
LayerCount: 2
Fore
SplineSet
94 16 m 1,0,-1
 58 16 l 1,1,-1
 155 187 l 1,2,-1
 58 358 l 1,3,-1
 94 358 l 1,4,-1
 242 187 l 1,5,-1
 94 16 l 1,0,-1
266 16 m 1,6,-1
 230 16 l 1,7,-1
 327 187 l 1,8,-1
 230 358 l 1,9,-1
 266 358 l 1,10,-1
 414 187 l 1,11,-1
 266 16 l 1,6,-1
EndSplineSet
EndChar

StartChar: onequarter
Encoding: 188 188 126
Width: 580
GlyphClass: 2
Flags: HMW
HStem: -70 21G<73 73> -60 107<432 484 544 577 403 577 432 432> 9 38<403 484 403 485 367 484> 663 20G<141 166 166 166>
VStem: 107 59<439 604 604 608.5> 484 60<47 146 146 146>
LayerCount: 2
Fore
SplineSet
73 -70 m 1,0,-1
 40 -47 l 1,1,-1
 505 605 l 1,2,-1
 539 585 l 1,3,-1
 73 -70 l 1,0,-1
54 629 m 1,4,5
 98.88 640.88 98.88 640.88 141 683 c 1,6,-1
 166 683 l 1,7,-1
 166 439 l 2,8,9
 166 432 166 432 170.5 426 c 128,-1,10
 175 420 175 420 181 421 c 2,11,-1
 210 422 l 1,12,-1
 210 404 l 1,13,-1
 54 404 l 1,14,-1
 54 422 l 1,15,-1
 95 421 l 2,16,17
 107 421 107 421 107 439 c 2,18,-1
 107 604 l 2,19,20
 107 621 107 621 90 615 c 2,21,-1
 60 604 l 1,22,-1
 54 629 l 1,4,5
485 9 m 1,23,-1
 367 9 l 1,24,-1
 367 40 l 1,25,26
 369 44 369 44 390 68 c 1,27,-1
 512 219 l 1,28,-1
 544 219 l 1,29,-1
 544 47 l 1,30,-1
 577 47 l 1,31,-1
 577 8 l 1,32,-1
 544 8 l 1,33,-1
 544 -25 l 2,34,35
 544 -43 544 -43 559 -43 c 2,36,-1
 577 -42 l 1,37,-1
 577 -60 l 1,38,-1
 432 -60 l 1,39,-1
 432 -42 l 1,40,-1
 473 -43 l 2,41,42
 485 -43 485 -43 485 -25 c 2,43,-1
 485 9 l 1,23,-1
484 146 m 1,44,-1
 403 47 l 1,45,-1
 484 47 l 1,46,-1
 484 146 l 1,44,-1
EndSplineSet
EndChar

StartChar: onehalf
Encoding: 189 189 127
Width: 580
GlyphClass: 2
Flags: HMW
HStem: -70 21G<73 73> -60 38<438 511 511 522.5 438 529 438 554> 131 88<410.5 506.5> 663 20G<141 166 166 166>
VStem: 107 59<439 604 604 608.5> 386 65<151.5 154 147.5 174.5> 513 63<127.5 164>
LayerCount: 2
Fore
SplineSet
73 -70 m 1,0,-1
 40 -47 l 1,1,-1
 505 605 l 1,2,-1
 539 585 l 1,3,-1
 73 -70 l 1,0,-1
54 629 m 1,4,5
 98.88 640.88 98.88 640.88 141 683 c 1,6,-1
 166 683 l 1,7,-1
 166 439 l 2,8,9
 166 432 166 432 170.5 426 c 128,-1,10
 175 420 175 420 181 421 c 2,11,-1
 210 422 l 1,12,-1
 210 404 l 1,13,-1
 54 404 l 1,14,-1
 54 422 l 1,15,-1
 95 421 l 2,16,17
 107 421 107 421 107 439 c 2,18,-1
 107 604 l 2,19,20
 107 621 107 621 90 615 c 2,21,-1
 60 604 l 1,22,-1
 54 629 l 1,4,5
454.5 194.5 m 128,-1,24
 445 187 445 187 445 177.5 c 128,-1,25
 445 168 445 168 451 154 c 1,26,27
 451 144 451 144 441 137.5 c 128,-1,28
 431 131 431 131 418.5 131 c 128,-1,29
 406 131 406 131 396 139 c 128,-1,30
 386 147 386 147 386 165 c 128,-1,31
 386 183 386 183 410.5 201 c 128,-1,32
 435 219 435 219 479 219 c 128,-1,33
 523 219 523 219 549.5 200.5 c 128,-1,34
 576 182 576 182 576 142.5 c 128,-1,35
 576 103 576 103 524 60 c 2,36,-1
 480 23 l 2,37,38
 456 3.5 456 3.5 438 -22 c 1,39,-1
 511 -22 l 2,40,41
 547 -22 547 -22 547 16 c 1,42,-1
 580 16 l 1,43,44
 577 -23 577 -23 577 -53 c 2,45,-1
 577 -62 l 1,46,47
 561 -60 561 -60 554 -60 c 2,48,-1
 380 -60 l 1,49,50
 388.608534323 -11.7922077922 388.608534323 -11.7922077922 453 47 c 0,51,52
 476 68 476 68 494.5 95 c 128,-1,53
 513 122 513 122 513 147 c 128,-1,54
 513 172 513 172 502.5 187 c 128,-1,55
 492 202 492 202 478 202 c 128,-1,23
 464 202 464 202 454.5 194.5 c 128,-1,24
EndSplineSet
EndChar

StartChar: threequarters
Encoding: 190 190 128
Width: 580
GlyphClass: 2
Flags: HMW
HStem: -70 21G<73 73> -60 107<433 485 545 578 404 578 433 433> 9 38<404 485 404 486 368 485> 397 20<119 143 119 159> 397 86<53 159> 397 159<97 102.5 84 159> 601 81<58.5 155.5>
VStem: 36 63<621.5 623.5 615.5 647.5> 158 64<604.5 636> 174 48 174 63<461.5 496.5> 485 60<47 146 146 146>
LayerCount: 2
Fore
SplineSet
98 630 m 1,0,-1
 99 622 l 1,1,2
 99 613 99 613 89.5 607 c 128,-1,3
 80 601 80 601 67 601 c 128,-1,4
 54 601 54 601 45 609 c 128,-1,5
 36 617 36 617 36 630 c 0,6,7
 36 682 36 682 129 682 c 0,8,9
 170 682 170 682 196 666.5 c 128,-1,10
 222 651 222 651 222 624 c 0,11,12
 222 571 222 571 146 550 c 1,13,14
 237 539 237 539 237 478 c 0,15,16
 237 441 237 441 206 419 c 128,-1,17
 175 397 175 397 128 397 c 128,-1,18
 81 397 81 397 55.5 411.5 c 128,-1,19
 30 426 30 426 30 451 c 0,20,21
 30 464 30 464 39 473.5 c 128,-1,22
 48 483 48 483 61.5 483 c 128,-1,23
 75 483 75 483 84.5 476.5 c 128,-1,24
 94 470 94 470 94 461 c 1,25,-1
 92 449 l 1,26,27
 92 435 92 435 102.5 426 c 128,-1,28
 113 417 113 417 131 417 c 128,-1,29
 149 417 149 417 161.5 435 c 128,-1,30
 174 453 174 453 174 479 c 128,-1,31
 174 505 174 505 152.5 519.5 c 128,-1,32
 131 534 131 534 84 539 c 1,33,-1
 84 556 l 1,34,35
 113 556 113 556 135.5 576 c 128,-1,36
 158 596 158 596 158 619 c 128,-1,37
 158 642 158 642 149.5 653 c 128,-1,38
 141 664 141 664 129 664 c 0,39,40
 98 664 98 664 98 634 c 2,41,-1
 98 630 l 1,0,-1
73 -70 m 1,42,-1
 40 -47 l 1,43,-1
 505 605 l 1,44,-1
 539 585 l 1,45,-1
 73 -70 l 1,42,-1
486 9 m 1,46,-1
 368 9 l 1,47,-1
 368 40 l 1,48,49
 370 44 370 44 391 68 c 1,50,-1
 513 219 l 1,51,-1
 545 219 l 1,52,-1
 545 47 l 1,53,-1
 578 47 l 1,54,-1
 578 8 l 1,55,-1
 545 8 l 1,56,-1
 545 -25 l 2,57,58
 545 -43 545 -43 560 -43 c 2,59,-1
 578 -42 l 1,60,-1
 578 -60 l 1,61,-1
 433 -60 l 1,62,-1
 433 -42 l 1,63,-1
 474 -43 l 2,64,65
 486 -43 486 -43 486 -25 c 2,66,-1
 486 9 l 1,46,-1
485 146 m 1,67,-1
 404 47 l 1,68,-1
 485 47 l 1,69,-1
 485 146 l 1,67,-1
EndSplineSet
EndChar

StartChar: questiondown
Encoding: 191 191 129
Width: 400
GlyphClass: 2
Flags: HMW
HStem: -235 23<180 235.5 180 255.5> -235 103<155 340.5> 330 115<204 234 202 238.5>
VStem: 36 90<-153.5 -93.5 -154 -67> 155 136 218 73<77.5 133.5 71 136.5> 300 77<-175.5 -160.5 -185.5 -152.5>
LayerCount: 2
Fore
SplineSet
36 -115 m 0,0,1
 36 -83 36 -83 64.5 -49.5 c 128,-1,2
 93 -16 93 -16 127 7 c 128,-1,3
 161 30 161 30 189.5 60.5 c 128,-1,4
 218 91 218 91 218 119 c 0,5,6
 218 170 218 170 171 197 c 1,7,-1
 183 216 l 1,8,9
 214 209 214 209 252.5 175.5 c 128,-1,10
 291 142 291 142 291 113 c 128,-1,11
 291 84 291 84 265 49 c 128,-1,12
 239 14 239 14 208.5 -13.5 c 128,-1,13
 178 -41 178 -41 152 -73 c 128,-1,14
 126 -105 126 -105 126 -126 c 0,15,16
 126 -167 126 -167 146.5 -189.5 c 128,-1,17
 167 -212 167 -212 204 -212 c 0,18,19
 300 -212 300 -212 300 -158 c 0,20,21
 300 -150 300 -150 308.5 -141 c 128,-1,22
 317 -132 317 -132 332 -132 c 128,-1,23
 347 -132 347 -132 362 -143.5 c 128,-1,24
 377 -155 377 -155 377 -171 c 0,25,26
 377 -193 377 -193 326 -214 c 128,-1,27
 275 -235 275 -235 200.5 -235 c 128,-1,28
 126 -235 126 -235 81 -204 c 128,-1,29
 36 -173 36 -173 36 -115 c 0,0,1
174 345 m 128,-1,31
 155 360 155 360 155 386.5 c 128,-1,32
 155 413 155 413 174 429 c 128,-1,33
 193 445 193 445 218.5 445 c 128,-1,34
 244 445 244 445 264.5 430.5 c 128,-1,35
 285 416 285 416 285 390.5 c 128,-1,36
 285 365 285 365 266 347.5 c 128,-1,37
 247 330 247 330 220 330 c 128,-1,30
 193 330 193 330 174 345 c 128,-1,31
EndSplineSet
EndChar

StartChar: Aacute
Encoding: 193 193 131
Width: 601
GlyphClass: 2
Flags: HMW
HStem: 0 27<6 10 10 16.5 6 153 -20 10 583 588> 208 28<154 366 154 376 144 366> 587 20G<282 308 308 308> 820 20G<340.5 346>
LayerCount: 2
Fore
SplineSet
409.514177694 26.8260869565 m 0,0,1
 435.5625 26.8260869565 435.5625 26.8260869565 435.5625 53.9453125 c 0,2,3
 435.5625 71.3125 435.5625 71.3125 425 90 c 1,4,-1
 376 208 l 1,5,-1
 144 208 l 1,6,-1
 97 96 l 2,7,8
 75.5714285714 42.4285714286 75.5714285714 42.4285714286 87.5 30.5 c 0,9,10
 93 25 93 25 105 26 c 2,11,-1
 153 29 l 1,12,-1
 153 0 l 1,13,-1
 -20 0 l 1,14,-1
 -20 29 l 1,15,-1
 6 27 l 1,16,-1
 10 27 l 2,17,18
 30 27 30 27 44 47.5 c 128,-1,19
 58 68 58 68 73 104 c 2,20,-1
 282 607 l 1,21,-1
 308 607 l 1,22,-1
 519 102 l 2,23,24
 533 66 533 66 547.5 46.5 c 128,-1,25
 562 27 562 27 583 27 c 2,26,-1
 588 27 l 1,27,-1
 621 29 l 1,28,-1
 621 0 l 1,29,-1
 356 0 l 1,30,-1
 356 29 l 1,31,-1
 405 27 l 2,32,33
 407.347826087 26.8260869565 407.347826087 26.8260869565 409.514177694 26.8260869565 c 0,0,1
259 488 m 1,34,-1
 154 236 l 1,35,-1
 366 236 l 1,36,-1
 259 488 l 1,34,-1
198 688 m 0,37,38
 198 692 198 692 203 697 c 2,39,-1
 309 814 l 2,40,41
 327.857142857 836.285714286 327.857142857 836.285714286 333.428571429 838.142857143 c 128,-1,42
 339 840 339 840 346.5 839 c 128,-1,43
 354 838 354 838 372 834 c 128,-1,44
 390 830 390 830 396.5 827 c 128,-1,45
 403 824 403 824 403 816.25 c 128,-1,46
 403 808.5 403 808.5 397 804 c 2,47,-1
 221 683 l 2,48,49
 218 680 218 680 208 680 c 128,-1,50
 198 680 198 680 198 688 c 0,37,38
EndSplineSet
EndChar

StartChar: Atilde
Encoding: 195 195 133
Width: 601
GlyphClass: 2
Flags: HMW
HStem: 0 27<6 10 10 16.5 6 153 -20 10 583 588> 208 28<154 366 154 376 144 366> 587 20G<282 308 308 308> 701 49<370.5 397.5> 744 49<202.5 230> 772 20G<423 443 443 443>
LayerCount: 2
Fore
SplineSet
409.514177694 26.8260869565 m 0,0,1
 435.5625 26.8260869565 435.5625 26.8260869565 435.5625 53.9453125 c 0,2,3
 435.5625 71.3125 435.5625 71.3125 425 90 c 1,4,-1
 376 208 l 1,5,-1
 144 208 l 1,6,-1
 97 96 l 2,7,8
 75.5714285714 42.4285714286 75.5714285714 42.4285714286 87.5 30.5 c 0,9,10
 93 25 93 25 105 26 c 2,11,-1
 153 29 l 1,12,-1
 153 0 l 1,13,-1
 -20 0 l 1,14,-1
 -20 29 l 1,15,-1
 6 27 l 1,16,-1
 10 27 l 2,17,18
 30 27 30 27 44 47.5 c 128,-1,19
 58 68 58 68 73 104 c 2,20,-1
 282 607 l 1,21,-1
 308 607 l 1,22,-1
 519 102 l 2,23,24
 533 66 533 66 547.5 46.5 c 128,-1,25
 562 27 562 27 583 27 c 2,26,-1
 588 27 l 1,27,-1
 621 29 l 1,28,-1
 621 0 l 1,29,-1
 356 0 l 1,30,-1
 356 29 l 1,31,-1
 405 27 l 2,32,33
 407.347826087 26.8260869565 407.347826087 26.8260869565 409.514177694 26.8260869565 c 0,0,1
259 488 m 1,34,-1
 154 236 l 1,35,-1
 366 236 l 1,36,-1
 259 488 l 1,34,-1
177 702 m 1,37,-1
 157 702 l 1,38,39
 157 739 157 739 175.5 766 c 128,-1,40
 194 793 194 793 218.5 793 c 128,-1,41
 243 793 243 793 307 771.5 c 128,-1,42
 371 750 371 750 387.5 750 c 128,-1,43
 404 750 404 750 413.5 762 c 128,-1,44
 423 774 423 774 423 792 c 1,45,-1
 443 792 l 1,46,47
 443 755 443 755 424.5 728 c 128,-1,48
 406 701 406 701 381 701 c 128,-1,49
 356 701 356 701 292.5 722.5 c 128,-1,50
 229 744 229 744 212.5 744 c 128,-1,51
 196 744 196 744 186.5 732 c 128,-1,52
 177 720 177 720 177 702 c 1,37,-1
EndSplineSet
EndChar

StartChar: Aring
Encoding: 197 197 135
Width: 601
GlyphClass: 2
Flags: HMW
HStem: 0 27<6 6 6 153 -20 6> 208 28<154 366 154 376 144 366> 587 20G<282 308 308 308> 656 36<288.5 311.5 288.5 323.5> 783 36<288.5 311.5>
VStem: 217 42<726.5 749.5> 342 42<726.5 749.5>
LayerCount: 2
Fore
SplineSet
409.514177694 26.8260869565 m 0,0,1
 435.5625 26.8260869565 435.5625 26.8260869565 435.5625 53.9453125 c 0,2,3
 435.5625 71.3125 435.5625 71.3125 425 90 c 1,4,-1
 376 208 l 1,5,-1
 144 208 l 1,6,-1
 97 96 l 2,7,8
 75.5714285714 42.4285714286 75.5714285714 42.4285714286 87.5 30.5 c 0,9,10
 93 25 93 25 105 26 c 2,11,-1
 153 29 l 1,12,-1
 153 0 l 1,13,-1
 -20 0 l 1,14,-1
 -20 29 l 1,15,-1
 6 27 l 2,16,17
 7.90476190476 26.8095238095 7.90476190476 26.8095238095 9.7641723356 26.8095238095 c 0,18,19
 27.4285714286 26.8095238095 27.4285714286 26.8095238095 41.7142857143 44.9047619048 c 128,-1,20
 56 63 56 63 73 104 c 2,21,-1
 282 607 l 1,22,-1
 308 607 l 1,23,-1
 519 102 l 2,24,25
 536 59 536 59 549.263157895 42.8947368421 c 128,-1,26
 562.526315789 26.7894736842 562.526315789 26.7894736842 583.058171745 26.7894736842 c 0,27,28
 585.473684211 26.7894736842 585.473684211 26.7894736842 588 27 c 2,29,-1
 621 29 l 1,30,-1
 621 0 l 1,31,-1
 356 0 l 1,32,-1
 356 29 l 1,33,-1
 405 27 l 2,34,35
 407.347826087 26.8260869565 407.347826087 26.8260869565 409.514177694 26.8260869565 c 0,0,1
259 488 m 1,36,-1
 154 236 l 1,37,-1
 366 236 l 1,38,-1
 259 488 l 1,36,-1
241 679.5 m 128,-1,40
 217 703 217 703 217 737.5 c 128,-1,41
 217 772 217 772 241.5 795.5 c 128,-1,42
 266 819 266 819 301 819 c 128,-1,43
 336 819 336 819 360 796 c 128,-1,44
 384 773 384 773 384 738 c 128,-1,45
 384 703 384 703 359.5 679.5 c 128,-1,46
 335 656 335 656 300 656 c 128,-1,39
 265 656 265 656 241 679.5 c 128,-1,40
259 738 m 128,-1,48
 259 720 259 720 271 706 c 128,-1,49
 283 692 283 692 300 692 c 128,-1,50
 317 692 317 692 329.5 706 c 128,-1,51
 342 720 342 720 342 738 c 128,-1,52
 342 756 342 756 329.5 769.5 c 128,-1,53
 317 783 317 783 300 783 c 128,-1,54
 283 783 283 783 271 769.5 c 128,-1,47
 259 756 259 756 259 738 c 128,-1,48
EndSplineSet
EndChar

StartChar: AE
Encoding: 198 198 136
Width: 881
GlyphClass: 2
Flags: HMW
HStem: -3 21G<828 828> 0 28 208 28<215 439 215 445 199 439> 297 27<525 604 525 525> 406 20G<680 706 706 706> 569 28<476 640 476 476> 579 20G<808 808>
VStem: 680 26<195 225 395.5 426> 782 26<443 487> 801 27<123 171>
LayerCount: 2
Fore
SplineSet
180 0 m 1,0,-1
 5 0 l 1,1,-1
 5 30 l 1,2,-1
 36 27 l 2,3,4
 49 25 49 25 61.5 38 c 128,-1,5
 74 51 74 51 96 86 c 2,6,-1
 375 543 l 2,7,8
 380 552 380 552 374.5 559.5 c 128,-1,9
 369 567 369 567 360 567 c 2,10,-1
 309 565 l 1,11,-1
 309 597 l 1,12,-1
 774 597 l 2,13,14
 794 597 794 597 808 599 c 1,15,-1
 808 443 l 1,16,-1
 782 443 l 1,17,18
 782 508 782 508 747.5 538.5 c 128,-1,19
 713 569 713 569 640 569 c 2,20,-1
 476 569 l 1,21,-1
 521 324 l 1,22,-1
 604 324 l 2,23,24
 637 324 637 324 658.5 352.5 c 128,-1,25
 680 381 680 381 680 426 c 1,26,-1
 706 426 l 1,27,-1
 706 195 l 1,28,-1
 680 195 l 1,29,30
 680 240 680 240 658.5 268.5 c 128,-1,31
 637 297 637 297 604 297 c 2,32,-1
 525 297 l 1,33,-1
 573 46 l 1,34,35
 578 27 578 27 594 27 c 2,36,-1
 660 27 l 2,37,38
 801 27 801 27 801 171 c 1,39,-1
 828 171 l 1,40,-1
 828 -3 l 1,41,42
 792 0 792 0 740 0 c 2,43,-1
 395 0 l 1,44,-1
 395 30 l 1,45,-1
 452 27 l 2,46,47
 464 26 464 26 470 34 c 128,-1,48
 476 42 476 42 474 52 c 2,49,-1
 445 208 l 1,50,-1
 199 208 l 1,51,-1
 123 80 l 1,52,53
 91.8349514563 23.9029126214 91.8349514563 23.9029126214 129 27 c 2,54,-1
 180 30 l 1,55,-1
 180 0 l 1,0,-1
387 515 m 1,56,-1
 215 236 l 1,57,-1
 439 236 l 1,58,-1
 387 515 l 1,56,-1
EndSplineSet
EndChar

StartChar: Eacute
Encoding: 201 201 139
Width: 563
GlyphClass: 2
Flags: HMW
HStem: -3 21G<519 519> 0 28<213 353 353 398.5> 297 28<201 295 201 295> 406 20G<371 398 398 398> 569 28<88 88 209 213 213 320> 820 20G<361.5 367>
VStem: 108 93<49 297 325 548 548 554> 371 27<195 225 394 426> 462 27<443 487.5> 492 27<130.5 179>
LayerCount: 2
Fore
SplineSet
431 0 m 2,0,-1
 50 0 l 1,1,-1
 50 30 l 1,2,-1
 90 27 l 1,3,4
 108 27 108 27 108 49 c 2,5,-1
 108 548 l 2,6,7
 108 557 108 557 102.5 563.5 c 128,-1,8
 97 570 97 570 88 569 c 2,9,-1
 50 567 l 1,10,-1
 50 597 l 1,11,-1
 472 597 l 2,12,13
 486 597 486 597 489 598 c 1,14,-1
 489 443 l 1,15,-1
 462 443 l 1,16,17
 462 510 462 510 428.5 539.5 c 128,-1,18
 395 569 395 569 320 569 c 2,19,-1
 213 569 l 2,20,21
 201 569 201 569 201 555 c 2,22,-1
 201 325 l 1,23,-1
 295 325 l 2,24,25
 329 325 329 325 350 352 c 128,-1,26
 371 379 371 379 371 426 c 1,27,-1
 398 426 l 1,28,-1
 398 195 l 1,29,-1
 371 195 l 1,30,31
 371 239 371 239 348.5 268 c 128,-1,32
 326 297 326 297 295 297 c 2,33,-1
 201 297 l 1,34,-1
 201 41 l 2,35,36
 201 28 201 28 213 28 c 2,37,-1
 353 28 l 2,38,39
 421 28 421 28 456.5 67 c 128,-1,40
 492 106 492 106 492 179 c 1,41,-1
 519 179 l 1,42,-1
 519 -3 l 1,43,44
 496 0 496 0 431 0 c 2,0,-1
219 688 m 0,45,46
 219 692 219 692 224 697 c 2,47,-1
 330 814 l 2,48,49
 348.857142857 836.285714286 348.857142857 836.285714286 354.428571429 838.142857143 c 128,-1,50
 360 840 360 840 367.5 839 c 128,-1,51
 375 838 375 838 393 834 c 128,-1,52
 411 830 411 830 417.5 827 c 128,-1,53
 424 824 424 824 424 816.25 c 128,-1,54
 424 808.5 424 808.5 418 804 c 2,55,-1
 242 683 l 2,56,57
 239 680 239 680 229 680 c 128,-1,58
 219 680 219 680 219 688 c 0,45,46
EndSplineSet
EndChar

StartChar: Edieresis
Encoding: 203 203 141
Width: 563
GlyphClass: 2
Flags: HMW
HStem: -3 21G<519 519> 0 28<213 353 353 398.5> 297 28<201 295 201 295> 406 20G<371 398 398 398> 569 28<88 88 209 213 213 320> 697 97<186.5 216.5 186.5 217.5 381.5 411.5>
VStem: 108 93<49 297 325 548 548 554> 148 108<730.5 759> 343 108<730.5 759> 371 27<195 225 394 426> 462 27<443 487.5> 492 27<130.5 179>
LayerCount: 2
Fore
SplineSet
431 0 m 2,0,-1
 50 0 l 1,1,-1
 50 30 l 1,2,-1
 90 27 l 1,3,4
 108 27 108 27 108 49 c 2,5,-1
 108 548 l 2,6,7
 108 557 108 557 102.5 563.5 c 128,-1,8
 97 570 97 570 88 569 c 2,9,-1
 50 567 l 1,10,-1
 50 597 l 1,11,-1
 472 597 l 2,12,13
 486 597 486 597 489 598 c 1,14,-1
 489 443 l 1,15,-1
 462 443 l 1,16,17
 462 510 462 510 428.5 539.5 c 128,-1,18
 395 569 395 569 320 569 c 2,19,-1
 213 569 l 2,20,21
 201 569 201 569 201 555 c 2,22,-1
 201 325 l 1,23,-1
 295 325 l 2,24,25
 329 325 329 325 350 352 c 128,-1,26
 371 379 371 379 371 426 c 1,27,-1
 398 426 l 1,28,-1
 398 195 l 1,29,-1
 371 195 l 1,30,31
 371 239 371 239 348.5 268 c 128,-1,32
 326 297 326 297 295 297 c 2,33,-1
 201 297 l 1,34,-1
 201 41 l 2,35,36
 201 28 201 28 213 28 c 2,37,-1
 353 28 l 2,38,39
 421 28 421 28 456.5 67 c 128,-1,40
 492 106 492 106 492 179 c 1,41,-1
 519 179 l 1,42,-1
 519 -3 l 1,43,44
 496 0 496 0 431 0 c 2,0,-1
148 745 m 128,-1,46
 148 766 148 766 163.5 780 c 128,-1,47
 179 794 179 794 201.5 794 c 128,-1,48
 224 794 224 794 240 780 c 128,-1,49
 256 766 256 766 256 745 c 128,-1,50
 256 724 256 724 241 710.5 c 128,-1,51
 226 697 226 697 202 697 c 128,-1,52
 178 697 178 697 163 710.5 c 128,-1,45
 148 724 148 724 148 745 c 128,-1,46
343 745 m 128,-1,54
 343 766 343 766 358.5 780 c 128,-1,55
 374 794 374 794 396.5 794 c 128,-1,56
 419 794 419 794 435 780 c 128,-1,57
 451 766 451 766 451 745 c 128,-1,58
 451 724 451 724 436 710.5 c 128,-1,59
 421 697 421 697 397 697 c 128,-1,60
 373 697 373 697 358 710.5 c 128,-1,53
 343 724 343 724 343 745 c 128,-1,54
EndSplineSet
EndChar

StartChar: Iacute
Encoding: 205 205 143
Width: 310
GlyphClass: 2
Flags: HMW
HStem: 0 28 568 29 820 20G<228.5 234>
VStem: 108 93<49 548>
LayerCount: 2
Fore
SplineSet
260 0 m 1,0,-1
 50 0 l 1,1,-1
 50 29 l 1,2,-1
 89 27 l 2,3,4
 108 27 108 27 108 49 c 2,5,-1
 108 548 l 2,6,7
 108 557 108 557 103 563.5 c 128,-1,8
 98 570 98 570 89 569 c 2,9,-1
 50 567 l 1,10,-1
 50 597 l 1,11,-1
 260 597 l 1,12,-1
 260 567 l 1,13,-1
 221 569 l 2,14,15
 212 570 212 570 206.5 563.5 c 128,-1,16
 201 557 201 557 201 548 c 2,17,-1
 201 49 l 2,18,19
 201 27 201 27 221 27 c 1,20,-1
 260 29 l 1,21,-1
 260 0 l 1,0,-1
86 688 m 0,22,23
 86 692 86 692 91 697 c 2,24,-1
 197 814 l 2,25,26
 215.857142857 836.285714286 215.857142857 836.285714286 221.428571429 838.142857143 c 128,-1,27
 227 840 227 840 234.5 839 c 128,-1,28
 242 838 242 838 260 834 c 128,-1,29
 278 830 278 830 284.5 827 c 128,-1,30
 291 824 291 824 291 816.25 c 128,-1,31
 291 808.5 291 808.5 285 804 c 2,32,-1
 109 683 l 2,33,34
 106 680 106 680 96 680 c 128,-1,35
 86 680 86 680 86 688 c 0,22,23
EndSplineSet
EndChar

StartChar: Idieresis
Encoding: 207 207 145
Width: 310
GlyphClass: 2
Flags: HMW
HStem: 0 28 568 29 697 97<45.5 75.5 45.5 76.5 240.5 270.5>
VStem: 7 108<730.5 759> 108 93<49 548> 202 108<730.5 759>
LayerCount: 2
Fore
SplineSet
260 0 m 1,0,-1
 50 0 l 1,1,-1
 50 29 l 1,2,-1
 89 27 l 2,3,4
 108 27 108 27 108 49 c 2,5,-1
 108 548 l 2,6,7
 108 557 108 557 103 563.5 c 128,-1,8
 98 570 98 570 89 569 c 2,9,-1
 50 567 l 1,10,-1
 50 597 l 1,11,-1
 260 597 l 1,12,-1
 260 567 l 1,13,-1
 221 569 l 2,14,15
 212 570 212 570 206.5 563.5 c 128,-1,16
 201 557 201 557 201 548 c 2,17,-1
 201 49 l 2,18,19
 201 27 201 27 221 27 c 1,20,-1
 260 29 l 1,21,-1
 260 0 l 1,0,-1
7 745 m 128,-1,23
 7 766 7 766 22.5 780 c 128,-1,24
 38 794 38 794 60.5 794 c 0,25,26
 83 794 83 794 99 780 c 128,-1,27
 115 766 115 766 115 745 c 128,-1,28
 115 724 115 724 100 710.5 c 128,-1,29
 85 697 85 697 61 697 c 128,-1,30
 37 697 37 697 22 710.5 c 128,-1,22
 7 724 7 724 7 745 c 128,-1,23
202 745 m 128,-1,32
 202 766 202 766 217.5 780 c 128,-1,33
 233 794 233 794 255.5 794 c 0,34,35
 278 794 278 794 294 780 c 128,-1,36
 310 766 310 766 310 745 c 128,-1,37
 310 724 310 724 295 710.5 c 128,-1,38
 280 697 280 697 256 697 c 128,-1,39
 232 697 232 697 217 710.5 c 128,-1,31
 202 724 202 724 202 745 c 128,-1,32
EndSplineSet
EndChar

StartChar: Eth
Encoding: 208 208 146
Width: 631
GlyphClass: 2
Flags: HMW
HStem: 0 28<216 261 261 290> 293 36<42 111 42 111 204 391> 569 28<92 98.5 212 216 216 261>
VStem: 111 93<49 293 329 548 548 553.5> 489 102<201.5 396>
LayerCount: 2
Fore
SplineSet
111 293 m 1,0,-1
 42 293 l 1,1,-1
 42 329 l 1,2,-1
 111 329 l 1,3,-1
 111 548 l 2,4,5
 111 569 111 569 92 569 c 2,6,-1
 53 567 l 1,7,-1
 53 597 l 1,8,-1
 278 597 l 2,9,10
 438 597 438 597 514.5 527.5 c 128,-1,11
 591 458 591 458 591 299 c 0,12,13
 591 0 591 0 290 0 c 2,14,-1
 53 0 l 1,15,-1
 53 29 l 1,16,-1
 96 27 l 2,17,18
 111 27 111 27 111 49 c 2,19,-1
 111 293 l 1,0,-1
204 293 m 1,20,-1
 204 41 l 2,21,22
 204 28 204 28 216 28 c 2,23,-1
 261 28 l 2,24,25
 385 28 385 28 437 89.5 c 128,-1,26
 489 151 489 151 489 298 c 128,-1,27
 489 445 489 445 437 507 c 128,-1,28
 385 569 385 569 261 569 c 2,29,-1
 216 569 l 2,30,31
 204 569 204 569 204 556 c 2,32,-1
 204 329 l 1,33,-1
 391 329 l 1,34,-1
 391 293 l 1,35,-1
 204 293 l 1,20,-1
EndSplineSet
EndChar

StartChar: Oacute
Encoding: 211 211 149
Width: 670
GlyphClass: 2
Flags: HMW
HStem: -10 27<298.5 370.5> 580 27<298.5 370.5 298.5 399> 820 20G<384.5 390>
VStem: 45 102<249 349> 523 102<249 349 249 400>
LayerCount: 2
Fore
SplineSet
45 299 m 128,-1,1
 45 442 45 442 111 515 c 0,2,3
 160 570 160 570 214.5 588.5 c 128,-1,4
 269 607 269 607 335 607 c 0,5,6
 476 607 476 607 559 515 c 0,7,8
 625 442 625 442 625 299 c 128,-1,9
 625 156 625 156 559 83 c 0,10,11
 475 -10 475 -10 335 -10 c 0,12,13
 270 -10 270 -10 215 9 c 128,-1,14
 160 28 160 28 111 83 c 0,15,0
 45 156 45 156 45 299 c 128,-1,1
192.5 514 m 128,-1,17
 147 448 147 448 147 298.5 c 128,-1,18
 147 149 147 149 192.5 83 c 128,-1,19
 238 17 238 17 335 17 c 128,-1,20
 432 17 432 17 477.5 83 c 128,-1,21
 523 149 523 149 523 298.5 c 128,-1,22
 523 448 523 448 477.5 514 c 128,-1,23
 432 580 432 580 335 580 c 128,-1,16
 238 580 238 580 192.5 514 c 128,-1,17
242 688 m 0,24,25
 242 692 242 692 247 697 c 2,26,-1
 353 814 l 2,27,28
 371.857142857 836.285714286 371.857142857 836.285714286 377.428571429 838.142857143 c 128,-1,29
 383 840 383 840 390.5 839 c 128,-1,30
 398 838 398 838 416 834 c 128,-1,31
 434 830 434 830 440.5 827 c 128,-1,32
 447 824 447 824 447 816.25 c 128,-1,33
 447 808.5 447 808.5 441 804 c 2,34,-1
 265 683 l 2,35,36
 262 680 262 680 252 680 c 128,-1,37
 242 680 242 680 242 688 c 0,24,25
EndSplineSet
EndChar

StartChar: Otilde
Encoding: 213 213 151
Width: 670
GlyphClass: 2
Flags: HMW
HStem: -10 27<298.5 370.5> 580 27<298.5 370.5 298.5 399> 701 49<405.5 432.5> 744 49<237.5 265> 772 20G<458 478 478 478>
VStem: 45 102<249 349> 523 102<249 349 249 400>
LayerCount: 2
Fore
SplineSet
45 299 m 128,-1,1
 45 442 45 442 111 515 c 0,2,3
 160 570 160 570 214.5 588.5 c 128,-1,4
 269 607 269 607 335 607 c 0,5,6
 476 607 476 607 559 515 c 0,7,8
 625 442 625 442 625 299 c 128,-1,9
 625 156 625 156 559 83 c 0,10,11
 475 -10 475 -10 335 -10 c 0,12,13
 270 -10 270 -10 215 9 c 128,-1,14
 160 28 160 28 111 83 c 0,15,0
 45 156 45 156 45 299 c 128,-1,1
192.5 514 m 128,-1,17
 147 448 147 448 147 298.5 c 128,-1,18
 147 149 147 149 192.5 83 c 128,-1,19
 238 17 238 17 335 17 c 128,-1,20
 432 17 432 17 477.5 83 c 128,-1,21
 523 149 523 149 523 298.5 c 128,-1,22
 523 448 523 448 477.5 514 c 128,-1,23
 432 580 432 580 335 580 c 128,-1,16
 238 580 238 580 192.5 514 c 128,-1,17
212 702 m 1,24,-1
 192 702 l 1,25,26
 192 739 192 739 210.5 766 c 128,-1,27
 229 793 229 793 253.5 793 c 128,-1,28
 278 793 278 793 342 771.5 c 128,-1,29
 406 750 406 750 422.5 750 c 128,-1,30
 439 750 439 750 448.5 762 c 128,-1,31
 458 774 458 774 458 792 c 1,32,-1
 478 792 l 1,33,34
 478 755 478 755 459.5 728 c 128,-1,35
 441 701 441 701 416 701 c 128,-1,36
 391 701 391 701 327.5 722.5 c 128,-1,37
 264 744 264 744 247.5 744 c 128,-1,38
 231 744 231 744 221.5 732 c 128,-1,39
 212 720 212 720 212 702 c 1,24,-1
EndSplineSet
EndChar

StartChar: multiply
Encoding: 215 215 153
Width: 460
GlyphClass: 2
Flags: HMW
HStem: 102 21G<368 368> 413 20G<366 366>
LayerCount: 2
Fore
SplineSet
94 103 m 1,0,-1
 64 131 l 1,1,-1
 202 268 l 1,2,-1
 66 403 l 1,3,-1
 95 432 l 1,4,-1
 229 296 l 1,5,-1
 366 433 l 1,6,-1
 396 404 l 1,7,-1
 259 268 l 1,8,-1
 396 130 l 1,9,-1
 368 102 l 1,10,-1
 230 239 l 1,11,-1
 94 103 l 1,0,-1
EndSplineSet
EndChar

StartChar: Oslash
Encoding: 216 216 154
Width: 664
GlyphClass: 2
Flags: HMW
HStem: -92 21G<126 126> -11 27<304 396.5 301.5 419.5> 580 27<266 360.5> 665 20G
VStem: 44 102<243.5 390> 524 102<196.5 348 196 352>
LayerCount: 2
Fore
SplineSet
44 290 m 0,0,1
 44 442 44 442 118.5 524.5 c 128,-1,2
 193 607 193 607 335 607 c 0,3,4
 378 607 378 607 405 601 c 128,-1,5
 432 595 432 595 472 577 c 1,6,-1
 535 685 l 1,7,-1
 572 665 l 1,8,-1
 508 555 l 1,9,10
 626 470 626 470 626 294 c 0,11,12
 626 149 626 149 546.5 69 c 128,-1,13
 467 -11 467 -11 329 -11 c 0,14,15
 255 -11 255 -11 191 18 c 1,16,-1
 126 -92 l 1,17,-1
 89 -75 l 1,18,-1
 156 39 l 1,19,20
 44 114 44 114 44 290 c 0,0,1
189.5 511.5 m 128,-1,22
 146 443 146 443 146 295.5 c 128,-1,23
 146 148 146 148 184 87 c 1,24,-1
 452 542 l 1,25,26
 407 580 407 580 334 580 c 0,27,21
 233 580 233 580 189.5 511.5 c 128,-1,22
479 507 m 1,28,-1
 212 51 l 1,29,30
 255 16 255 16 326 16 c 0,31,32
 432 16 432 16 478 81 c 128,-1,33
 524 146 524 146 524 298 c 0,34,35
 524 377 524 377 514 421.5 c 128,-1,36
 504 466 504 466 479 507 c 1,28,-1
EndSplineSet
EndChar

StartChar: Uacute
Encoding: 218 218 156
Width: 651
GlyphClass: 2
Flags: HMW
HStem: -10 31<306 408.5> 568 29 820 20G<425.5 431>
VStem: 92 93<199 548 548 549> 532 35<198 548 548 549>
LayerCount: 2
Fore
SplineSet
73 569 m 2,0,-1
 35 567 l 1,1,-1
 35 597 l 1,2,-1
 254 597 l 1,3,-1
 254 567 l 1,4,-1
 205 569 l 2,5,6
 196 570 196 570 190.5 564 c 128,-1,7
 185 558 185 558 185 549 c 2,8,-1
 185 199 l 2,9,10
 185 115 185 115 231.5 68 c 128,-1,11
 278 21 278 21 356.5 21 c 128,-1,12
 435 21 435 21 483.5 71.5 c 128,-1,13
 532 122 532 122 532 198 c 2,14,-1
 532 548 l 2,15,16
 532 558 532 558 527 564 c 128,-1,17
 522 570 522 570 514 569 c 2,18,-1
 465 567 l 1,19,-1
 465 597 l 1,20,-1
 626 597 l 1,21,-1
 626 567 l 1,22,-1
 587 569 l 2,23,24
 578 570 578 570 572.5 564 c 128,-1,25
 567 558 567 558 567 549 c 2,26,-1
 567 189 l 2,27,28
 567 103 567 103 504 46.5 c 128,-1,29
 441 -10 441 -10 344 -10 c 0,30,31
 222 -10 222 -10 157 43.5 c 128,-1,32
 92 97 92 97 92 199 c 2,33,-1
 92 548 l 2,34,35
 92 557 92 557 86.5 563.5 c 128,-1,36
 81 570 81 570 73 569 c 2,0,-1
283 688 m 0,37,38
 283 692 283 692 288 697 c 2,39,-1
 394 814 l 2,40,41
 412.857142857 836.285714286 412.857142857 836.285714286 418.428571429 838.142857143 c 128,-1,42
 424 840 424 840 431.5 839 c 128,-1,43
 439 838 439 838 457 834 c 128,-1,44
 475 830 475 830 481.5 827 c 128,-1,45
 488 824 488 824 488 816.25 c 128,-1,46
 488 808.5 488 808.5 482 804 c 2,47,-1
 306 683 l 2,48,49
 303 680 303 680 293 680 c 128,-1,50
 283 680 283 680 283 688 c 0,37,38
EndSplineSet
EndChar

StartChar: Udieresis
Encoding: 220 220 158
Width: 651
GlyphClass: 2
Flags: HMW
HStem: -10 31<306 408.5> 568 29 697 97<244.5 274.5 244.5 275.5 439.5 469.5>
VStem: 92 93<199 548 548 549> 206 108<730.5 759> 401 108<730.5 759> 532 35<198 548 548 549>
LayerCount: 2
Fore
SplineSet
73 569 m 2,0,-1
 35 567 l 1,1,-1
 35 597 l 1,2,-1
 254 597 l 1,3,-1
 254 567 l 1,4,-1
 205 569 l 2,5,6
 196 570 196 570 190.5 564 c 128,-1,7
 185 558 185 558 185 549 c 2,8,-1
 185 199 l 2,9,10
 185 115 185 115 231.5 68 c 128,-1,11
 278 21 278 21 356.5 21 c 0,12,13
 435 21 435 21 483.5 71.5 c 128,-1,14
 532 122 532 122 532 198 c 2,15,-1
 532 548 l 2,16,17
 532 558 532 558 527 564 c 128,-1,18
 522 570 522 570 514 569 c 2,19,-1
 465 567 l 1,20,-1
 465 597 l 1,21,-1
 626 597 l 1,22,-1
 626 567 l 1,23,-1
 587 569 l 2,24,25
 578 570 578 570 572.5 564 c 128,-1,26
 567 558 567 558 567 549 c 2,27,-1
 567 189 l 2,28,29
 567 103 567 103 504 46.5 c 128,-1,30
 441 -10 441 -10 344 -10 c 0,31,32
 222 -10 222 -10 157 43.5 c 128,-1,33
 92 97 92 97 92 199 c 2,34,-1
 92 548 l 2,35,36
 92 557 92 557 86.5 563.5 c 128,-1,37
 81 570 81 570 73 569 c 2,0,-1
206 745 m 128,-1,39
 206 766 206 766 221.5 780 c 128,-1,40
 237 794 237 794 259.5 794 c 0,41,42
 282 794 282 794 298 780 c 128,-1,43
 314 766 314 766 314 745 c 128,-1,44
 314 724 314 724 299 710.5 c 128,-1,45
 284 697 284 697 260 697 c 128,-1,46
 236 697 236 697 221 710.5 c 128,-1,38
 206 724 206 724 206 745 c 128,-1,39
401 745 m 128,-1,48
 401 766 401 766 416.5 780 c 128,-1,49
 432 794 432 794 454.5 794 c 0,50,51
 477 794 477 794 493 780 c 128,-1,52
 509 766 509 766 509 745 c 128,-1,53
 509 724 509 724 494 710.5 c 128,-1,54
 479 697 479 697 455 697 c 128,-1,55
 431 697 431 697 416 710.5 c 128,-1,47
 401 724 401 724 401 745 c 128,-1,48
EndSplineSet
EndChar

StartChar: Thorn
Encoding: 222 222 160
Width: 524
GlyphClass: 2
Flags: HMW
HStem: 0 28 162 26<203 272 272 293 190 272> 471 25<190 272 190 256> 568 29
VStem: 97 93<49 162 197.5 201 201 471 496 548> 382 96<293 374.5>
LayerCount: 2
Fore
SplineSet
259 0 m 1,0,-1
 39 0 l 1,1,-1
 39 29 l 1,2,-1
 78 27 l 2,3,4
 87 26 87 26 92 32.5 c 128,-1,5
 97 39 97 39 97 49 c 2,6,-1
 97 548 l 2,7,8
 97 569 97 569 78 569 c 2,9,-1
 39 567 l 1,10,-1
 39 597 l 1,11,-1
 259 597 l 1,12,-1
 259 567 l 1,13,-1
 210 569 l 2,14,15
 201 569 201 569 195.5 563 c 128,-1,16
 190 557 190 557 190 548 c 2,17,-1
 190 496 l 1,18,-1
 272 496 l 2,19,20
 378 496 378 496 428 457 c 128,-1,21
 478 418 478 418 478 336.5 c 0,22,23
 478 255 478 255 429 208.5 c 128,-1,24
 380 162 380 162 293 162 c 2,25,-1
 190 162 l 1,26,-1
 190 49 l 2,27,28
 190 38 190 38 194.5 32 c 128,-1,29
 199 26 199 26 210 27 c 2,30,-1
 259 29 l 1,31,-1
 259 0 l 1,0,-1
190 471 m 1,32,-1
 190 201 l 2,33,34
 190 188 190 188 203 188 c 2,35,-1
 272 188 l 2,36,37
 317 188 317 188 349.5 230.5 c 128,-1,38
 382 273 382 273 382 334.5 c 0,39,40
 382 396 382 396 348 433.5 c 128,-1,41
 314 471 314 471 256 471 c 2,42,-1
 190 471 l 1,32,-1
EndSplineSet
EndChar

StartChar: germandbls
Encoding: 223 223 161
Width: 528
GlyphClass: 2
Flags: HMW
HStem: -8 29<335 393.5 335 399.5> -8 109<273.5 399.5> 0 21G 712 25<227.5 290>
VStem: 84 71<512 635.5> 84 86<48 434> 210 79 359 79<595.5 641.5> 450 79<91.5 120.5>
LayerCount: 2
Fore
SplineSet
230 0 m 1,0,-1
 35 0 l 1,1,-1
 35 29 l 1,2,-1
 71 27 l 2,3,4
 84 27 84 27 84 48 c 2,5,-1
 84 512 l 2,6,7
 84 737 84 737 257 737 c 0,8,9
 339 737 339 737 388.5 706 c 128,-1,10
 438 675 438 675 438 622 c 0,11,12
 438 586 438 586 414 560.5 c 128,-1,13
 390 535 390 535 352.5 513.5 c 128,-1,14
 315 492 315 492 302 474.5 c 128,-1,15
 289 457 289 457 289 427 c 0,16,17
 289 384 289 384 353 340 c 1,18,-1
 440 277 l 1,19,20
 529 215 529 215 529 142.5 c 128,-1,21
 529 70 529 70 478.5 31 c 128,-1,22
 428 -8 428 -8 348 -8 c 0,23,24
 313 -8 313 -8 281.5 12 c 128,-1,25
 250 32 250 32 250 66.5 c 128,-1,26
 250 101 250 101 283 101 c 0,27,28
 318.5 101 318.5 101 322.5 61 c 0,29,30
 324 46 324 46 335.5 33.5 c 128,-1,31
 347 21 347 21 370 21 c 0,32,33
 450 21 450 21 450 99 c 0,34,35
 450 164 450 164 375 219 c 2,36,-1
 289 281 l 2,37,38
 210 339 210 339 210 386 c 0,39,40
 210 419 210 419 226.5 442.5 c 128,-1,41
 243 466 243 466 285 495.5 c 128,-1,42
 327 525 327 525 343 549 c 128,-1,43
 359 573 359 573 359 615 c 128,-1,44
 359 657 359 657 332 684.5 c 128,-1,45
 305 712 305 712 258.5 712 c 128,-1,46
 212 712 212 712 183.5 682 c 128,-1,47
 155 652 155 652 155 601 c 0,48,49
 155 580 155 580 162.5 520 c 128,-1,50
 170 460 170 460 170 434 c 2,51,-1
 170 48 l 2,52,53
 170 27 170 27 184 27 c 2,54,-1
 230 29 l 1,55,-1
 230 0 l 1,0,-1
EndSplineSet
EndChar

StartChar: aacute
Encoding: 225 225 163
Width: 450
GlyphClass: 2
Flags: HMW
HStem: -5 36<164.5 188.5> 0 21G<288 430 288 288> 231 27<229.5 294> 290 140<78.5 263.5> 403 27<176.5 236> 643 20G<272.5 278>
VStem: 27 91<86.5 154 86.5 157.5> 49 92<323.5 330.5 311.5 365> 294 86<76 76 173 231 231 231 258 289>
LayerCount: 2
Fore
SplineSet
27 105 m 0,0,1
 27 184 27 184 90.5 221 c 128,-1,2
 154 258 154 258 294 258 c 1,3,-1
 294 316 l 2,4,5
 294 361 294 361 272.5 382 c 128,-1,6
 251 403 251 403 206 403 c 0,7,8
 131 403 131 403 131 359 c 0,9,10
 131 351 131 351 136 341 c 128,-1,11
 141 331 141 331 141 319 c 128,-1,12
 141 307 141 307 127.5 298.5 c 128,-1,13
 114 290 114 290 93 290 c 0,14,15
 49 290 49 290 49 335 c 128,-1,16
 49 380 49 380 88.5 405 c 128,-1,17
 128 430 128 430 211 430 c 128,-1,18
 294 430 294 430 337 396 c 128,-1,19
 380 362 380 362 380 289 c 2,20,-1
 380 43 l 2,21,22
 380 24 380 24 393 24 c 2,23,-1
 430 26 l 1,24,-1
 430 0 l 1,25,-1
 288 0 l 1,26,27
 290 13 290 13 292 37 c 2,28,-1
 294 76 l 1,29,30
 253 -5 253 -5 159 -5 c 0,31,32
 27 -5 27 -5 27 105 c 0,0,1
118 112 m 0,33,34
 118 74 118 74 136 52.5 c 128,-1,35
 154 31 154 31 186 31 c 0,36,37
 232 31 232 31 263 71 c 128,-1,38
 294 111 294 111 294 173 c 2,39,-1
 294 231 l 1,40,41
 198 231 198 231 158 203.5 c 128,-1,42
 118 176 118 176 118 112 c 0,33,34
130 511 m 0,43,44
 130 515 130 515 135 520 c 2,45,-1
 241 637 l 2,46,47
 259.857142857 659.285714286 259.857142857 659.285714286 265.428571429 661.142857143 c 128,-1,48
 271 663 271 663 278.5 662 c 128,-1,49
 286 661 286 661 304 657 c 128,-1,50
 322 653 322 653 328.5 650 c 128,-1,51
 335 647 335 647 335 639.25 c 128,-1,52
 335 631.5 335 631.5 329 627 c 2,53,-1
 153 506 l 2,54,55
 150 503 150 503 140 503 c 128,-1,56
 130 503 130 503 130 511 c 0,43,44
EndSplineSet
EndChar

StartChar: atilde
Encoding: 227 227 165
Width: 450
GlyphClass: 2
Flags: HMW
HStem: -5 36<164.5 188.5> 0 21G<288 430 288 288> 231 27<229.5 294> 290 140<78.5 263.5> 403 27<176.5 236> 524 49<295.5 322.5> 567 49<127.5 155> 595 20G<348 368 368 368>
VStem: 27 91<86.5 154 86.5 157.5> 49 92<323.5 330.5 311.5 365> 294 86<76 76 173 231 231 231 258 289>
LayerCount: 2
Fore
SplineSet
27 105 m 0,0,1
 27 184 27 184 90.5 221 c 128,-1,2
 154 258 154 258 294 258 c 1,3,-1
 294 316 l 2,4,5
 294 361 294 361 272.5 382 c 128,-1,6
 251 403 251 403 206 403 c 0,7,8
 131 403 131 403 131 359 c 0,9,10
 131 351 131 351 136 341 c 128,-1,11
 141 331 141 331 141 319 c 0,12,13
 141 307 141 307 127.5 298.5 c 128,-1,14
 114 290 114 290 93 290 c 0,15,16
 49 290 49 290 49 335 c 0,17,18
 49 380 49 380 88.5 405 c 128,-1,19
 128 430 128 430 211 430 c 0,20,21
 294 430 294 430 337 396 c 128,-1,22
 380 362 380 362 380 289 c 2,23,-1
 380 43 l 2,24,25
 380 24 380 24 393 24 c 2,26,-1
 430 26 l 1,27,-1
 430 0 l 1,28,-1
 288 0 l 1,29,30
 290 13 290 13 292 37 c 2,31,-1
 294 76 l 1,32,33
 253 -5 253 -5 159 -5 c 0,34,35
 27 -5 27 -5 27 105 c 0,0,1
118 112 m 0,36,37
 118 74 118 74 136 52.5 c 128,-1,38
 154 31 154 31 186 31 c 0,39,40
 232 31 232 31 263 71 c 128,-1,41
 294 111 294 111 294 173 c 2,42,-1
 294 231 l 1,43,44
 198 231 198 231 158 203.5 c 128,-1,45
 118 176 118 176 118 112 c 0,36,37
102 525 m 1,46,-1
 82 525 l 1,47,48
 82 562 82 562 100.5 589 c 128,-1,49
 119 616 119 616 143.5 616 c 0,50,51
 168 616 168 616 232 594.5 c 128,-1,52
 296 573 296 573 312.5 573 c 0,53,54
 329 573 329 573 338.5 585 c 128,-1,55
 348 597 348 597 348 615 c 1,56,-1
 368 615 l 1,57,58
 368 578 368 578 349.5 551 c 128,-1,59
 331 524 331 524 306.5 524 c 0,60,61
 282 524 282 524 218 545.5 c 128,-1,62
 154 567 154 567 137.5 567 c 0,63,64
 121 567 121 567 111.5 555 c 128,-1,65
 102 543 102 543 102 525 c 1,46,-1
EndSplineSet
EndChar

StartChar: aring
Encoding: 229 229 167
Width: 450
GlyphClass: 2
Flags: HMW
HStem: -5 36<164.5 188.5> 0 21G<288 430 288 288> 231 27<229.5 294> 290 140<78.5 263.5> 403 27<176.5 236> 479 36<200.5 223.5 200.5 235.5> 606 36<200.5 223.5>
VStem: 27 91<86.5 154 86.5 157.5> 49 92<323.5 330.5 311.5 365> 129 42<549.5 572.5 549.5 583.5> 254 42<549.5 572.5> 294 86<76 76 173 231 231 231 258 289>
LayerCount: 2
Fore
SplineSet
27 105 m 0,0,1
 27 184 27 184 90.5 221 c 128,-1,2
 154 258 154 258 294 258 c 1,3,-1
 294 316 l 2,4,5
 294 361 294 361 272.5 382 c 128,-1,6
 251 403 251 403 206 403 c 0,7,8
 131 403 131 403 131 359 c 0,9,10
 131 351 131 351 136 341 c 128,-1,11
 141 331 141 331 141 319 c 128,-1,12
 141 307 141 307 127.5 298.5 c 128,-1,13
 114 290 114 290 93 290 c 0,14,15
 49 290 49 290 49 335 c 128,-1,16
 49 380 49 380 88.5 405 c 128,-1,17
 128 430 128 430 211 430 c 128,-1,18
 294 430 294 430 337 396 c 128,-1,19
 380 362 380 362 380 289 c 2,20,-1
 380 43 l 2,21,22
 380 24 380 24 393 24 c 2,23,-1
 430 26 l 1,24,-1
 430 0 l 1,25,-1
 288 0 l 1,26,27
 290 13 290 13 292 37 c 2,28,-1
 294 76 l 1,29,30
 253 -5 253 -5 159 -5 c 0,31,32
 27 -5 27 -5 27 105 c 0,0,1
118 112 m 0,33,34
 118 74 118 74 136 52.5 c 128,-1,35
 154 31 154 31 186 31 c 0,36,37
 232 31 232 31 263 71 c 128,-1,38
 294 111 294 111 294 173 c 2,39,-1
 294 231 l 1,40,41
 198 231 198 231 158 203.5 c 128,-1,42
 118 176 118 176 118 112 c 0,33,34
153 502.5 m 128,-1,44
 129 526 129 526 129 560.5 c 128,-1,45
 129 595 129 595 153.5 618.5 c 128,-1,46
 178 642 178 642 213 642 c 128,-1,47
 248 642 248 642 272 619 c 128,-1,48
 296 596 296 596 296 561 c 128,-1,49
 296 526 296 526 271.5 502.5 c 128,-1,50
 247 479 247 479 212 479 c 128,-1,43
 177 479 177 479 153 502.5 c 128,-1,44
171 561 m 128,-1,52
 171 543 171 543 183 529 c 128,-1,53
 195 515 195 515 212 515 c 128,-1,54
 229 515 229 515 241.5 529 c 128,-1,55
 254 543 254 543 254 561 c 128,-1,56
 254 579 254 579 241.5 592.5 c 128,-1,57
 229 606 229 606 212 606 c 128,-1,58
 195 606 195 606 183 592.5 c 128,-1,51
 171 579 171 579 171 561 c 128,-1,52
EndSplineSet
EndChar

StartChar: ae
Encoding: 230 230 168
Width: 720
GlyphClass: 2
Flags: HMW
HStem: -10 21G<454.5 543.5> -5 28 217 25<231.5 294 381 580 580 584> 290 140<78.5 247.5> 403 27<185.5 241.5 468 535.5>
VStem: 27 91<69.5 133.5 69.5 153> 49 92<323.5 327 311.5 365.5> 294 87<177 217 158.5 217 242 296 158.5 313> 590 85<264 285.5 217 306>
LayerCount: 2
Fore
SplineSet
131 359 m 1,0,-1
 141 321 l 1,1,2
 141 307 141 307 127 298.5 c 128,-1,3
 113 290 113 290 94 290 c 0,4,5
 49 290 49 290 49 335.5 c 128,-1,6
 49 381 49 381 89.5 405.5 c 128,-1,7
 130 430 130 430 210 430 c 0,8,9
 315 430 315 430 351 380 c 1,10,11
 405 430 405 430 496 430 c 0,12,13
 675 430 675 430 675 217 c 1,14,-1
 381 217 l 1,15,16
 381 127 381 127 415 75 c 128,-1,17
 449 23 449 23 514 23 c 0,18,19
 553 23 553 23 592.5 48 c 128,-1,20
 632 73 632 73 650 110 c 1,21,-1
 674 92 l 1,22,23
 653 45 653 45 607.5 17.5 c 128,-1,24
 562 -10 562 -10 508 -10 c 0,25,26
 365 -10 365 -10 318 87 c 1,27,28
 270 -5 270 -5 172 -5 c 0,29,30
 106 -5 106 -5 66.5 20.5 c 128,-1,31
 27 46 27 46 27 98 c 0,32,33
 27 178 27 178 91 210 c 128,-1,34
 155 242 155 242 294 242 c 1,35,-1
 294 313 l 2,36,37
 294 358 294 358 274.5 380.5 c 128,-1,38
 255 403 255 403 210 403 c 0,39,40
 131 403 131 403 131 359 c 1,0,-1
118 93 m 0,41,42
 118 28 118 28 191 28 c 0,43,44
 232 28 232 28 263 70.5 c 128,-1,45
 294 113 294 113 294 177 c 2,46,-1
 294 217 l 1,47,48
 202 217 202 217 160 186 c 128,-1,49
 118 155 118 155 118 93 c 0,41,42
381 242 m 1,50,-1
 580 242 l 2,51,52
 590 242 590 242 590 270 c 0,53,54
 590 403 590 403 501 403 c 0,55,56
 439 403 439 403 410 363.5 c 128,-1,57
 381 324 381 324 381 242 c 1,50,-1
EndSplineSet
EndChar

StartChar: eacute
Encoding: 233 233 171
Width: 449
GlyphClass: 2
Flags: HMW
HStem: -10 33<252 275> 212 25<127 309 309 315 127 414 126 309> 403 27<196 270> 643 20G<283.5 289>
VStem: 35 91<151.5 212 151.5 281.5> 329 85<212 314.5>
LayerCount: 2
Fore
SplineSet
35 209 m 0,0,1
 35 318 35 318 86 374 c 128,-1,2
 137 430 137 430 236 430 c 0,3,4
 315 430 315 430 363.5 379.5 c 128,-1,5
 412 329 412 329 414 241 c 1,6,-1
 414 212 l 1,7,-1
 126 212 l 1,8,9
 126 24 126 24 252 23 c 0,10,11
 302 23 302 23 336.5 48 c 128,-1,12
 371 73 371 73 387 110 c 1,13,-1
 410 93 l 1,14,15
 390 45 390 45 342.5 17.5 c 128,-1,16
 295 -10 295 -10 238 -10 c 0,17,18
 35 -10 35 -10 35 209 c 0,0,1
127 237 m 1,19,-1
 309 237 l 2,20,21
 329 237 329 237 329 270 c 0,22,23
 329 338 329 338 307.5 370.5 c 128,-1,24
 286 403 286 403 233 403 c 128,-1,25
 180 403 180 403 153.5 357 c 128,-1,26
 127 311 127 311 127 237 c 1,19,-1
141 511 m 0,27,28
 141 515 141 515 146 520 c 2,29,-1
 252 637 l 2,30,31
 270.857142857 659.285714286 270.857142857 659.285714286 276.428571429 661.142857143 c 128,-1,32
 282 663 282 663 289.5 662 c 128,-1,33
 297 661 297 661 315 657 c 128,-1,34
 333 653 333 653 339.5 650 c 128,-1,35
 346 647 346 647 346 639.25 c 128,-1,36
 346 631.5 346 631.5 340 627 c 2,37,-1
 164 506 l 2,38,39
 161 503 161 503 151 503 c 128,-1,40
 141 503 141 503 141 511 c 0,27,28
EndSplineSet
EndChar

StartChar: edieresis
Encoding: 235 235 173
Width: 449
GlyphClass: 2
Flags: HMW
HStem: -10 33<252 275> 212 25<127 309 309 315 127 414 126 309> 403 27<196 270> 520 97<114.5 144.5 114.5 145.5 309.5 339.5>
VStem: 35 91<151.5 212 151.5 281.5> 76 108<553.5 582> 271 108<553.5 582> 329 85<212 314.5>
LayerCount: 2
Fore
SplineSet
35 209 m 0,0,1
 35 318 35 318 86 374 c 128,-1,2
 137 430 137 430 236 430 c 0,3,4
 315 430 315 430 363.5 379.5 c 128,-1,5
 412 329 412 329 414 241 c 1,6,-1
 414 212 l 1,7,-1
 126 212 l 1,8,9
 126 24 126 24 252 23 c 0,10,11
 302 23 302 23 336.5 48 c 128,-1,12
 371 73 371 73 387 110 c 1,13,-1
 410 93 l 1,14,15
 390 45 390 45 342.5 17.5 c 128,-1,16
 295 -10 295 -10 238 -10 c 0,17,18
 35 -10 35 -10 35 209 c 0,0,1
127 237 m 1,19,-1
 309 237 l 2,20,21
 329 237 329 237 329 270 c 0,22,23
 329 338 329 338 307.5 370.5 c 128,-1,24
 286 403 286 403 233 403 c 0,25,26
 180 403 180 403 153.5 357 c 128,-1,27
 127 311 127 311 127 237 c 1,19,-1
76 568 m 128,-1,29
 76 589 76 589 91.5 603 c 128,-1,30
 107 617 107 617 129.5 617 c 0,31,32
 152 617 152 617 168 603 c 128,-1,33
 184 589 184 589 184 568 c 128,-1,34
 184 547 184 547 169 533.5 c 128,-1,35
 154 520 154 520 130 520 c 128,-1,36
 106 520 106 520 91 533.5 c 128,-1,28
 76 547 76 547 76 568 c 128,-1,29
271 568 m 128,-1,38
 271 589 271 589 286.5 603 c 128,-1,39
 302 617 302 617 324.5 617 c 0,40,41
 347 617 347 617 363 603 c 128,-1,42
 379 589 379 589 379 568 c 128,-1,43
 379 547 379 547 364 533.5 c 128,-1,44
 349 520 349 520 325 520 c 128,-1,45
 301 520 301 520 286 533.5 c 128,-1,37
 271 547 271 547 271 568 c 128,-1,38
EndSplineSet
EndChar

StartChar: igrave
Encoding: 236 236 174
Width: 255
GlyphClass: 2
Flags: HMW
HStem: 0 25 633 20G<60 79.5>
VStem: 85 86<43 376 376 381.5>
LayerCount: 2
Fore
SplineSet
25 614 m 2,0,1
 15 622 15 622 15 627.5 c 128,-1,2
 15 633 15 633 35 643 c 128,-1,3
 55 653 55 653 67 653 c 128,-1,4
 79 653 79 653 85 650 c 0,5,6
 92.6 646.2 92.6 646.2 108 628 c 2,7,-1
 203 524 l 2,8,9
 221 504 221 504 221 501 c 0,10,11
 221 493 221 493 209 493 c 128,-1,12
 197 493 197 493 188 502 c 1,13,-1
 25 614 l 2,0,1
220 0 m 1,14,-1
 35 0 l 1,15,-1
 35 26 l 1,16,-1
 72 24 l 2,17,18
 85 24 85 24 85 43 c 2,19,-1
 85 376 l 2,20,21
 85 393 85 393 73 396 c 1,22,-1
 36 394 l 1,23,-1
 36 420 l 1,24,-1
 171 420 l 1,25,-1
 171 43 l 2,26,27
 171 24 171 24 184 24 c 2,28,-1
 220 26 l 1,29,-1
 220 0 l 1,14,-1
EndSplineSet
EndChar

StartChar: iacute
Encoding: 237 237 175
Width: 255
GlyphClass: 2
Flags: HMW
HStem: 0 25 643 20G<186.5 192>
VStem: 36 135<394 420> 85 86<43 376 376 381.5>
LayerCount: 2
Fore
SplineSet
220 0 m 1,0,-1
 35 0 l 1,1,-1
 35 26 l 1,2,-1
 72 24 l 2,3,4
 85 24 85 24 85 43 c 2,5,-1
 85 376 l 2,6,7
 85 393 85 393 73 396 c 1,8,-1
 36 394 l 1,9,-1
 36 420 l 1,10,-1
 171 420 l 1,11,-1
 171 43 l 2,12,13
 171 24 171 24 184 24 c 2,14,-1
 220 26 l 1,15,-1
 220 0 l 1,0,-1
44 511 m 0,16,17
 44 515 44 515 49 520 c 2,18,-1
 155 637 l 2,19,20
 173.857142857 659.285714286 173.857142857 659.285714286 179.428571429 661.142857143 c 128,-1,21
 185 663 185 663 192.5 662 c 128,-1,22
 200 661 200 661 218 657 c 128,-1,23
 236 653 236 653 242.5 650 c 128,-1,24
 249 647 249 647 249 639.25 c 128,-1,25
 249 631.5 249 631.5 243 627 c 2,26,-1
 67 506 l 2,27,28
 64 503 64 503 54 503 c 128,-1,29
 44 503 44 503 44 511 c 0,16,17
EndSplineSet
EndChar

StartChar: icircumflex
Encoding: 238 238 176
Width: 255
GlyphClass: 2
Flags: HMW
HStem: 0 25 614 20G<126.5 129.5>
VStem: 85 86<43 376 376 381.5>
LayerCount: 2
Fore
SplineSet
-28 486 m 0,0,1
 -28 490 -28 490 -17.5 499 c 128,-1,2
 -7 508 -7 508 13.5 525.5 c 128,-1,3
 34 543 34 543 51 561 c 2,4,-1
 98 609 l 1,5,6
 125 634 125 634 128 634 c 128,-1,7
 131 634 131 634 158 609 c 1,8,-1
 205 561 l 2,9,10
 222 543 222 543 242.5 525.5 c 128,-1,11
 263 508 263 508 273.5 499 c 128,-1,12
 284 490 284 490 284 486 c 0,13,14
 284 478 284 478 275 478 c 128,-1,15
 266 478 266 478 247 490 c 2,16,-1
 128 564 l 1,17,-1
 9 490 l 2,18,19
 -10 478 -10 478 -19 478 c 128,-1,20
 -28 478 -28 478 -28 486 c 0,0,1
220 0 m 1,21,-1
 35 0 l 1,22,-1
 35 26 l 1,23,-1
 72 24 l 2,24,25
 85 24 85 24 85 43 c 2,26,-1
 85 376 l 2,27,28
 85 393 85 393 73 396 c 1,29,-1
 36 394 l 1,30,-1
 36 420 l 1,31,-1
 171 420 l 1,32,-1
 171 43 l 2,33,34
 171 24 171 24 184 24 c 2,35,-1
 220 26 l 1,36,-1
 220 0 l 1,21,-1
EndSplineSet
EndChar

StartChar: idieresis
Encoding: 239 239 177
Width: 255
GlyphClass: 2
Flags: HMW
HStem: 0 25 520 97<14.5 44.5 14.5 45.5 209.5 239.5>
VStem: -24 108<553.5 582> 85 86<43 376 376 381.5> 171 108<553.5 582>
LayerCount: 2
Fore
SplineSet
-24 568 m 128,-1,1
 -24 589 -24 589 -8.5 603 c 128,-1,2
 7 617 7 617 29.5 617 c 0,3,4
 52 617 52 617 68 603 c 128,-1,5
 84 589 84 589 84 568 c 128,-1,6
 84 547 84 547 69 533.5 c 128,-1,7
 54 520 54 520 30 520 c 128,-1,8
 6 520 6 520 -9 533.5 c 128,-1,0
 -24 547 -24 547 -24 568 c 128,-1,1
220 0 m 1,9,-1
 35 0 l 1,10,-1
 35 26 l 1,11,-1
 72 24 l 2,12,13
 85 24 85 24 85 43 c 2,14,-1
 85 376 l 2,15,16
 85 393 85 393 73 396 c 1,17,-1
 36 394 l 1,18,-1
 36 420 l 1,19,-1
 171 420 l 1,20,-1
 171 43 l 2,21,22
 171 24 171 24 184 24 c 2,23,-1
 220 26 l 1,24,-1
 220 0 l 1,9,-1
171 568 m 128,-1,26
 171 589 171 589 186.5 603 c 128,-1,27
 202 617 202 617 224.5 617 c 0,28,29
 247 617 247 617 263 603 c 128,-1,30
 279 589 279 589 279 568 c 128,-1,31
 279 547 279 547 264 533.5 c 128,-1,32
 249 520 249 520 225 520 c 128,-1,33
 201 520 201 520 186 533.5 c 128,-1,25
 171 547 171 547 171 568 c 128,-1,26
EndSplineSet
EndChar

StartChar: eth
Encoding: 240 240 178
Width: 492
GlyphClass: 2
Flags: HMW
HStem: -11 25<202.5 290 202.5 314> 404 25<200.5 260 177.5 288.5> 587 20G<132 153.5> 600 20G<364 364>
VStem: 35 91<136.5 281> 366 91<145 279>
LayerCount: 2
Fore
SplineSet
35 209 m 128,-1,1
 35 317 35 317 89 373 c 128,-1,2
 143 429 143 429 246 429 c 0,3,4
 269 429 269 429 295 421.5 c 128,-1,5
 321 414 321 414 328 403 c 1,6,7
 297 480 297 480 245 518 c 1,8,-1
 140 457 l 1,9,-1
 125 483 l 1,10,-1
 221 538 l 1,11,12
 154 585 154 585 112 585 c 1,13,-1
 132 607 l 1,14,15
 201 607 201 607 268 565 c 1,16,-1
 364 620 l 1,17,-1
 378 594 l 1,18,-1
 296 546 l 1,19,20
 457 435 457 435 457 213 c 0,21,22
 457 109 457 109 402 49 c 128,-1,23
 347 -11 347 -11 245 -11 c 128,-1,24
 143 -11 143 -11 89 45 c 128,-1,0
 35 101 35 101 35 209 c 128,-1,1
152 362 m 128,-1,26
 126 320 126 320 126 210 c 128,-1,27
 126 100 126 100 153 57 c 128,-1,28
 180 14 180 14 245.5 14 c 128,-1,29
 311 14 311 14 338.5 59.5 c 128,-1,30
 366 105 366 105 366 209.5 c 128,-1,31
 366 314 366 314 338 359 c 128,-1,32
 310 404 310 404 244 404 c 128,-1,25
 178 404 178 404 152 362 c 128,-1,26
EndSplineSet
EndChar

StartChar: oacute
Encoding: 243 243 181
Width: 472
GlyphClass: 2
Flags: HMW
HStem: -10 27<196 276 196 303.5> 403 27<196 276> 643 20G<285.5 291>
VStem: 35 91<143.5 276.5 142.5 277> 346 91<143.5 276.5>
LayerCount: 2
Fore
SplineSet
86 48.5 m 128,-1,1
 35 107 35 107 35 210 c 128,-1,2
 35 313 35 313 86 371.5 c 128,-1,3
 137 430 137 430 236 430 c 128,-1,4
 335 430 335 430 386 371.5 c 128,-1,5
 437 313 437 313 437 210 c 128,-1,6
 437 107 437 107 386 48.5 c 128,-1,7
 335 -10 335 -10 236 -10 c 128,-1,0
 137 -10 137 -10 86 48.5 c 128,-1,1
151.5 357 m 128,-1,9
 126 311 126 311 126 209.5 c 128,-1,10
 126 108 126 108 151.5 62.5 c 128,-1,11
 177 17 177 17 236 17 c 128,-1,12
 295 17 295 17 320.5 62.5 c 128,-1,13
 346 108 346 108 346 209.5 c 128,-1,14
 346 311 346 311 320.5 357 c 128,-1,15
 295 403 295 403 236 403 c 128,-1,8
 177 403 177 403 151.5 357 c 128,-1,9
143 511 m 0,16,17
 143 515 143 515 148 520 c 2,18,-1
 254 637 l 2,19,20
 272.857142857 659.285714286 272.857142857 659.285714286 278.428571429 661.142857143 c 128,-1,21
 284 663 284 663 291.5 662 c 128,-1,22
 299 661 299 661 317 657 c 128,-1,23
 335 653 335 653 341.5 650 c 128,-1,24
 348 647 348 647 348 639.25 c 128,-1,25
 348 631.5 348 631.5 342 627 c 2,26,-1
 166 506 l 2,27,28
 163 503 163 503 153 503 c 128,-1,29
 143 503 143 503 143 511 c 0,16,17
EndSplineSet
EndChar

StartChar: otilde
Encoding: 245 245 183
Width: 472
GlyphClass: 2
Flags: HMW
HStem: -10 27<196 276 196 303.5> 403 27<196 276> 524 49<306.5 333.5> 567 49<138.5 166> 595 20G<359 379 379 379>
VStem: 35 91<143.5 276.5 142.5 277> 346 33 346 91<143.5 276.5>
LayerCount: 2
Fore
SplineSet
86 48.5 m 128,-1,1
 35 107 35 107 35 210 c 128,-1,2
 35 313 35 313 86 371.5 c 128,-1,3
 137 430 137 430 236 430 c 128,-1,4
 335 430 335 430 386 371.5 c 128,-1,5
 437 313 437 313 437 210 c 128,-1,6
 437 107 437 107 386 48.5 c 128,-1,7
 335 -10 335 -10 236 -10 c 128,-1,0
 137 -10 137 -10 86 48.5 c 128,-1,1
151.5 357 m 128,-1,9
 126 311 126 311 126 209.5 c 128,-1,10
 126 108 126 108 151.5 62.5 c 128,-1,11
 177 17 177 17 236 17 c 128,-1,12
 295 17 295 17 320.5 62.5 c 128,-1,13
 346 108 346 108 346 209.5 c 128,-1,14
 346 311 346 311 320.5 357 c 128,-1,15
 295 403 295 403 236 403 c 128,-1,8
 177 403 177 403 151.5 357 c 128,-1,9
113 525 m 1,16,-1
 93 525 l 1,17,18
 93 562 93 562 111.5 589 c 128,-1,19
 130 616 130 616 154.5 616 c 128,-1,20
 179 616 179 616 243 594.5 c 128,-1,21
 307 573 307 573 323.5 573 c 128,-1,22
 340 573 340 573 349.5 585 c 128,-1,23
 359 597 359 597 359 615 c 1,24,-1
 379 615 l 1,25,26
 379 578 379 578 360.5 551 c 128,-1,27
 342 524 342 524 317 524 c 128,-1,28
 292 524 292 524 229 545.5 c 128,-1,29
 166 567 166 567 149 567 c 128,-1,30
 132 567 132 567 122.5 555 c 128,-1,31
 113 543 113 543 113 525 c 1,16,-1
EndSplineSet
EndChar

StartChar: divide
Encoding: 247 247 185
Width: 460
GlyphClass: 2
Flags: HMW
HStem: 50 95<213.5 244.5 213.5 245> 249 41<19 441 19 441> 389 95<213.5 244.5 213.5 245>
VStem: 175 109<82.5 111.5 421.5 451.5>
LayerCount: 2
Fore
SplineSet
441 249 m 1,0,-1
 19 249 l 1,1,-1
 19 290 l 1,2,-1
 441 290 l 1,3,-1
 441 249 l 1,0,-1
190 62.5 m 128,-1,5
 175 75 175 75 175 96.5 c 128,-1,6
 175 118 175 118 190 131.5 c 128,-1,7
 205 145 205 145 229 145 c 128,-1,8
 253 145 253 145 268.5 132.5 c 128,-1,9
 284 120 284 120 284 98 c 128,-1,10
 284 76 284 76 268.5 63 c 128,-1,11
 253 50 253 50 229 50 c 128,-1,4
 205 50 205 50 190 62.5 c 128,-1,5
190 401.5 m 128,-1,13
 175 414 175 414 175 436.5 c 128,-1,14
 175 459 175 459 190 471.5 c 128,-1,15
 205 484 205 484 229 484 c 128,-1,16
 253 484 253 484 268.5 471.5 c 128,-1,17
 284 459 284 459 284 437 c 128,-1,18
 284 415 284 415 268.5 402 c 128,-1,19
 253 389 253 389 229 389 c 128,-1,12
 205 389 205 389 190 401.5 c 128,-1,13
EndSplineSet
EndChar

StartChar: oslash
Encoding: 248 248 186
Width: 472
GlyphClass: 2
Flags: HMW
HStem: -85 21G<106 106> -10 27<222.5 276 222.5 303.5> 403 27<196 253> 484 20G<388 388>
VStem: 35 91<178.5 276.5 178.5 277> 346 91<143.5 232.5>
LayerCount: 2
Fore
SplineSet
35 211 m 0,0,1
 35 313 35 313 86 371.5 c 128,-1,2
 137 430 137 430 236 430 c 0,3,4
 290 430 290 430 335 409 c 1,5,-1
 388 504 l 1,6,-1
 422 483 l 1,7,-1
 369 387 l 1,8,9
 437 328 437 328 437 217.5 c 128,-1,10
 437 107 437 107 386 48.5 c 128,-1,11
 335 -10 335 -10 236 -10 c 0,12,13
 191 -10 191 -10 155 3 c 1,14,-1
 106 -85 l 1,15,-1
 68 -68 l 1,16,-1
 118 21 l 1,17,18
 35 76 35 76 35 211 c 0,0,1
151.5 357 m 128,-1,20
 126 311 126 311 126 215.5 c 128,-1,21
 126 120 126 120 146 72 c 1,22,-1
 312 369 l 1,23,24
 287 403 287 403 232 403 c 128,-1,19
 177 403 177 403 151.5 357 c 128,-1,20
334 324 m 1,25,-1
 173 36 l 1,26,27
 195 17 195 17 236 17 c 0,28,29
 295 17 295 17 320.5 62.5 c 128,-1,30
 346 108 346 108 346 194 c 128,-1,31
 346 280 346 280 334 324 c 1,25,-1
EndSplineSet
EndChar

StartChar: uacute
Encoding: 250 250 188
Width: 524
GlyphClass: 2
Flags: HMW
HStem: -10 33<190 232.5> 0 21G<347 489 347 347> 395 25 643 20G<301.5 307>
VStem: 69 86<148 376 376 382.5> 353 87<66.5 87 211 375 375 382>
LayerCount: 2
Fore
SplineSet
56 396 m 2,0,-1
 20 394 l 1,1,-1
 20 420 l 1,2,-1
 155 420 l 1,3,-1
 155 148 l 2,4,5
 155 80 155 80 167 51.5 c 128,-1,6
 179 23 179 23 216 23 c 0,7,8
 278 23 278 23 315.5 73.5 c 128,-1,9
 353 124 353 124 353 211 c 2,10,-1
 353 375 l 2,11,12
 353 396 353 396 341 396 c 2,13,-1
 294 394 l 1,14,-1
 294 420 l 1,15,-1
 440 420 l 1,16,-1
 440 43 l 2,17,18
 440 24 440 24 453 24 c 2,19,-1
 489 26 l 1,20,-1
 489 0 l 1,21,-1
 347 0 l 1,22,23
 353 14 353 14 353 87 c 1,24,25
 312 -10 312 -10 195 -10 c 0,26,27
 128 -10 128 -10 98.5 27 c 128,-1,28
 69 64 69 64 69 148 c 2,29,-1
 69 376 l 2,30,31
 69 396 69 396 56 396 c 2,0,-1
159 511 m 0,32,33
 159 515 159 515 164 520 c 2,34,-1
 270 637 l 2,35,36
 288.857142857 659.285714286 288.857142857 659.285714286 294.428571429 661.142857143 c 128,-1,37
 300 663 300 663 307.5 662 c 128,-1,38
 315 661 315 661 333 657 c 128,-1,39
 351 653 351 653 357.5 650 c 128,-1,40
 364 647 364 647 364 639.25 c 128,-1,41
 364 631.5 364 631.5 358 627 c 2,42,-1
 182 506 l 2,43,44
 179 503 179 503 169 503 c 128,-1,45
 159 503 159 503 159 511 c 0,32,33
EndSplineSet
EndChar

StartChar: udieresis
Encoding: 252 252 190
Width: 524
GlyphClass: 2
Flags: HMW
HStem: -10 33<190 232.5> 0 21G<347 489 347 347> 395 25 520 97<134.5 164.5 134.5 165.5 329.5 359.5>
VStem: 69 86<148 376 376 382.5> 96 108<553.5 582> 291 108<553.5 582> 353 87<66.5 87 211 375 375 382>
LayerCount: 2
Fore
SplineSet
56 396 m 2,0,-1
 20 394 l 1,1,-1
 20 420 l 1,2,-1
 155 420 l 1,3,-1
 155 148 l 2,4,5
 155 80 155 80 167 51.5 c 128,-1,6
 179 23 179 23 216 23 c 0,7,8
 278 23 278 23 315.5 73.5 c 128,-1,9
 353 124 353 124 353 211 c 2,10,-1
 353 375 l 2,11,12
 353 396 353 396 341 396 c 2,13,-1
 294 394 l 1,14,-1
 294 420 l 1,15,-1
 440 420 l 1,16,-1
 440 43 l 2,17,18
 440 24 440 24 453 24 c 2,19,-1
 489 26 l 1,20,-1
 489 0 l 1,21,-1
 347 0 l 1,22,23
 353 14 353 14 353 87 c 1,24,25
 312 -10 312 -10 195 -10 c 0,26,27
 128 -10 128 -10 98.5 27 c 128,-1,28
 69 64 69 64 69 148 c 2,29,-1
 69 376 l 2,30,31
 69 396 69 396 56 396 c 2,0,-1
96 568 m 128,-1,33
 96 589 96 589 111.5 603 c 128,-1,34
 127 617 127 617 149.5 617 c 0,35,36
 172 617 172 617 188 603 c 128,-1,37
 204 589 204 589 204 568 c 128,-1,38
 204 547 204 547 189 533.5 c 128,-1,39
 174 520 174 520 150 520 c 128,-1,40
 126 520 126 520 111 533.5 c 128,-1,32
 96 547 96 547 96 568 c 128,-1,33
291 568 m 128,-1,42
 291 589 291 589 306.5 603 c 128,-1,43
 322 617 322 617 344.5 617 c 0,44,45
 367 617 367 617 383 603 c 128,-1,46
 399 589 399 589 399 568 c 128,-1,47
 399 547 399 547 384 533.5 c 128,-1,48
 369 520 369 520 345 520 c 128,-1,49
 321 520 321 520 306 533.5 c 128,-1,41
 291 547 291 547 291 568 c 128,-1,42
EndSplineSet
EndChar

StartChar: thorn
Encoding: 254 254 192
Width: 516
GlyphClass: 2
Flags: HMW
HStem: -239 25 -10 27<241.5 307 233.5 334.5> 403 27<253.5 313> 710 20G<20 159 159 159>
VStem: 69 86<-195 43 340 679> 368 91<136.5 279.5 136.5 281>
LayerCount: 2
Fore
SplineSet
56 706 m 2,0,-1
 20 704 l 1,1,-1
 20 730 l 1,2,-1
 159 730 l 1,3,4
 155 705 155 705 155 679 c 2,5,-1
 155 340 l 1,6,7
 186 430 186 430 287 430 c 0,8,9
 459 430 459 430 459 209 c 0,10,11
 459 99 459 99 412.5 44.5 c 128,-1,12
 366 -10 366 -10 275 -10 c 0,13,14
 184 -10 184 -10 155 43 c 1,15,-1
 155 -195 l 2,16,17
 155 -215 155 -215 168 -215 c 2,18,-1
 230 -213 l 1,19,-1
 230 -239 l 1,20,-1
 24 -239 l 1,21,-1
 24 -213 l 1,22,-1
 56 -215 l 1,23,24
 69 -214 69 -214 69 -195 c 2,25,-1
 69 686 l 2,26,27
 69 706 69 706 56 706 c 2,0,-1
157 226 m 2,28,-1
 157 184 l 2,29,30
 157 17 157 17 269 17 c 0,31,32
 326 17 326 17 347 58 c 128,-1,33
 368 99 368 99 368 209.5 c 0,34,35
 368 320 368 320 349 361.5 c 128,-1,36
 330 403 330 403 275 403 c 0,37,38
 220 403 220 403 188.5 354.5 c 128,-1,39
 157 306 157 306 157 226 c 2,28,-1
EndSplineSet
EndChar

StartChar: ydieresis
Encoding: 255 255 193
Width: 485
GlyphClass: 2
Flags: HMW
HStem: -239 58<107 111.5> -239 100<67.5 78.5 48.5 111.5> 395 25 520 97<155.5 185.5 155.5 186.5 350.5 380.5>
VStem: 117 108<553.5 582> 312 108<553.5 582>
LayerCount: 2
Fore
SplineSet
36 396 m 2,0,-1
 -13 394 l 1,1,-1
 -13 420 l 1,2,-1
 206 420 l 1,3,-1
 206 394 l 1,4,-1
 161 396 l 2,5,6
 154 396 154 396 150 390.5 c 128,-1,7
 146 385 146 385 149 379 c 2,8,-1
 271 109 l 1,9,-1
 384 381 l 2,10,11
 390 396 390 396 374 396 c 2,12,-1
 327 394 l 1,13,-1
 327 420 l 1,14,-1
 482 420 l 1,15,-1
 482 394 l 1,16,-1
 441 396 l 1,17,-1
 439 396 l 2,18,19
 423 396 423 396 414 377 c 1,20,-1
 203 -132 l 2,21,22
 179 -191 179 -191 152 -215 c 128,-1,23
 125 -239 125 -239 91.5 -239 c 0,24,25
 58 -239 58 -239 39.5 -226 c 128,-1,26
 21 -213 21 -213 19 -190 c 1,27,28
 19 -165 19 -165 30.5 -152 c 128,-1,29
 42 -139 42 -139 58.5 -139 c 0,30,31
 75 -139 75 -139 85 -149.5 c 128,-1,32
 95 -160 95 -160 102.5 -170.5 c 128,-1,33
 110 -181 110 -181 121 -181 c 0,34,35
 149 -181 149 -181 167 -135 c 1,36,-1
 226 1 l 1,37,-1
 52 383 l 2,38,39
 46 396 46 396 36 396 c 2,0,-1
117 568 m 128,-1,41
 117 589 117 589 132.5 603 c 128,-1,42
 148 617 148 617 170.5 617 c 0,43,44
 193 617 193 617 209 603 c 128,-1,45
 225 589 225 589 225 568 c 128,-1,46
 225 547 225 547 210 533.5 c 128,-1,47
 195 520 195 520 171 520 c 128,-1,48
 147 520 147 520 132 533.5 c 128,-1,40
 117 547 117 547 117 568 c 128,-1,41
312 568 m 128,-1,50
 312 589 312 589 327.5 603 c 128,-1,51
 343 617 343 617 365.5 617 c 0,52,53
 388 617 388 617 404 603 c 128,-1,54
 420 589 420 589 420 568 c 128,-1,55
 420 547 420 547 405 533.5 c 128,-1,56
 390 520 390 520 366 520 c 128,-1,57
 342 520 342 520 327 533.5 c 128,-1,49
 312 547 312 547 312 568 c 128,-1,50
EndSplineSet
EndChar

StartChar: OE
Encoding: 338 338 194
Width: 868
GlyphClass: 2
Flags: HMW
HStem: -10 37 0 21G<444 480 480 730> 297 27<523 599 523 599> 406 20G<676 703 703 703> 569 28<531.5 536 536 630> 587 20G<240.5 369.5>
VStem: 46 97<197.5 392.5> 435 88<90 297 324 526 526 541.5> 676 27<195 225 394 426> 772 27<443 488.5> 791 27<130.5 179>
LayerCount: 2
Fore
SplineSet
480 0 m 2,0,1
 425 0 425 0 340 -10 c 1,2,3
 198 -10 198 -10 122 68 c 128,-1,4
 46 146 46 146 46 292 c 0,5,6
 46 607 46 607 343 607 c 0,7,8
 370 607 370 607 409.5 602 c 128,-1,9
 449 597 449 597 472 597 c 2,10,-1
 799 597 l 1,11,-1
 799 443 l 1,12,-1
 772 443 l 1,13,14
 772 511 772 511 738.5 540 c 128,-1,15
 705 569 705 569 630 569 c 2,16,-1
 536 569 l 2,17,18
 523 569 523 569 523 555 c 2,19,-1
 523 324 l 1,20,-1
 599 324 l 2,21,22
 632 324 632 324 654 351.5 c 128,-1,23
 676 379 676 379 676 426 c 1,24,-1
 703 426 l 1,25,-1
 703 195 l 1,26,-1
 676 195 l 1,27,28
 676 239 676 239 653.5 268 c 128,-1,29
 631 297 631 297 599 297 c 2,30,-1
 523 297 l 1,31,-1
 523 40 l 2,32,33
 523 27 523 27 536 27 c 2,34,-1
 651 27 l 2,35,36
 720 27 720 27 755.5 66.5 c 128,-1,37
 791 106 791 106 791 179 c 1,38,-1
 818 179 l 1,39,-1
 818 -3 l 1,40,41
 794 0 794 0 730 0 c 2,42,-1
 480 0 l 2,0,1
188.5 513.5 m 128,-1,44
 143 446 143 446 143 297 c 128,-1,45
 143 148 143 148 188 83 c 128,-1,46
 233 18 233 18 334 18 c 128,-1,47
 435 18 435 18 435 90 c 2,48,-1
 435 526 l 2,49,50
 435 549 435 549 406 565 c 128,-1,51
 377 581 377 581 336 581 c 0,52,43
 234 581 234 581 188.5 513.5 c 128,-1,44
EndSplineSet
EndChar

StartChar: oe
Encoding: 339 339 195
Width: 761
GlyphClass: 2
Flags: HMW
HStem: -10 33<524 596.5> 217 25<432 629 629 633.5 432 726 432 629> 403 27<191.5 266.5 157.5 271 510.5 580>
VStem: 35 91<152 264> 345 87<155.5 217 242 281.5> 641 85<217 309>
LayerCount: 2
Fore
SplineSet
86.5 49 m 128,-1,1
 35 108 35 108 35 205.5 c 128,-1,2
 35 303 35 303 82 366.5 c 128,-1,3
 129 430 129 430 227 430 c 0,4,5
 346 430 346 430 391 356 c 1,6,7
 418 395 418 395 454 412.5 c 128,-1,8
 490 430 490 430 551 430 c 0,9,10
 633 430 633 430 679.5 379.5 c 128,-1,11
 726 329 726 329 726 239 c 2,12,-1
 726 217 l 1,13,-1
 432 217 l 1,14,15
 432 124 432 124 467 73.5 c 128,-1,16
 502 23 502 23 568 23 c 0,17,18
 610 23 610 23 650 50.5 c 128,-1,19
 690 78 690 78 700 110 c 1,20,-1
 723 93 l 1,21,22
 705 47 705 47 660.5 18.5 c 128,-1,23
 616 -10 616 -10 556 -10 c 0,24,25
 451 -10 451 -10 391 64 c 1,26,27
 361 22 361 22 326.5 6 c 128,-1,28
 292 -10 292 -10 228 -10 c 0,29,0
 138 -10 138 -10 86.5 49 c 128,-1,1
126 203 m 0,30,31
 126 17 126 17 228 17 c 0,32,33
 298 17 298 17 321.5 62.5 c 128,-1,34
 345 108 345 108 345 213 c 128,-1,35
 345 318 345 318 319 360.5 c 128,-1,36
 293 403 293 403 227 403 c 0,37,38
 174 403 174 403 150 354.5 c 128,-1,39
 126 306 126 306 126 203 c 0,30,31
432 242 m 1,40,-1
 629 242 l 2,41,42
 641 242 641 242 641 257 c 0,43,44
 641 335 641 335 619 369 c 128,-1,45
 597 403 597 403 546 403 c 0,46,47
 432 403 432 403 432 242 c 1,40,-1
EndSplineSet
EndChar

StartChar: Scaron
Encoding: 352 352 196
Width: 494
GlyphClass: 2
Flags: HMW
HStem: -10 28<249.5 290.5> 580 27<220 259.5 179.5 296> 841 20G<96 103.5 390.5 398>
VStem: 56 82<449.5 485> 367 90<138 164.5> 403 20<434 518>
LayerCount: 2
Fore
SplineSet
48 203 m 1,0,-1
 73 203 l 1,1,2
 96 18 96 18 257 18 c 0,3,4
 307 18 307 18 336.5 51 c 128,-1,5
 366 84 366 84 367 138 c 1,6,7
 367 215 367 215 268 254 c 2,8,-1
 166 295 l 2,9,10
 56 339 56 339 56 441 c 0,11,12
 56 511 56 511 104.5 559 c 128,-1,13
 153 607 153 607 241 607 c 0,14,15
 281 607 281 607 334 590 c 2,16,-1
 370 578 l 2,17,18
 385 572 385 572 400 572 c 128,-1,19
 415 572 415 572 426 576 c 1,20,21
 423 552 423 552 423 502 c 128,-1,22
 423 452 423 452 429 434 c 1,23,-1
 403 434 l 1,24,25
 403 499 403 499 360.5 539.5 c 128,-1,26
 318 580 318 580 260 580 c 128,-1,27
 202 580 202 580 170 551.5 c 128,-1,28
 138 523 138 523 138 472 c 0,29,30
 138 404 138 404 224 370 c 2,31,-1
 316 333 l 2,32,33
 392 302 392 302 424.5 264.5 c 128,-1,34
 457 227 457 227 457 168 c 0,35,36
 457 90 457 90 401.5 40 c 128,-1,37
 346 -10 346 -10 268 -10 c 0,38,39
 209 -10 209 -10 160.5 4 c 128,-1,40
 112 18 112 18 84.5 18 c 128,-1,41
 57 18 57 18 52 13 c 1,42,43
 56 34 56 34 56 105.5 c 128,-1,44
 56 177 56 177 48 203 c 1,0,-1
91 853 m 0,45,46
 91 861 91 861 100 861 c 128,-1,47
 109 861 109 861 128 849 c 2,48,-1
 247 775 l 1,49,-1
 366 849 l 2,50,51
 385 861 385 861 394 861 c 128,-1,52
 403 861 403 861 403 853 c 0,53,54
 403 849 403 849 392.5 840 c 128,-1,55
 382 831 382 831 361.5 813.5 c 128,-1,56
 341 796 341 796 324 778 c 2,57,-1
 276 730 l 2,58,59
 251 705 251 705 247 705 c 128,-1,60
 243 705 243 705 218 730 c 2,61,-1
 170 778 l 2,62,63
 153 796 153 796 132.5 813.5 c 128,-1,64
 112 831 112 831 101.5 840 c 128,-1,65
 91 849 91 849 91 853 c 0,45,46
EndSplineSet
EndChar

StartChar: scaron
Encoding: 353 353 197
Width: 411
GlyphClass: 2
Flags: HMW
HStem: -10 27<198.5 246.5 181 260> 403 27<182 219 157 246> 664 20G<54 61.5 348.5 356>
VStem: 52 23 52 75<315.5 342> 304 74<81.5 111.5> 325 25
LayerCount: 2
Fore
SplineSet
44 10 m 1,0,-1
 49 142 l 1,1,-1
 75 144 l 1,2,3
 75 89 75 89 117.5 53 c 128,-1,4
 160 17 160 17 220 17 c 0,5,6
 260 17 260 17 282 37.5 c 128,-1,7
 304 58 304 58 304 89.5 c 128,-1,8
 304 121 304 121 288 139 c 128,-1,9
 272 157 272 157 234 168 c 2,10,-1
 138 195 l 2,11,12
 98 207 98 207 75 235.5 c 128,-1,13
 52 264 52 264 52 312.5 c 128,-1,14
 52 361 52 361 93 395.5 c 128,-1,15
 134 430 134 430 205 430 c 0,16,17
 232 430 232 430 274 419 c 2,18,-1
 302 412 l 1,19,20
 313 408 313 408 326.5 408 c 128,-1,21
 340 408 340 408 353 416 c 1,22,-1
 347 302 l 1,23,-1
 325 302 l 1,24,25
 325 342 325 342 293.5 372.5 c 128,-1,26
 262 403 262 403 216 403 c 128,-1,27
 170 403 170 403 148.5 383 c 128,-1,28
 127 363 127 363 127 332 c 0,29,30
 127 283 127 283 189 266 c 2,31,-1
 285 239 l 2,32,33
 336 225 336 225 357 197.5 c 128,-1,34
 378 170 378 170 378 126 c 0,35,36
 378 61 378 61 332 25.5 c 128,-1,37
 286 -10 286 -10 212 -10 c 0,38,39
 179 -10 179 -10 134 3 c 1,40,-1
 100 12 l 2,41,42
 85 16 85 16 69 16 c 128,-1,43
 53 16 53 16 44 10 c 1,0,-1
49 676 m 0,44,45
 49 684 49 684 58 684 c 128,-1,46
 67 684 67 684 86 672 c 2,47,-1
 205 598 l 1,48,-1
 324 672 l 2,49,50
 343 684 343 684 352 684 c 128,-1,51
 361 684 361 684 361 676 c 0,52,53
 361 672 361 672 350.5 663 c 128,-1,54
 340 654 340 654 319.5 636.5 c 128,-1,55
 299 619 299 619 282 601 c 2,56,-1
 234 553 l 2,57,58
 209 528 209 528 205 528 c 128,-1,59
 201 528 201 528 176 553 c 2,60,-1
 128 601 l 2,61,62
 111 619 111 619 90.5 636.5 c 128,-1,63
 70 654 70 654 59.5 663 c 128,-1,64
 49 672 49 672 49 676 c 0,44,45
EndSplineSet
EndChar

StartChar: Zcaron
Encoding: 381 381 199
Width: 512
GlyphClass: 2
Flags: HMW
HStem: -4 21G<484 484> 0 27<141 315 315 360.5 34 34> 569 28<155.5 203 203 354> 578 20G<76 112 112 112> 580 20G<35 47 47 47> 841 20G<105 112.5 399.5 407>
VStem: 35 27<443 486.5 443 600> 465 23
LayerCount: 2
Fore
SplineSet
371 0 m 2,0,-1
 34 0 l 1,1,-1
 34 27 l 1,2,-1
 354 569 l 1,3,-1
 203 569 l 2,4,5
 131 569 131 569 96.5 538.5 c 128,-1,6
 62 508 62 508 62 443 c 1,7,-1
 35 443 l 1,8,-1
 35 600 l 1,9,-1
 47 600 l 1,10,-1
 76 598 l 1,11,-1
 112 598 l 1,12,13
 125 597 125 597 144 597 c 2,14,-1
 464 597 l 1,15,-1
 464 573 l 1,16,-1
 141 27 l 1,17,-1
 315 27 l 2,18,19
 384 27 384 27 424.5 64.5 c 128,-1,20
 465 102 465 102 465 167 c 1,21,-1
 492 167 l 1,22,-1
 484 -4 l 1,23,24
 472 0 472 0 371 0 c 2,0,-1
100 853 m 0,25,26
 100 861 100 861 109 861 c 128,-1,27
 118 861 118 861 137 849 c 2,28,-1
 256 775 l 1,29,-1
 375 849 l 2,30,31
 394 861 394 861 403 861 c 128,-1,32
 412 861 412 861 412 853 c 0,33,34
 412 849 412 849 401.5 840 c 128,-1,35
 391 831 391 831 370.5 813.5 c 128,-1,36
 350 796 350 796 333 778 c 2,37,-1
 286 730 l 1,38,39
 259 705 259 705 256 705 c 128,-1,40
 253 705 253 705 226 730 c 1,41,-1
 179 778 l 2,42,43
 162 796 162 796 141.5 813.5 c 128,-1,44
 121 831 121 831 110.5 840 c 128,-1,45
 100 849 100 849 100 853 c 0,25,26
EndSplineSet
EndChar

StartChar: zcaron
Encoding: 382 382 200
Width: 441
GlyphClass: 2
Flags: HMW
HStem: -2 21G<34 39.5> 0 25<113 248 143 190 190 248 248 290> 395 25<151 185 185 201 201 283> 664 20G<69 76.5 363.5 371>
VStem: 377 21<101 139>
LayerCount: 2
Fore
SplineSet
138 0 m 1,0,-1
 34 -2 l 1,1,-1
 34 18 l 1,2,-1
 283 395 l 1,3,-1
 185 395 l 2,4,5
 84 395 84 395 66 280 c 1,6,-1
 45 280 l 1,7,-1
 54 422 l 1,8,-1
 68 421.5 l 2,9,10
 110 420 110 420 150 420 c 2,11,-1
 388 420 l 1,12,-1
 388 401 l 1,13,-1
 143 25 l 1,14,-1
 248 25 l 2,15,16
 377 25 377 25 377 139 c 1,17,-1
 398 139 l 1,18,-1
 398 0 l 1,19,-1
 138 0 l 1,0,-1
64 676 m 0,20,21
 64 684 64 684 73 684 c 128,-1,22
 82 684 82 684 101 672 c 2,23,-1
 220 598 l 1,24,-1
 339 672 l 2,25,26
 358 684 358 684 367 684 c 128,-1,27
 376 684 376 684 376 676 c 0,28,29
 376 672 376 672 365.5 663 c 128,-1,30
 355 654 355 654 334.5 636.5 c 128,-1,31
 314 619 314 619 297 601 c 2,32,-1
 250 553 l 1,33,34
 223 528 223 528 220 528 c 128,-1,35
 217 528 217 528 190 553 c 1,36,-1
 143 601 l 2,37,38
 126 619 126 619 105.5 636.5 c 128,-1,39
 85 654 85 654 74.5 663 c 128,-1,40
 64 672 64 672 64 676 c 0,20,21
EndSplineSet
EndChar

StartChar: florin
Encoding: 402 402 201
Width: 306
GlyphClass: 2
Flags: HMW
HStem: -188 26<-46 -8.5 -46 26> -188 73<-92.5 26> 389 31<86 153 59 160 251 321> 588 75<305.5 433.5> 636 27<324.5 381 305.5 383.5>
LayerCount: 2
Fore
SplineSet
-100.5 -182.5 m 128,-1,1
 -119 -177 -119 -177 -119 -160.5 c 128,-1,2
 -119 -144 -119 -144 -108 -129.5 c 128,-1,3
 -97 -115 -97 -115 -85 -115 c 128,-1,4
 -73 -115 -73 -115 -66.5 -126.5 c 128,-1,5
 -60 -138 -60 -138 -51.5 -150 c 128,-1,6
 -43 -162 -43 -162 -22.5 -162 c 128,-1,7
 -2 -162 -2 -162 13.5 -145 c 128,-1,8
 29 -128 29 -128 49 -85 c 128,-1,9
 69 -42 69 -42 112 184 c 1,10,-1
 153 389 l 1,11,-1
 59 389 l 1,12,-1
 86 420 l 1,13,-1
 160 420 l 1,14,-1
 179 490 l 2,15,16
 194.274382315 548.915474642 194.274382315 548.915474642 233.5 600 c 0,17,18
 255 628 255 628 288.5 645.5 c 128,-1,19
 322 663 322 663 363 663 c 0,20,21
 456 663 456 663 456 625.5 c 128,-1,22
 456 588 456 588 424 588 c 0,23,24
 408 588 408 588 400.5 595.5 c 128,-1,25
 393 603 393 603 392 612 c 128,-1,26
 391 621 391 621 383 628.5 c 128,-1,27
 375 636 375 636 355 636 c 128,-1,28
 335 636 335 636 314 609 c 128,-1,29
 293 582 293 582 280.5 543 c 0,30,31
 255.5 465 255.5 465 251 420 c 1,32,-1
 350 420 l 1,33,-1
 350 405 l 1,34,-1
 321 389 l 1,35,-1
 245 389 l 1,36,-1
 182 87 l 2,37,38
 160.781887755 -10.6033163265 160.781887755 -10.6033163265 111.5 -91.5 c 0,39,40
 85 -135 85 -135 46.5 -161.5 c 128,-1,41
 8 -188 8 -188 -37 -188 c 128,-1,0
 -82 -188 -82 -188 -100.5 -182.5 c 128,-1,1
EndSplineSet
EndChar

StartChar: circumflex
Encoding: 710 710 202
Width: 402
GlyphClass: 2
Flags: HMW
HStem: 478 21G<54 61.5 348.5 356> 614 20G<203.5 206.5>
LayerCount: 2
Fore
SplineSet
49 486 m 0,0,1
 49 490 49 490 59.5 499 c 128,-1,2
 70 508 70 508 90.5 525.5 c 128,-1,3
 111 543 111 543 128 561 c 2,4,-1
 176 609 l 2,5,6
 201 634 201 634 205 634 c 128,-1,7
 209 634 209 634 234 609 c 2,8,-1
 282 561 l 2,9,10
 299 543 299 543 319.5 525.5 c 128,-1,11
 340 508 340 508 350.5 499 c 128,-1,12
 361 490 361 490 361 486 c 0,13,14
 361 478 361 478 352 478 c 128,-1,15
 343 478 343 478 324 490 c 2,16,-1
 205 564 l 1,17,-1
 86 490 l 2,18,19
 67 478 67 478 58 478 c 128,-1,20
 49 478 49 478 49 486 c 0,0,1
EndSplineSet
EndChar

StartChar: tilde
Encoding: 732 732 203
Width: 400
GlyphClass: 2
Flags: HMW
HStem: 524 49<270.5 297.5> 525 21G<57 77 57 57> 567 49<102.5 130> 595 20G<323 343 343 343>
LayerCount: 2
Fore
SplineSet
77 525 m 1,0,-1
 57 525 l 1,1,2
 57 562 57 562 75.5 589 c 128,-1,3
 94 616 94 616 118.5 616 c 0,4,5
 143 616 143 616 207 594.5 c 128,-1,6
 271 573 271 573 287.5 573 c 0,7,8
 304 573 304 573 313.5 585 c 128,-1,9
 323 597 323 597 323 615 c 1,10,-1
 343 615 l 1,11,12
 343 578 343 578 324.5 551 c 128,-1,13
 306 524 306 524 281 524 c 0,14,15
 256 524 256 524 193 545.5 c 128,-1,16
 130 567 130 567 113 567 c 0,17,18
 96 567 96 567 86.5 555 c 128,-1,19
 77 543 77 543 77 525 c 1,0,-1
EndSplineSet
EndChar

StartChar: endash
Encoding: 8211 8211 204
Width: 477
GlyphClass: 2
Flags: HMW
HStem: 191 39<18 459 18 459>
LayerCount: 2
Fore
SplineSet
459 191 m 1,0,-1
 18 191 l 1,1,-1
 18 230 l 1,2,-1
 459 230 l 1,3,-1
 459 191 l 1,0,-1
EndSplineSet
EndChar

StartChar: emdash
Encoding: 8212 8212 205
Width: 794
GlyphClass: 2
Flags: HMW
HStem: 191 39<0 794 0 794>
LayerCount: 2
Fore
SplineSet
794 191 m 1,0,-1
 0 191 l 1,1,-1
 0 230 l 1,2,-1
 794 230 l 1,3,-1
 794 191 l 1,0,-1
EndSplineSet
EndChar

StartChar: quoteleft
Encoding: 8216 8216 206
Width: 220
GlyphClass: 2
Flags: HMW
HStem: 394 96<128 131.5> 625 20G<156 156>
VStem: 46 128<450.5 455.5 433 514>
LayerCount: 2
Fore
SplineSet
46 477 m 0,0,1
 46 527 46 527 80 571.5 c 128,-1,2
 114 616 114 616 156 645 c 1,3,-1
 175 634 l 1,4,5
 149 610 149 610 127.5 576 c 128,-1,6
 106 542 106 542 106 522 c 0,7,8
 106 502 106 502 111.5 496 c 128,-1,9
 117 490 117 490 128 490 c 2,10,-1
 142 490 l 2,11,12
 174 490 174 490 174 447 c 0,13,14
 174 426 174 426 156.5 410 c 128,-1,15
 139 394 139 394 116 394 c 0,16,17
 46 394 46 394 46 477 c 0,0,1
EndSplineSet
EndChar

StartChar: quoteright
Encoding: 8217 8217 207
Width: 220
GlyphClass: 2
Flags: HMW
HStem: 379 21G<83 83> 534 96<83.5 146.5>
VStem: 65 128<568.5 573.5 510 591> 133 60<510 516.5>
LayerCount: 2
Fore
SplineSet
83 379 m 1,0,-1
 64 390 l 1,1,2
 90 414 90 414 111.5 448 c 128,-1,3
 133 482 133 482 133 505 c 0,4,5
 133 534 133 534 97 534 c 0,6,7
 65 534 65 534 65 577 c 0,8,9
 65 598 65 598 82.5 614 c 128,-1,10
 100 630 100 630 123 630 c 0,11,12
 193 630 193 630 193 547 c 0,13,14
 193 497 193 497 159 452.5 c 128,-1,15
 125 408 125 408 83 379 c 1,0,-1
EndSplineSet
EndChar

StartChar: quotesinglbase
Encoding: 8218 8218 208
Width: 264
GlyphClass: 2
Flags: HMW
HStem: -160 21G<121 121> -5 96<121.5 184.5>
VStem: 103 128<29.5 34.5 -29 52> 171 60<-29 -22.5>
LayerCount: 2
Fore
SplineSet
121 -160 m 1,0,-1
 102 -149 l 1,1,2
 128 -125 128 -125 149.5 -91 c 128,-1,3
 171 -57 171 -57 171 -34 c 0,4,5
 171 -5 171 -5 135 -5 c 0,6,7
 103 -5 103 -5 103 38 c 0,8,9
 103 59 103 59 120.5 75 c 128,-1,10
 138 91 138 91 161 91 c 0,11,12
 231 91 231 91 231 8 c 0,13,14
 231 -42 231 -42 197 -86.5 c 128,-1,15
 163 -131 163 -131 121 -160 c 1,0,-1
EndSplineSet
EndChar

StartChar: quotedblleft
Encoding: 8220 8220 209
Width: 386
GlyphClass: 2
Flags: HMW
HStem: 394 96<128 131.5 294 297.5> 625 20G<156 156 322 322>
VStem: 46 60<506.5 514> 46 128<450.5 455.5 433 514> 212 60<506.5 514> 212 128<450.5 455.5 433 514>
LayerCount: 2
Fore
SplineSet
46 477 m 0,0,1
 46 527 46 527 80 571.5 c 128,-1,2
 114 616 114 616 156 645 c 1,3,-1
 175 634 l 1,4,5
 149 610 149 610 127.5 576 c 128,-1,6
 106 542 106 542 106 522 c 0,7,8
 106 502 106 502 111.5 496 c 128,-1,9
 117 490 117 490 128 490 c 2,10,-1
 142 490 l 2,11,12
 174 490 174 490 174 447 c 0,13,14
 174 426 174 426 156.5 410 c 128,-1,15
 139 394 139 394 116 394 c 0,16,17
 46 394 46 394 46 477 c 0,0,1
212 477 m 0,18,19
 212 527 212 527 246 571.5 c 128,-1,20
 280 616 280 616 322 645 c 1,21,-1
 341 634 l 1,22,23
 315 610 315 610 293.5 576 c 128,-1,24
 272 542 272 542 272 522 c 0,25,26
 272 502 272 502 277.5 496 c 128,-1,27
 283 490 283 490 294 490 c 2,28,-1
 308 490 l 2,29,30
 340 490 340 490 340 447 c 0,31,32
 340 426 340 426 322.5 410 c 128,-1,33
 305 394 305 394 282 394 c 0,34,35
 212 394 212 394 212 477 c 0,18,19
EndSplineSet
EndChar

StartChar: quotedblright
Encoding: 8221 8221 210
Width: 386
GlyphClass: 2
Flags: HMW
HStem: 379 21G<79 79 245 245> 534 96<79.5 142.5>
VStem: 61 128<568.5 573.5 510 591> 129 60<510 516.5> 227 128<568.5 573.5 510 591> 295 60<510 516.5>
LayerCount: 2
Fore
SplineSet
79 379 m 1,0,-1
 60 390 l 1,1,2
 86 414 86 414 107.5 448 c 128,-1,3
 129 482 129 482 129 505 c 0,4,5
 129 534 129 534 93 534 c 0,6,7
 61 534 61 534 61 577 c 0,8,9
 61 598 61 598 78.5 614 c 128,-1,10
 96 630 96 630 119 630 c 0,11,12
 189 630 189 630 189 547 c 0,13,14
 189 497 189 497 155 452.5 c 128,-1,15
 121 408 121 408 79 379 c 1,0,-1
245 379 m 1,16,-1
 226 390 l 1,17,18
 252 414 252 414 273.5 448 c 128,-1,19
 295 482 295 482 295 505 c 0,20,21
 295 534 295 534 259 534 c 0,22,23
 227 534 227 534 227 577 c 0,24,25
 227 598 227 598 244.5 614 c 128,-1,26
 262 630 262 630 285 630 c 0,27,28
 355 630 355 630 355 547 c 0,29,30
 355 497 355 497 321 452.5 c 128,-1,31
 287 408 287 408 245 379 c 1,16,-1
EndSplineSet
EndChar

StartChar: quotedblbase
Encoding: 8222 8222 211
Width: 462
GlyphClass: 2
Flags: HMW
HStem: -160 21G<121 121 301 301> -5 96<121.5 184.5>
VStem: 103 128<29.5 34.5 -29 52> 171 60<-29 -22.5> 283 128<29.5 34.5 -29 52> 351 60<-29 -22.5>
LayerCount: 2
Fore
SplineSet
121 -160 m 1,0,-1
 102 -149 l 1,1,2
 128 -125 128 -125 149.5 -91 c 128,-1,3
 171 -57 171 -57 171 -34 c 0,4,5
 171 -5 171 -5 135 -5 c 0,6,7
 103 -5 103 -5 103 38 c 0,8,9
 103 59 103 59 120.5 75 c 128,-1,10
 138 91 138 91 161 91 c 0,11,12
 231 91 231 91 231 8 c 0,13,14
 231 -42 231 -42 197 -86.5 c 128,-1,15
 163 -131 163 -131 121 -160 c 1,0,-1
301 -160 m 1,16,-1
 282 -149 l 1,17,18
 308 -125 308 -125 329.5 -91 c 128,-1,19
 351 -57 351 -57 351 -34 c 0,20,21
 351 -5 351 -5 315 -5 c 0,22,23
 283 -5 283 -5 283 38 c 0,24,25
 283 59 283 59 300.5 75 c 128,-1,26
 318 91 318 91 341 91 c 0,27,28
 411 91 411 91 411 8 c 0,29,30
 411 -42 411 -42 377 -86.5 c 128,-1,31
 343 -131 343 -131 301 -160 c 1,16,-1
EndSplineSet
EndChar

StartChar: dagger
Encoding: 8224 8224 212
Width: 528
GlyphClass: 2
Flags: HMW
HStem: -150 21G<244 274> 358 100<78.5 89 428.5 439.5> 397 61<78.5 148> 397 243<119 272.5 245.5 399.5>
VStem: 35 242<393.5 557.5> 209 68 222 74<156 156> 222 87 241 36<542 557.5> 241 242<393.5 557.5>
LayerCount: 2
Fore
SplineSet
204 390 m 1,0,-1
 136 397 l 1,1,2
 118 397 118 397 103 377.5 c 128,-1,3
 88 358 88 358 75 358 c 0,4,5
 35 358 35 358 35 408 c 0,6,7
 35 429 35 429 52.5 443.5 c 128,-1,8
 70 458 70 458 91 458 c 128,-1,9
 112 458 112 458 124 452 c 2,10,-1
 150 437 l 2,11,12
 186 416 186 416 241 416 c 1,13,14
 229 452 229 452 229 466.5 c 128,-1,15
 229 481 229 481 231 495 c 2,16,-1
 235 515 l 2,17,18
 241 541 241 541 241 549.5 c 128,-1,19
 241 558 241 558 226 574 c 128,-1,20
 211 590 211 590 211 604 c 128,-1,21
 211 618 211 618 225 629 c 128,-1,22
 239 640 239 640 259 640 c 128,-1,23
 279 640 279 640 293 629 c 128,-1,24
 307 618 307 618 307 604 c 128,-1,25
 307 590 307 590 292 574 c 128,-1,26
 277 558 277 558 277 549.5 c 128,-1,27
 277 541 277 541 283 515 c 2,28,-1
 287 495 l 2,29,30
 289 481 289 481 289 466.5 c 128,-1,31
 289 452 289 452 277 416 c 1,32,33
 332 416 332 416 368 437 c 2,34,-1
 394 452 l 2,35,36
 406 458 406 458 427 458 c 128,-1,37
 448 458 448 458 465.5 443.5 c 128,-1,38
 483 429 483 429 483 408 c 0,39,40
 483 358 483 358 443 358 c 0,41,42
 429 358 429 358 414.5 377.5 c 128,-1,43
 400 397 400 397 382 397 c 1,44,45
 314 390 l 1,46,47
 292 390 292 390 273 399 c 1,48,49
 273 362 273 362 291 336 c 2,50,-1
 304 318 l 2,51,52
 309 310 309 310 309 302.5 c 128,-1,53
 309 295 309 295 303.5 251 c 128,-1,54
 298 207 298 207 296.5 146 c 128,-1,55
 295 85 295 85 293.5 44 c 128,-1,56
 292 3 292 3 288 -49 c 128,-1,57
 284 -101 284 -101 277 -125.5 c 128,-1,58
 270 -150 270 -150 259 -150 c 128,-1,59
 248 -150 248 -150 241 -125.5 c 128,-1,60
 234 -101 234 -101 230 -49 c 0,61,62
 223.74137931 32.3620689655 223.74137931 32.3620689655 222 156 c 1,63,64
 220 207 220 207 214.5 251 c 128,-1,65
 209 295 209 295 209 302.5 c 128,-1,66
 209 310 209 310 214 318 c 2,67,-1
 227 336 l 2,68,69
 245 362 245 362 245 399 c 1,70,71
 226 390 226 390 204 390 c 1,0,-1
EndSplineSet
EndChar

StartChar: daggerdbl
Encoding: 8225 8225 213
Width: 528
GlyphClass: 2
Flags: HMW
HStem: -153 243<119 272.5> 29 61<78.5 148> 29 100<78.5 89 59.5 100.5 428.5 439.5> 358 100<78.5 89 428.5 439.5> 390 26<192.5 241> 390 68 390 250<192.5 272.5 245.5 325.5>
VStem: 35 242<-70.5 93.5> 211 66<-126.5 -55> 229 60<7.5 18.5 468.5 479.5> 241 36<-70.5 -55 542 557.5> 241 66<-126.5 -55> 241 242<-70.5 93.5>
LayerCount: 2
Fore
SplineSet
314 97 m 1,0,-1
 382 90 l 1,1,2
 400 90 400 90 414.5 109.5 c 128,-1,3
 429 129 429 129 443 129 c 0,4,5
 483 129 483 129 483 79 c 0,6,7
 483 58 483 58 465.5 43.5 c 128,-1,8
 448 29 448 29 426.5 29 c 128,-1,9
 405 29 405 29 394 36 c 2,10,-1
 368 50 l 1,11,12
 332 71 332 71 277 71 c 1,13,14
 289 35 289 35 289 20.5 c 128,-1,15
 289 6 289 6 287 -8 c 2,16,-1
 283 -28 l 2,17,18
 277 -54 277 -54 277 -62 c 128,-1,19
 277 -70 277 -70 292 -87 c 128,-1,20
 307 -104 307 -104 307 -117.5 c 128,-1,21
 307 -131 307 -131 293 -142 c 128,-1,22
 279 -153 279 -153 259 -153 c 128,-1,23
 239 -153 239 -153 225 -142 c 128,-1,24
 211 -131 211 -131 211 -117.5 c 128,-1,25
 211 -104 211 -104 226 -87 c 128,-1,26
 241 -70 241 -70 241 -62 c 128,-1,27
 241 -54 241 -54 235 -28 c 2,28,-1
 231 -8 l 2,29,30
 229 6 229 6 229 20.5 c 128,-1,31
 229 35 229 35 241 71 c 1,32,33
 186 71 186 71 150 50 c 1,34,-1
 124 36 l 2,35,36
 113 29 113 29 91.5 29 c 128,-1,37
 70 29 70 29 52.5 43.5 c 128,-1,38
 35 58 35 58 35 79 c 0,39,40
 35 129 35 129 75 129 c 0,41,42
 88 129 88 129 103 109.5 c 128,-1,43
 118 90 118 90 136 90 c 1,44,-1
 204 97 l 1,45,46
 226 97 226 97 245 88 c 1,47,48
 245 126 245 126 227 150 c 2,49,-1
 214 168 l 2,50,51
 209 176 209 176 209 194.5 c 128,-1,52
 209 213 209 213 224 238 c 1,53,-1
 227 244 l 1,54,-1
 218 262 l 2,55,56
 208.909090909 282 208.909090909 282 208.909090909 295.927272727 c 128,-1,57
 208.909090909 309.854545455 208.909090909 309.854545455 214 318 c 2,58,-1
 227 336 l 2,59,60
 245 362 245 362 245 399 c 1,61,62
 226 390 226 390 204 390 c 1,63,-1
 136 397 l 1,64,65
 118 397 118 397 103 377.5 c 128,-1,66
 88 358 88 358 75 358 c 0,67,68
 35 358 35 358 35 408 c 0,69,70
 35 429 35 429 52.5 443.5 c 128,-1,71
 70 458 70 458 91 458 c 128,-1,72
 112 458 112 458 124 452 c 2,73,-1
 150 437 l 2,74,75
 186 416 186 416 241 416 c 1,76,77
 229 452 229 452 229 466.5 c 128,-1,78
 229 481 229 481 231 495 c 2,79,-1
 235 515 l 2,80,81
 241 541 241 541 241 549.5 c 128,-1,82
 241 558 241 558 226 574 c 128,-1,83
 211 590 211 590 211 604 c 128,-1,84
 211 618 211 618 225 629 c 128,-1,85
 239 640 239 640 259 640 c 128,-1,86
 279 640 279 640 293 629 c 128,-1,87
 307 618 307 618 307 604 c 128,-1,88
 307 590 307 590 292 574 c 128,-1,89
 277 558 277 558 277 549.5 c 128,-1,90
 277 541 277 541 283 515 c 2,91,-1
 287 495 l 2,92,93
 289 481 289 481 289 466.5 c 128,-1,94
 289 452 289 452 277 416 c 1,95,96
 332 416 332 416 368 437 c 2,97,-1
 394 452 l 2,98,99
 406 458 406 458 427 458 c 128,-1,100
 448 458 448 458 465.5 443.5 c 128,-1,101
 483 429 483 429 483 408 c 0,102,103
 483 358 483 358 443 358 c 0,104,105
 429 358 429 358 414.5 377.5 c 128,-1,106
 400 397 400 397 382 397 c 1,107,-1
 314 390 l 1,108,109
 292 390 292 390 273 399 c 1,110,111
 273 362 273 362 291 336 c 2,112,-1
 304 318 l 2,113,114
 309 310 309 310 309 296 c 128,-1,115
 309 282 309 282 300 262 c 2,116,-1
 291 244 l 1,117,-1
 294 238 l 1,118,119
 309 213 309 213 309 194.5 c 128,-1,120
 309 176 309 176 304 168 c 2,121,-1
 291 150 l 2,122,123
 273 126 273 126 273 88 c 1,124,125
 292 97 292 97 314 97 c 1,0,-1
EndSplineSet
EndChar

StartChar: bullet
Encoding: 8226 8226 214
Width: 469
GlyphClass: 2
Flags: HMW
HStem: 131 232<198 269.5>
LayerCount: 2
Fore
SplineSet
105 247 m 128,-1,1
 105 298 105 298 142 330.5 c 128,-1,2
 179 363 179 363 234 363 c 128,-1,3
 289 363 289 363 325.5 330.5 c 128,-1,4
 362 298 362 298 362 247 c 128,-1,5
 362 196 362 196 325 163.5 c 128,-1,6
 288 131 288 131 232.5 131 c 0,7,8
 177 131 177 131 141 163.5 c 128,-1,0
 105 196 105 196 105 247 c 128,-1,1
EndSplineSet
EndChar

StartChar: ellipsis
Encoding: 8230 8230 215
Width: 689
GlyphClass: 2
Flags: HMW
HStem: -10 115<106.5 143.5 326.5 363.5 545.5 582.5>
VStem: 60 130<29.5 64.5> 280 130<29.5 64.5> 499 130<29.5 64.5>
LayerCount: 2
Fore
SplineSet
60 47 m 128,-1,1
 60 73 60 73 78.5 89 c 128,-1,2
 97 105 97 105 125 105 c 128,-1,3
 153 105 153 105 171.5 89 c 128,-1,4
 190 73 190 73 190 47 c 128,-1,5
 190 21 190 21 171.5 5.5 c 128,-1,6
 153 -10 153 -10 125 -10 c 128,-1,7
 97 -10 97 -10 78.5 5.5 c 128,-1,0
 60 21 60 21 60 47 c 128,-1,1
280 47 m 128,-1,9
 280 73 280 73 298.5 89 c 128,-1,10
 317 105 317 105 345 105 c 128,-1,11
 373 105 373 105 391.5 89 c 128,-1,12
 410 73 410 73 410 47 c 128,-1,13
 410 21 410 21 391.5 5.5 c 128,-1,14
 373 -10 373 -10 345 -10 c 128,-1,15
 317 -10 317 -10 298.5 5.5 c 128,-1,8
 280 21 280 21 280 47 c 128,-1,9
499 47 m 128,-1,17
 499 73 499 73 517.5 89 c 128,-1,18
 536 105 536 105 564 105 c 128,-1,19
 592 105 592 105 610.5 89 c 128,-1,20
 629 73 629 73 629 47 c 128,-1,21
 629 21 629 21 610.5 5.5 c 128,-1,22
 592 -10 592 -10 564 -10 c 128,-1,23
 536 -10 536 -10 517.5 5.5 c 128,-1,16
 499 21 499 21 499 47 c 128,-1,17
EndSplineSet
EndChar

StartChar: perthousand
Encoding: 8240 8240 216
Width: 827
GlyphClass: 2
Flags: HMW
HStem: -70 21G 660 20G<116.5 188>
VStem: 30 64<492 584.5 489.5 585.5> 211 64<490.5 584.5 490.5 586.5> 285 64<28 120.5 25.5 121.5> 466 64<26.5 120.5 26.5 122.5> 570 64<28 120.5 25.5 121.5> 751 64<26.5 120.5 26.5 122.5>
LayerCount: 2
Fore
SplineSet
33 -70 m 1,0,-1
 0 -47 l 1,1,-1
 465 605 l 1,2,-1
 499 585 l 1,3,-1
 33 -70 l 1,0,-1
62.5 433 m 128,-1,5
 30 470 30 470 30 538.5 c 128,-1,6
 30 607 30 607 63.5 643.5 c 128,-1,7
 97 680 97 680 152.5 680 c 128,-1,8
 208 680 208 680 241.5 643 c 128,-1,9
 275 606 275 606 275 537.5 c 128,-1,10
 275 469 275 469 241.5 432.5 c 128,-1,11
 208 396 208 396 151.5 396 c 128,-1,4
 95 396 95 396 62.5 433 c 128,-1,5
94 538.5 m 128,-1,13
 94 415 94 415 152.5 415 c 128,-1,14
 211 415 211 415 211 538.5 c 128,-1,15
 211 662 211 662 152.5 662 c 128,-1,12
 94 662 94 662 94 538.5 c 128,-1,13
317.5 -31 m 128,-1,17
 285 6 285 6 285 74.5 c 128,-1,18
 285 143 285 143 318.5 179.5 c 128,-1,19
 352 216 352 216 407.5 216 c 128,-1,20
 463 216 463 216 496.5 179 c 128,-1,21
 530 142 530 142 530 73.5 c 128,-1,22
 530 5 530 5 496.5 -31.5 c 128,-1,23
 463 -68 463 -68 406.5 -68 c 128,-1,16
 350 -68 350 -68 317.5 -31 c 128,-1,17
349 74.5 m 128,-1,25
 349 -49 349 -49 407.5 -49 c 128,-1,26
 466 -49 466 -49 466 74.5 c 128,-1,27
 466 198 466 198 407.5 198 c 128,-1,24
 349 198 349 198 349 74.5 c 128,-1,25
602.5 -31 m 128,-1,29
 570 6 570 6 570 74.5 c 128,-1,30
 570 143 570 143 603.5 179.5 c 128,-1,31
 637 216 637 216 692.5 216 c 128,-1,32
 748 216 748 216 781.5 179 c 128,-1,33
 815 142 815 142 815 73.5 c 128,-1,34
 815 5 815 5 781.5 -31.5 c 128,-1,35
 748 -68 748 -68 691.5 -68 c 128,-1,28
 635 -68 635 -68 602.5 -31 c 128,-1,29
634 74.5 m 128,-1,37
 634 -49 634 -49 692.5 -49 c 128,-1,38
 751 -49 751 -49 751 74.5 c 128,-1,39
 751 198 751 198 692.5 198 c 128,-1,36
 634 198 634 198 634 74.5 c 128,-1,37
EndSplineSet
EndChar

StartChar: guilsinglleft
Encoding: 8249 8249 217
Width: 226
GlyphClass: 2
Flags: HMW
HStem: 16 21G<175 175 175 211> 338 20G<175 211 211 211>
LayerCount: 2
Fore
SplineSet
175 16 m 1,0,-1
 26 187 l 1,1,-1
 175 358 l 1,2,-1
 211 358 l 1,3,-1
 113 187 l 1,4,-1
 211 16 l 1,5,-1
 175 16 l 1,0,-1
EndSplineSet
EndChar

StartChar: guilsinglright
Encoding: 8250 8250 218
Width: 225
GlyphClass: 2
Flags: HMW
HStem: 16 21G<15 51 15 15> 338 20G<15 51 51 51>
LayerCount: 2
Fore
SplineSet
51 16 m 1,0,-1
 15 16 l 1,1,-1
 113 187 l 1,2,-1
 15 358 l 1,3,-1
 51 358 l 1,4,-1
 200 187 l 1,5,-1
 51 16 l 1,0,-1
EndSplineSet
EndChar

